0
SECTION
2
HEADER
9
$INSUNITS
70
4
9
$ACADVER
1
AC1014
9
$HANDSEED
5
FFFF
0
ENDSEC
0
SECTION
2
TABLES
0
TABLE
2
VPORT
5
8
100
AcDbSymbolTable
0
ENDTAB
0
TABLE
2
LTYPE
5
5
100
AcDbSymbolTable
70
2
0
LTYPE
5
14
100
AcDbSymbolTableRecord
100
AcDbLinetypeTableRecord
2
BYBLOCK
70
0
0
LTYPE
5
15
100
AcDbSymbolTableRecord
100
AcDbLinetypeTableRecord
2
BYLAYER
70
0
0
ENDTAB
0
TABLE
2
LAYER
5
2
100
AcDbSymbolTable
70
3
0
LAYER
5
50
100
AcDbSymbolTableRecord
100
AcDbLayerTableRecord
2
0
70
0
6
CONTINUOUS
0
LAYER
5
51
100
AcDbSymbolTableRecord
100
AcDbLayerTableRecord
2
CUTOUTS
70
0
62
1
6
CONTINUOUS
0
LAYER
5
52
100
AcDbSymbolTableRecord
100
AcDbLayerTableRecord
2
PERIMETER
70
0
62
5
6
CONTINUOUS
0
ENDTAB
0
TABLE
2
STYLE
5
3
100
AcDbSymbolTable
70
1
0
STYLE
5
11
100
AcDbSymbolTableRecord
100
AcDbTextStyleTableRecord
2
STANDARD
70
0
0
ENDTAB
0
TABLE
2
VIEW
5
6
100
AcDbSymbolTable
0
ENDTAB
0
TABLE
2
UCS
5
7
100
AcDbSymbolTable
0
ENDTAB
0
TABLE
2
APPID
5
9
100
AcDbSymbolTable
70
1
0
APPID
5
12
100
AcDbSymbolTableRecord
100
AcDbRegAppTableRecord
2
ACAD
70
0
0
ENDTAB
0
TABLE
2
DIMSTYLE
5
A
100
AcDbSymbolTable
0
ENDTAB
0
TABLE
2
BLOCK_RECORD
5
1
100
AcDbSymbolTable
70
2
0
BLOCK_RECORD
5
1F
100
AcDbSymbolTableRecord
100
AcDbBlockTableRecord
2
*MODEL_SPACE
0
BLOCK_RECORD
5
1B
100
AcDbSymbolTableRecord
100
AcDbBlockTableRecord
2
*PAPER_SPACE
0
ENDTAB
0
ENDSEC
0
SECTION
2
BLOCKS
0
BLOCK
5
20
100
AcDbEntity
100
AcDbBlockBegin
2
*MODEL_SPACE
0
ENDBLK
5
21
100
AcDbEntity
100
AcDbBlockEnd
0
BLOCK
5
1C
100
AcDbEntity
100
AcDbBlockBegin
2
*PAPER_SPACE
0
ENDBLK
5
1D
100
AcDbEntity
100
AcDbBlockEnd
0
ENDSEC
0
SECTION
2
ENTITIES
0
ARC
5
100
100
AcDbEntity
8
CUTOUTS
100
AcDbCircle
10
154.89093704539405
20
-28.122990562963118
30
0
40
163.16828797208942
210
0
220
0
230
1
100
AcDbArc
50
178.77091363625388
51
185.06881293448365
0
LINE
5
101
100
AcDbEntity
8
CUTOUTS
100
AcDbLine
10
-7.6392494419684809
20
-42.539254993316163
30
0
11
-12.166835917056513
21
-42.544952359912728
31
0
0
ARC
5
102
100
AcDbEntity
8
CUTOUTS
100
AcDbCircle
10
-112.40968671643694
20
-30.398276978945262
30
0
40
100.9760905323505
210
-0
220
0
230
1
100
AcDbArc
50
-6.908989029818362
51
3.2765300822441299
0
LINE
5
103
100
AcDbEntity
8
CUTOUTS
100
AcDbLine
10
-11.598660521482564
20
-24.626981048422412
30
0
11
-8.2398096841561497
21
-24.623037534413612
31
0
0
ARC
5
104
100
AcDbEntity
8
CUTOUTS
100
AcDbCircle
10
154.91075347969766
20
-28.018040772374214
30
0
40
160.65141458451717
210
0
220
0
230
1
100
AcDbArc
50
178.78803177691518
51
185.18486805588125
0
LINE
5
105
100
AcDbEntity
8
CUTOUTS
100
AcDbLine
10
-5.7047213122526763
20
-24.620061172261121
30
0
11
-2.3334634205664884
21
-24.616103091546314
31
0
0
LINE
5
106
100
AcDbEntity
8
CUTOUTS
100
AcDbLine
10
-2.3334634205664884
20
-24.616103091546314
30
0
11
-2.3114215700010021
21
-42.53255062914387
31
0
0
LINE
5
107
100
AcDbEntity
8
CUTOUTS
100
AcDbLine
10
-2.3114215700010021
20
-42.53255062914387
30
0
11
-5.0833237362337691
21
-42.53603870008363
31
0
0
LINE
5
108
100
AcDbEntity
8
CUTOUTS
100
AcDbLine
10
0.20251367080712512
20
-24.613125685978119
30
0
11
2.5821596872586916
21
-24.610331823476834
31
0
0
LINE
5
109
100
AcDbEntity
8
CUTOUTS
100
AcDbLine
10
2.5821596872586916
20
-24.610331823476834
30
0
11
2.6047046360446302
21
-42.52636433686979
31
0
0
LINE
5
10A
100
AcDbEntity
8
CUTOUTS
100
AcDbLine
10
2.6047046360446302
20
-42.52636433686979
30
0
11
0.22786243799373551
21
-42.529355277279009
31
0
0
LINE
5
10B
100
AcDbEntity
8
CUTOUTS
100
AcDbLine
10
0.22786243799373551
20
-42.529355277279009
30
0
11
0.20251367080712512
21
-24.613125685978122
31
0
0
ARC
5
10C
100
AcDbEntity
8
CUTOUTS
100
AcDbCircle
10
154.91075347969766
20
-28.018040772374214
30
0
40
160.65141458451723
210
0
220
0
230
1
100
AcDbArc
50
170.32087894073345
51
178.31628758846915
0
LINE
5
10D
100
AcDbEntity
8
CUTOUTS
100
AcDbLine
10
-3.4537564454468317
20
-1.0076908269322082
30
0
11
2.5524493857679253
21
-1.0001328141433108
31
0
0
LINE
5
10E
100
AcDbEntity
8
CUTOUTS
100
AcDbLine
10
2.5524493857679253
20
-1.0001328141433108
30
0
11
2.5804958054985505
21
-23.288077335512636
31
0
0
LINE
5
10F
100
AcDbEntity
8
CUTOUTS
100
AcDbLine
10
2.5804958054985505
20
-23.288077335512636
30
0
11
0.20064288014504328
21
-23.290871440936915
31
0
0
LINE
5
110
100
AcDbEntity
8
CUTOUTS
100
AcDbLine
10
0.20064288014504328
20
-23.290871440936915
30
0
11
0.18094416287210535
21
-9.368034929080542
31
0
0
ARC
5
111
100
AcDbEntity
8
CUTOUTS
100
AcDbCircle
10
-0.81905483625112296
20
-9.3694497770923046
30
0
40
1.0000000000211773
210
0
220
-0
230
1
100
AcDbArc
50
0.081064846767233148
51
90.073466327462526
0
LINE
5
112
100
AcDbEntity
8
CUTOUTS
100
AcDbLine
10
-0.8203370652033648
20
-8.3694505991270098
30
0
11
-1.3535013667701001
21
-8.370134238384157
31
0
0
ARC
5
113
100
AcDbEntity
8
CUTOUTS
100
AcDbCircle
10
-1.3522191378177162
20
-9.3701334164715977
30
0
40
1.0000000001433216
210
0
220
0
230
1
100
AcDbArc
50
90.073466327461688
51
180.07048854803165
0
LINE
5
114
100
AcDbEntity
8
CUTOUTS
100
AcDbLine
10
-2.3522183811946995
20
-9.3713636734096273
30
0
11
-2.3350901346086594
21
-23.293848559941019
31
0
0
LINE
5
115
100
AcDbEntity
8
CUTOUTS
100
AcDbLine
10
-2.3350901346086594
20
-23.293848559941019
30
0
11
-5.6713003410426666
21
-23.297765492342442
31
0
0
ARC
5
116
100
AcDbEntity
8
PERIMETER
100
AcDbCircle
10
8.7665601000730575
20
10.479557520259117
30
0
40
0.99999999999999445
210
0
220
0
230
1
100
AcDbArc
50
90.075073318888926
51
179.40076376854358
0
LINE
5
117
100
AcDbEntity
8
PERIMETER
100
AcDbLine
10
7.7666147912046313
20
10.490015974829525
30
0
11
7.6699002412957284
21
1.2430225658380678
31
0
0
LINE
5
118
100
AcDbEntity
8
PERIMETER
100
AcDbLine
10
7.6699002412957284
20
1.2430225658380678
30
0
11
5.0900112595290992
21
1.2700056932883452
31
0
0
LINE
5
119
100
AcDbEntity
8
PERIMETER
100
AcDbLine
10
5.0900112595290992
20
1.2700056932883452
30
0
11
5.0861194511639063
21
4.3627501426821125
31
0
0
ARC
5
11A
100
AcDbEntity
8
PERIMETER
100
AcDbCircle
10
4.0861202429052668
20
4.3614917764163463
30
0
40
1.0000000000017824
210
0
220
-0
230
1
100
AcDbArc
50
0.072099095137449637
51
90.105994420984871
0
LINE
5
11B
100
AcDbEntity
8
PERIMETER
100
AcDbLine
10
4.0842702923255203
20
5.3614900652580921
30
0
11
3.5438545921193843
21
5.3604903212076804
31
0
0
ARC
5
11C
100
AcDbEntity
8
PERIMETER
100
AcDbCircle
10
3.5457045426991662
20
4.3604920323676888
30
0
40
1.0000000000000295
210
0
220
0
230
1
100
AcDbArc
50
90.105994420987102
51
180.07209909515768
0
LINE
5
11D
100
AcDbEntity
8
PERIMETER
100
AcDbLine
10
2.5457053344422853
20
4.3592336661014519
30
0
11
2.5495927177891886
21
1.2700056932883452
31
0
0
LINE
5
11E
100
AcDbEntity
8
PERIMETER
100
AcDbLine
10
2.5495927177891886
20
1.2700056932883452
30
0
11
-3.049684657997247
21
1.2629597459462172
31
0
0
ARC
5
11F
100
AcDbEntity
8
PERIMETER
100
AcDbCircle
10
154.91075347969766
20
-28.018040772374214
30
0
40
160.6514145845172
210
0
220
0
230
1
100
AcDbArc
50
159.23069698479284
51
169.49832946485603
0
LINE
5
120
100
AcDbEntity
8
PERIMETER
100
AcDbLine
10
4.6991432652927223
20
28.949925355986935
30
0
11
8.4242997151305055
21
27.962799982851905
31
0
0
LINE
5
121
100
AcDbEntity
8
PERIMETER
100
AcDbLine
10
8.4242997151305055
20
27.962799982851905
30
0
11
5.2217274781311218
21
15.877118721472891
31
0
0
ARC
5
122
100
AcDbEntity
8
PERIMETER
100
AcDbCircle
10
6.1883649801694141
20
15.620970444820665
30
0
40
0.99999999998936739
210
0
220
0
230
1
100
AcDbArc
50
165.15836341344169
51
255.10657361851517
0
LINE
5
123
100
AcDbEntity
8
PERIMETER
100
AcDbLine
10
5.9313430622807317
20
14.654564870693756
30
0
11
6.4536047009816677
21
14.5156659532796
31
0
0
ARC
5
124
100
AcDbEntity
8
PERIMETER
100
AcDbCircle
10
6.7106266188731034
20
15.482071527416759
30
0
40
0.99999999999998201
210
0
220
0
230
1
100
AcDbArc
50
255.10657361851364
51
345.15836347059718
0
LINE
5
125
100
AcDbEntity
8
PERIMETER
100
AcDbLine
10
7.6772641211771742
20
15.225923251726083
30
0
11
13.780544837985147
21
38.25812993771271
31
0
0
ARC
5
126
100
AcDbEntity
8
PERIMETER
100
AcDbCircle
10
12.813907335662087
20
38.514278213408403
30
0
40
1.0000000000196203
210
-0
220
0
230
1
100
AcDbArc
50
-14.841636529402157
51
75.103852395305267
0
LINE
5
127
100
AcDbEntity
8
PERIMETER
100
AcDbLine
10
13.07097515202944
20
39.480671579397296
30
0
11
12.548720110817193
21
39.619595301078917
31
0
0
ARC
5
128
100
AcDbEntity
8
PERIMETER
100
AcDbCircle
10
12.291652294455009
20
38.653201935108953
30
0
40
0.99999999999999589
210
0
220
-0
230
1
100
AcDbArc
50
75.103852395312586
51
165.158363413443
0
LINE
5
129
100
AcDbEntity
8
PERIMETER
100
AcDbLine
10
11.325014792406449
20
38.909350211763879
30
0
11
8.9535454230740186
21
29.960036723138906
31
0
0
LINE
5
12A
100
AcDbEntity
8
PERIMETER
100
AcDbLine
10
8.9535454230740186
20
29.960036723138906
30
0
11
5.4488278346706664
21
30.888748229292062
31
0
0
ARC
5
12B
100
AcDbEntity
8
PERIMETER
100
AcDbCircle
10
154.91075347969766
20
-28.018040772374214
30
0
40
160.65141458451717
210
0
220
0
230
1
100
AcDbArc
50
152.63325003417265
51
158.48932476031871
0
ARC
5
12C
100
AcDbEntity
8
PERIMETER
100
AcDbCircle
10
11.350993425666633
20
46.290606977429938
30
0
40
0.99999999999996436
210
-0
220
0
230
1
100
AcDbArc
50
-27.366749965829392
51
61.771016687891816
0
LINE
5
12D
100
AcDbEntity
8
PERIMETER
100
AcDbLine
10
11.823989941130737
20
47.171671274946732
30
0
11
11.39557575432983
21
47.401664044036707
31
0
0
ARC
5
12E
100
AcDbEntity
8
PERIMETER
100
AcDbCircle
10
10.922579238865726
20
46.520599746519878
30
0
40
1.000000000000004
210
0
220
-0
230
1
100
AcDbArc
50
61.771016687892605
51
152.5945164069561
0
ARC
5
12F
100
AcDbEntity
8
PERIMETER
100
AcDbCircle
10
154.89093704539405
20
-28.122990562963118
30
0
40
163.16828797208939
210
0
220
0
230
1
100
AcDbArc
50
152.59451640695715
51
158.53196216402139
0
LINE
5
130
100
AcDbEntity
8
PERIMETER
100
AcDbLine
10
3.0429591025798963
20
31.593688802364206
30
0
11
-0.52603291717520761
21
32.464945873525146
31
0
0
ARC
5
131
100
AcDbEntity
8
PERIMETER
100
AcDbCircle
10
71.679552118238703
20
-4.1676919474325258
30
0
40
80.966639204229324
210
0
220
0
230
1
100
AcDbArc
50
141.63937489153062
51
153.09958741684289
0
ARC
5
132
100
AcDbEntity
8
PERIMETER
100
AcDbCircle
10
7.4078596459371404
20
46.701547177820721
30
0
40
0.99999999999996092
210
-0
220
0
230
1
100
AcDbArc
50
-38.360625108470259
51
48.362571244387567
0
LINE
5
133
100
AcDbEntity
8
PERIMETER
100
AcDbLine
10
8.0722742197488095
20
47.448911395660041
30
0
11
5.5653418726821435
21
49.677600363090725
31
0
0
ARC
5
134
100
AcDbEntity
8
PERIMETER
100
AcDbCircle
10
5.2331345857762912
20
49.303918254171052
30
0
40
0.49999999999999828
210
0
220
-0
230
1
100
AcDbArc
50
48.362571244387205
51
141.32129474568995
0
ARC
5
135
100
AcDbEntity
8
PERIMETER
100
AcDbCircle
10
68.0515299861095
20
-0.98478527828091522
30
0
40
80.968034048604977
210
0
220
0
230
1
100
AcDbArc
50
141.32129474569032
51
179.31084426321553
0
ARC
5
136
100
AcDbEntity
8
PERIMETER
100
AcDbCircle
10
-11.91071949790981
20
-0.022950025074610636
30
0
40
0.99999999999994327
210
0
220
0
230
1
100
AcDbArc
50
179.31084426321766
51
274.8397372658082
0
LINE
5
137
100
AcDbEntity
8
PERIMETER
100
AcDbLine
10
-11.826350560997465
20
-1.0193846102251714
30
0
11
-10.090284358364645
21
-0.87239045515635993
31
0
0
ARC
5
138
100
AcDbEntity
8
PERIMETER
100
AcDbCircle
10
-10.174653295276936
20
0.12404412999417858
30
0
40
0.99999999999991818
210
-0
220
0
230
1
100
AcDbArc
50
274.8397372658053
51
356.99864650770962
0
ARC
5
139
100
AcDbEntity
8
PERIMETER
100
AcDbCircle
10
71.679552118238703
20
-4.1676919474325258
30
0
40
80.966639204229352
210
0
220
0
230
1
100
AcDbArc
50
154.56792720905926
51
176.99864650770758
0
LINE
5
13A
100
AcDbEntity
8
PERIMETER
100
AcDbLine
10
-1.441018463309085
20
30.602680812386119
30
0
11
2.3071377004812987
21
29.687686454471205
31
0
0
ARC
5
13B
100
AcDbEntity
8
PERIMETER
100
AcDbCircle
10
154.89093704539405
20
-28.122990562963118
30
0
40
163.16828797208944
210
0
220
0
230
1
100
AcDbArc
50
159.24939359899724
51
178.30644324596321
0
LINE
5
13C
100
AcDbEntity
8
PERIMETER
100
AcDbLine
10
-8.2060773773446627
20
-23.300741488964462
30
0
11
-11.683057766071148
21
-23.304823694911249
31
0
0
ARC
5
13D
100
AcDbEntity
8
PERIMETER
100
AcDbCircle
10
-112.40968671643694
20
-30.398276978945262
30
0
40
100.9760905323505
210
0
220
-0
230
1
100
AcDbArc
50
4.0282799168832542
51
5.4844856825177084
0
ARC
5
13E
100
AcDbEntity
8
PERIMETER
100
AcDbCircle
10
57.850461215213258
20
-10.11411263152457
30
0
40
70.552210469840929
210
0
220
0
230
1
100
AcDbArc
50
175.95367024150869
51
188.66834352596948
0
ARC
5
13F
100
AcDbEntity
8
PERIMETER
100
AcDbCircle
10
-13.523392388953344
20
-5.0651677109095594
30
0
40
1.0000000000000004
210
-0
220
0
230
1
100
AcDbArc
50
-4.0463297584908089
51
78.289643275101781
0
LINE
5
140
100
AcDbEntity
8
PERIMETER
100
AcDbLine
10
-13.320428093624432
20
-4.0859815719034742
30
0
11
-15.626307859627602
21
-3.6080221286713154
31
0
0
ARC
5
141
100
AcDbEntity
8
PERIMETER
100
AcDbCircle
10
-15.829272154956513
20
-4.5872082676774006
30
0
40
1.0000000000000029
210
0
220
-0
230
1
100
AcDbArc
50
78.28964327510181
51
176.24601469862469
0
ARC
5
142
100
AcDbEntity
8
PERIMETER
100
AcDbCircle
10
53.575874423405466
20
-9.1411102609359318
30
0
40
70.554384440724633
210
0
220
0
230
1
100
AcDbArc
50
176.24601469862594
51
188.69919123383116
0
ARC
5
143
100
AcDbEntity
8
PERIMETER
100
AcDbCircle
10
-116.58100330095935
20
-29.261762135910246
30
0
40
100.85779527141929
210
-0
220
0
230
1
100
AcDbArc
50
-9.520278041174187
51
5.3760147369751987
0
ARC
5
144
100
AcDbEntity
8
PERIMETER
100
AcDbCircle
10
-16.126082573757579
20
-46.108701301407095
30
0
40
0.99999999999992151
210
0
220
0
230
1
100
AcDbArc
50
170.47972195882528
51
257.77264990183824
0
LINE
5
145
100
AcDbEntity
8
PERIMETER
100
AcDbLine
10
-16.337873914876191
20
-47.086016208602857
30
0
11
-13.970486191162639
21
-47.599046570936849
31
0
0
ARC
5
146
100
AcDbEntity
8
PERIMETER
100
AcDbCircle
10
-13.758694850044009
20
-46.621731663741045
30
0
40
0.99999999999998246
210
0
220
0
230
1
100
AcDbArc
50
257.77264990183778
51
350.6611259700523
0
ARC
5
147
100
AcDbEntity
8
PERIMETER
100
AcDbCircle
10
-112.40968671643694
20
-30.398276978945262
30
0
40
100.9760905323505
210
-0
220
0
230
1
100
AcDbArc
50
350.66112597005417
51
352.17751238177965
0
LINE
5
148
100
AcDbEntity
8
PERIMETER
100
AcDbLine
10
-12.373229385194957
20
-44.141568572011529
30
0
11
-7.4897643788759538
21
-44.135423379521313
31
0
0
ARC
5
149
100
AcDbEntity
8
PERIMETER
100
AcDbCircle
10
154.89093704539405
20
-28.122990562963118
30
0
40
163.16828797208942
210
0
220
0
230
1
100
AcDbArc
50
185.63175483406934
51
187.05429487821513
0
ARC
5
14A
100
AcDbEntity
8
PERIMETER
100
AcDbCircle
10
-6.0497726065187329
20
-48.038853600682756
30
0
40
1.0000000000000813
210
0
220
0
230
1
100
AcDbArc
50
187.05429487808931
51
277.38031105100202
0
LINE
5
14B
100
AcDbEntity
8
PERIMETER
100
AcDbLine
10
-5.9213177924285709
20
-49.030568963444267
30
0
11
-5.3764022859552973
21
-48.959987199051739
31
0
0
ARC
5
14C
100
AcDbEntity
8
PERIMETER
100
AcDbCircle
10
-5.5048571000455304
20
-47.968271836290256
30
0
40
1.0000000000000544
210
-0
220
0
230
1
100
AcDbArc
50
-82.619688948993698
51
7.0892409969120296
0
ARC
5
14D
100
AcDbEntity
8
PERIMETER
100
AcDbCircle
10
154.91075347969766
20
-28.018040772374214
30
0
40
160.65141458451717
210
0
220
0
230
1
100
AcDbArc
50
185.75674185205906
51
187.08924099692413
0
LINE
5
14E
100
AcDbEntity
8
PERIMETER
100
AcDbLine
10
-4.9304514375060471
20
-44.132202823902404
30
0
11
-2.3094576429039648
21
-44.128904651117068
31
0
0
LINE
5
14F
100
AcDbEntity
8
PERIMETER
100
AcDbLine
10
-2.3094576429039648
20
-44.128904651117068
30
0
11
-2.3038865920451634
21
-48.657264923968675
31
0
0
ARC
5
150
100
AcDbEntity
8
PERIMETER
100
AcDbCircle
10
-1.3038873487693436
20
-48.656034667030781
30
0
40
1.0000000000421729
210
0
220
0
230
1
100
AcDbArc
50
180.07048854803165
51
270.10599442098669
0
LINE
5
151
100
AcDbEntity
8
PERIMETER
100
AcDbLine
10
-1.3020373981894906
20
-49.65603295591292
30
0
11
-0.76162169798339008
21
-49.655033211822101
31
0
0
ARC
5
152
100
AcDbEntity
8
PERIMETER
100
AcDbCircle
10
-0.76347164856317207
20
-48.655034922982161
30
0
40
0.99999999999997624
210
-0
220
0
230
1
100
AcDbArc
50
-89.894005579012898
51
0.081064846771729121
0
LINE
5
153
100
AcDbEntity
8
PERIMETER
100
AcDbLine
10
0.23652735053884655
20
-48.653620074970419
30
0
11
0.23012103804374462
21
-44.125708928445405
31
0
0
LINE
5
154
100
AcDbEntity
8
PERIMETER
100
AcDbLine
10
0.23012103804374462
20
-44.125708928445405
30
0
11
2.6067134356139299
21
-44.122718302376924
31
0
0
LINE
5
155
100
AcDbEntity
8
PERIMETER
100
AcDbLine
10
2.6067134356139299
20
-44.122718302376924
30
0
11
2.6126252855158505
21
-48.820750489660114
31
0
0
ARC
5
156
100
AcDbEntity
8
PERIMETER
100
AcDbCircle
10
3.6126244937620022
20
-48.819492123393893
30
0
40
0.99999999998929512
210
0
220
0
230
1
100
AcDbArc
50
180.07209909515768
51
270.1059944209872
0
LINE
5
157
100
AcDbEntity
8
PERIMETER
100
AcDbLine
10
3.6144744443417665
20
-49.819490412223146
30
0
11
4.154890144547938
21
-49.818490668185206
31
0
0
ARC
5
158
100
AcDbEntity
8
PERIMETER
100
AcDbCircle
10
4.1530401939681738
20
-48.818492379345273
30
0
40
0.99999999999997624
210
-0
220
0
230
1
100
AcDbArc
50
-89.894005579013921
51
0.072099095137449637
0
LINE
5
159
100
AcDbEntity
8
PERIMETER
100
AcDbLine
10
5.1530394022250192
20
-48.817234013079499
30
0
11
5.1471279546268889
21
-44.119521527914003
31
0
0
LINE
5
15A
100
AcDbEntity
8
PERIMETER
100
AcDbLine
10
5.1471279546268889
20
-44.11952152791401
30
0
11
6.859225695060136
21
-44.117367080167909
31
0
0
LINE
5
15B
100
AcDbEntity
8
PERIMETER
100
AcDbLine
10
6.859225695060136
20
-44.117367080167909
30
0
11
6.7989884253201893
21
-47.948941279420765
31
0
0
ARC
5
15C
100
AcDbEntity
8
PERIMETER
100
AcDbCircle
10
7.7988648688232587
20
-47.964660621889905
30
0
40
1.0000000000000042
210
0
220
0
230
1
100
AcDbArc
50
179.09931092416397
51
271.15070852893251
0
LINE
5
15D
100
AcDbEntity
8
PERIMETER
100
AcDbLine
10
7.8189471712772196
20
-48.964458952118626
30
0
11
11.064702104023247
21
-48.899263571930376
31
0
0
ARC
5
15E
100
AcDbEntity
8
PERIMETER
100
AcDbCircle
10
11.044619801569286
20
-47.899465241701677
30
0
40
0.99999999999998845
210
-0
220
0
230
1
100
AcDbArc
50
271.15070852893251
51
359.09931092416355
0
LINE
5
15F
100
AcDbEntity
8
PERIMETER
100
AcDbLine
10
12.044496245072338
20
-47.915184584170802
30
0
11
12.117368833431037
21
-43.279902630103791
31
0
0
ARC
5
160
100
AcDbEntity
8
PERIMETER
100
AcDbCircle
10
11.867399722555252
20
-43.275972794486535
30
0
40
0.25000000000001849
210
-0
220
0
230
1
100
AcDbArc
50
-0.90068907583037428
51
128.40843742678629
0
ARC
5
161
100
AcDbEntity
8
PERIMETER
100
AcDbCircle
10
10.210306591362581
20
-41.185873951848251
30
0
40
2.4172965372158739
210
0
220
0
230
1
100
AcDbArc
50
155.52184534286113
51
308.40843742679107
0
ARC
5
162
100
AcDbEntity
8
PERIMETER
100
AcDbCircle
10
10.272397250038257
20
-41.214141710029146
30
0
40
2.4855190851553424
210
0
220
0
230
1
100
AcDbArc
50
92.494459439626667
51
155.52184534286121
0
ARC
5
163
100
AcDbEntity
8
PERIMETER
100
AcDbCircle
10
10.153339859691783
20
-38.481214707152375
30
0
40
0.250000000000002
210
-0
220
0
230
1
100
AcDbArc
50
-87.505540560368303
51
44.999999999996547
0
LINE
5
164
100
AcDbEntity
8
PERIMETER
100
AcDbLine
10
10.330116554988429
20
-38.304438011855744
30
0
11
8.7881729697902067
21
-36.762494426657511
31
0
0
ARC
5
165
100
AcDbEntity
8
PERIMETER
100
AcDbCircle
10
8.4346195791969514
20
-37.116047817250752
30
0
40
0.49999999999996136
210
0
220
-0
230
1
100
AcDbArc
50
44.999999999998849
51
89.099310924168364
0
LINE
5
166
100
AcDbEntity
8
PERIMETER
100
AcDbLine
10
8.4424792504314716
20
-36.61610959549926
30
0
11
7.4774554013741046
21
-36.600938180598206
31
0
0
ARC
5
167
100
AcDbEntity
8
PERIMETER
100
AcDbCircle
10
7.4695957301395488
20
-37.100876402349733
30
0
40
0.49999999999999312
210
0
220
-0
230
1
100
AcDbArc
50
89.09931092416457
51
179.09931092416358
0
LINE
5
168
100
AcDbEntity
8
PERIMETER
100
AcDbLine
10
6.9696575083880319
20
-37.093016731115171
30
0
11
6.8843229668541106
21
-42.520979005267975
31
0
0
LINE
5
169
100
AcDbEntity
8
PERIMETER
100
AcDbLine
10
6.8843229668541106
20
-42.520979005267975
30
0
11
5.1451191550579445
21
-42.523167562406869
31
0
0
LINE
5
16A
100
AcDbEntity
8
PERIMETER
100
AcDbLine
10
5.1451191550579445
20
-42.523167562406869
30
0
11
5.1225744757665659
21
-24.607349207757405
31
0
0
LINE
5
16B
100
AcDbEntity
8
PERIMETER
100
AcDbLine
10
5.1225744757665659
20
-24.607349207757405
30
0
11
7.0567659413302763
21
-24.605078338490046
31
0
0
LINE
5
16C
100
AcDbEntity
8
PERIMETER
100
AcDbLine
10
7.0567659413302763
20
-24.605078338490046
30
0
11
7.0667776337587362
21
-33.132442877636322
31
0
0
ARC
5
16D
100
AcDbEntity
8
PERIMETER
100
AcDbCircle
10
8.0667769445473958
20
-33.131268812015733
30
0
40
1.000000000003938
210
0
220
0
230
1
100
AcDbArc
50
180.06726902038292
51
270.10643563410889
0
LINE
5
16E
100
AcDbEntity
8
PERIMETER
100
AcDbLine
10
8.0686345957356309
20
-34.131267086584209
30
0
11
8.6090502882271203
21
-34.130263180994795
31
0
0
ARC
5
16F
100
AcDbEntity
8
PERIMETER
100
AcDbCircle
10
8.6071926370389029
20
-33.130264906430284
30
0
40
0.99999999999996581
210
-0
220
0
230
1
100
AcDbArc
50
-89.89356436589172
51
0.066849022036222214
0
LINE
5
170
100
AcDbEntity
8
PERIMETER
100
AcDbLine
10
9.6071919564030317
20
-33.129098171158773
30
0
11
9.5904672565390925
21
-18.794493855889101
31
0
0
ARC
5
171
100
AcDbEntity
8
PERIMETER
100
AcDbCircle
10
11.590465895267421
20
-18.792160385349248
30
0
40
1.9999999999999454
210
0
220
0
230
1
100
AcDbArc
50
117.24359266088459
51
180.06684902193808
0
LINE
5
172
100
AcDbEntity
8
PERIMETER
100
AcDbLine
10
10.674916906846352
20
-17.014023706181717
30
0
11
16.442051891883409
21
-14.044569972112946
31
0
0
ARC
5
173
100
AcDbEntity
8
PERIMETER
100
AcDbCircle
10
15.984277397672866
20
-13.155501632529161
30
0
40
0.99999999999999367
210
-0
220
0
230
1
100
AcDbArc
50
-62.756407339115448
51
27.243592660883749
0
LINE
5
174
100
AcDbEntity
8
PERIMETER
100
AcDbLine
10
16.87334573725666
20
-12.69772713831863
30
0
11
16.625956790109271
21
-12.217259826894903
31
0
0
ARC
5
175
100
AcDbEntity
8
PERIMETER
100
AcDbCircle
10
15.736888450525477
20
-12.675034321105493
30
0
40
1.0000000000000218
210
0
220
-0
230
1
100
AcDbArc
50
27.243592660886641
51
117.24359266088597
0
LINE
5
176
100
AcDbEntity
8
PERIMETER
100
AcDbLine
10
15.279113956314898
20
-11.785965981521693
30
0
11
8.4040466034329242
21
-15.325885625496941
31
0
0
ARC
5
177
100
AcDbEntity
8
PERIMETER
100
AcDbCircle
10
9.5484828389593268
20
-17.548556474456369
30
0
40
2.4999999999999729
210
0
220
0
230
1
100
AcDbArc
50
117.2435926608858
51
180.06726902035044
0
LINE
5
178
100
AcDbEntity
8
PERIMETER
100
AcDbLine
10
7.0484845619975367
20
-17.551491638506402
30
0
11
7.055213526572448
21
-23.282823719659586
31
0
0
LINE
5
179
100
AcDbEntity
8
PERIMETER
100
AcDbLine
10
7.055213526572448
20
-23.282823719659586
30
0
11
5.1209105940067268
21
-23.28509471979514
31
0
0
LINE
5
17A
100
AcDbEntity
8
PERIMETER
100
AcDbLine
10
5.1209105940067268
20
-23.28509471979514
30
0
11
5.0928639047909741
21
-0.99693603968038058
31
0
0
LINE
5
17B
100
AcDbEntity
8
PERIMETER
100
AcDbLine
10
5.0928639047909741
20
-0.99693603968038058
30
0
11
7.6465060639301541
21
-0.99372261998817546
31
0
0
LINE
5
17C
100
AcDbEntity
8
PERIMETER
100
AcDbLine
10
7.6465060639301541
20
-0.99372261998817546
30
0
11
7.5481666649627321
21
-10.396069784420545
31
0
0
ARC
5
17D
100
AcDbEntity
8
PERIMETER
100
AcDbCircle
10
8.5481119738208911
20
-10.406528238990864
30
0
40
0.99999999998971911
210
0
220
0
230
1
100
AcDbArc
50
179.40076376854302
51
270.07734323476228
0
LINE
5
17E
100
AcDbEntity
8
PERIMETER
100
AcDbLine
10
8.5494618675116563
20
-11.406527327873679
30
0
11
9.0898780000798851
21
-11.405797822891547
31
0
0
ARC
5
17F
100
AcDbEntity
8
PERIMETER
100
AcDbCircle
10
9.0885281063890488
20
-10.405798733998495
30
0
40
0.99999999999995426
210
-0
220
0
230
1
100
AcDbArc
50
270.07734323476558
51
359.40076307612674
0
LINE
5
180
100
AcDbEntity
8
PERIMETER
100
AcDbLine
10
10.088473415131052
20
-10.416257200653206
30
0
11
10.306921569900354
21
10.469807148636576
31
0
0
ARC
5
181
100
AcDbEntity
8
PERIMETER
100
AcDbCircle
10
9.3069762611182583
20
10.480265615291682
30
0
40
1.000000000040048
210
-0
220
0
230
1
100
AcDbArc
50
-0.5992369238719979
51
90.075073318889991
0
LINE
5
182
100
AcDbEntity
8
PERIMETER
100
AcDbLine
10
9.3056659848980949
20
11.480264756919469
30
0
11
8.7652498238529652
21
11.479556661846857
31
0
0
ENDSEC
0
SECTION
2
OBJECTS
0
DICTIONARY
5
C
100
AcDbDictionary
3
ACAD_GROUP
350
D
3
ACAD_MLINESTYLE
350
17
0
DICTIONARY
5
D
100
AcDbDictionary
0
DICTIONARY
5
1A
330
C
100
AcDbDictionary
0
DICTIONARY
5
17
100
AcDbDictionary
0
ENDSEC
0
EOF
