0
SECTION
2
HEADER
9
$INSUNITS
70
4
9
$ACADVER
1
AC1014
9
$HANDSEED
5
FFFF
0
ENDSEC
0
SECTION
2
TABLES
0
TABLE
2
VPORT
5
8
100
AcDbSymbolTable
0
ENDTAB
0
TABLE
2
LTYPE
5
5
100
AcDbSymbolTable
70
2
0
LTYPE
5
14
100
AcDbSymbolTableRecord
100
AcDbLinetypeTableRecord
2
BYBLOCK
70
0
0
LTYPE
5
15
100
AcDbSymbolTableRecord
100
AcDbLinetypeTableRecord
2
BYLAYER
70
0
0
ENDTAB
0
TABLE
2
LAYER
5
2
100
AcDbSymbolTable
70
3
0
LAYER
5
50
100
AcDbSymbolTableRecord
100
AcDbLayerTableRecord
2
0
70
0
6
CONTINUOUS
0
LAYER
5
51
100
AcDbSymbolTableRecord
100
AcDbLayerTableRecord
2
CUTOUTS
70
0
62
1
6
CONTINUOUS
0
LAYER
5
52
100
AcDbSymbolTableRecord
100
AcDbLayerTableRecord
2
PERIMETER
70
0
62
5
6
CONTINUOUS
0
ENDTAB
0
TABLE
2
STYLE
5
3
100
AcDbSymbolTable
70
1
0
STYLE
5
11
100
AcDbSymbolTableRecord
100
AcDbTextStyleTableRecord
2
STANDARD
70
0
0
ENDTAB
0
TABLE
2
VIEW
5
6
100
AcDbSymbolTable
0
ENDTAB
0
TABLE
2
UCS
5
7
100
AcDbSymbolTable
0
ENDTAB
0
TABLE
2
APPID
5
9
100
AcDbSymbolTable
70
1
0
APPID
5
12
100
AcDbSymbolTableRecord
100
AcDbRegAppTableRecord
2
ACAD
70
0
0
ENDTAB
0
TABLE
2
DIMSTYLE
5
A
100
AcDbSymbolTable
0
ENDTAB
0
TABLE
2
BLOCK_RECORD
5
1
100
AcDbSymbolTable
70
2
0
BLOCK_RECORD
5
1F
100
AcDbSymbolTableRecord
100
AcDbBlockTableRecord
2
*MODEL_SPACE
0
BLOCK_RECORD
5
1B
100
AcDbSymbolTableRecord
100
AcDbBlockTableRecord
2
*PAPER_SPACE
0
ENDTAB
0
ENDSEC
0
SECTION
2
BLOCKS
0
BLOCK
5
20
100
AcDbEntity
100
AcDbBlockBegin
2
*MODEL_SPACE
0
ENDBLK
5
21
100
AcDbEntity
100
AcDbBlockEnd
0
BLOCK
5
1C
100
AcDbEntity
100
AcDbBlockBegin
2
*PAPER_SPACE
0
ENDBLK
5
1D
100
AcDbEntity
100
AcDbBlockEnd
0
ENDSEC
0
SECTION
2
ENTITIES
0
LINE
5
100
100
AcDbEntity
8
CUTOUTS
100
AcDbLine
10
-5.4965084537700282
20
2.0332404135247861
30
0
11
-3.5324110588792834
21
2.0727508272276407
31
0
0
LINE
5
101
100
AcDbEntity
8
CUTOUTS
100
AcDbLine
10
-3.5324110588792834
20
2.0727508272276407
30
0
11
-3.7513806695719065
21
1.2315419047525111
31
0
0
ARC
5
102
100
AcDbEntity
8
CUTOUTS
100
AcDbCircle
10
-3.2675051983826098
20
1.1055874352750905
30
0
40
0.50000000000000244
210
0
220
0
230
1
100
AcDbArc
50
165.40949784300741
51
270.78635788708243
0
ARC
5
103
100
AcDbEntity
8
CUTOUTS
100
AcDbCircle
10
-1.0945025498712013
20
-157.2142631816173
30
0
40
157.83476257558092
210
0
220
0
230
1
100
AcDbArc
50
90.063036939971241
51
90.786357887187293
0
LINE
5
104
100
AcDbEntity
8
CUTOUTS
100
AcDbLine
10
-1.268152660423878
20
0.62040386884122167
30
0
11
-1.2787618827670499
21
-0.3201156285792961
31
0
0
LINE
5
105
100
AcDbEntity
8
CUTOUTS
100
AcDbLine
10
-1.2787618827670499
20
-0.3201156285792961
30
0
11
-1.9943681741925623
21
-0.31204346603856292
31
0
0
ARC
5
106
100
AcDbEntity
8
CUTOUTS
100
AcDbCircle
10
-2.0169270843815923
20
-2.3119162358844392
30
0
40
1.9999999999999836
210
0
220
-0
230
1
100
AcDbArc
50
89.353721123458655
51
179.3537211234584
0
LINE
5
107
100
AcDbEntity
8
CUTOUTS
100
AcDbLine
10
-4.0167998542274663
20
-2.2893573256953959
30
0
11
-5.0064787746665829
21
-2.2387271332537884
31
0
0
LINE
5
108
100
AcDbEntity
8
CUTOUTS
100
AcDbLine
10
-5.0064787746665829
20
-2.2387271332537884
30
0
11
-5.0043022978624752
21
-1.6902067193178039
31
0
0
ARC
5
109
100
AcDbEntity
8
CUTOUTS
100
AcDbCircle
10
-6.0042944258210529
20
-1.6862388457154998
30
0
40
1.0000000000000242
210
-0
220
0
230
1
100
AcDbArc
50
-0.22734300760370238
51
87.49680835027128
0
LINE
5
10A
100
AcDbEntity
8
CUTOUTS
100
AcDbLine
10
-5.9606193867457069
20
-0.68719305549274079
30
0
11
-6.2591235445983529
21
-0.67414342264711768
31
0
0
LINE
5
10B
100
AcDbEntity
8
CUTOUTS
100
AcDbLine
10
-6.2591235445983529
20
-0.67414342264711768
30
0
11
-6.2591235445983529
21
0.73121610327053554
31
0
0
ARC
5
10C
100
AcDbEntity
8
CUTOUTS
100
AcDbCircle
10
-6.4900912317830795
20
1.7041775246416302
30
0
40
0.99999999999996148
210
-0
220
0
230
1
100
AcDbArc
50
-76.645949778781358
51
1.152424861140011
0
LINE
5
10D
100
AcDbEntity
8
CUTOUTS
100
AcDbLine
10
-5.4902935035813538
20
1.7242897766935039
30
0
11
-5.4965084537700282
21
2.0332404135247861
31
0
0
LINE
5
10E
100
AcDbEntity
8
CUTOUTS
100
AcDbLine
10
10.509068562731564
20
0.10807182231328927
30
0
11
10.495021239214717
21
-0.68171102448608689
31
0
0
LINE
5
10F
100
AcDbEntity
8
CUTOUTS
100
AcDbLine
10
10.495021239214717
20
-0.68171102448608689
30
0
11
10.212465428839907
21
-0.68171102448608467
31
0
0
ARC
5
110
100
AcDbEntity
8
CUTOUTS
100
AcDbCircle
10
10.212465428839913
20
-1.1817110244860829
30
0
40
0.49999999999999822
210
0
220
0
230
1
100
AcDbArc
50
90.000000000000611
51
180
0
LINE
5
111
100
AcDbEntity
8
CUTOUTS
100
AcDbLine
10
9.7124654288399128
20
-1.1817110244860851
30
0
11
9.7124654288399181
21
-3.4976963045625142
31
0
0
ARC
5
112
100
AcDbEntity
8
CUTOUTS
100
AcDbCircle
10
8.1928725585971041
20
-3.6260026126974498
30
0
40
1.5250000000000032
210
0
220
0
230
1
100
AcDbArc
50
-184.82630217246384
51
4.8263021724639508
0
LINE
5
113
100
AcDbEntity
8
CUTOUTS
100
AcDbLine
10
6.67327968835429
20
-3.4976963045625187
30
0
11
6.67327968835429
21
-1.1817110244860851
31
0
0
ARC
5
114
100
AcDbEntity
8
CUTOUTS
100
AcDbCircle
10
6.1732796883542917
20
-1.1817110244860851
30
0
40
0.49999999999999822
210
-0
220
0
230
1
100
AcDbArc
50
0
51
90
0
LINE
5
115
100
AcDbEntity
8
CUTOUTS
100
AcDbLine
10
6.1732796883542917
20
-0.68171102448608689
30
0
11
4.25390066693355
21
-0.68171102448608467
31
0
0
ARC
5
116
100
AcDbEntity
8
CUTOUTS
100
AcDbCircle
10
4.25390066693355
20
-1.1817110244860829
30
0
40
0.49999999999999822
210
0
220
-0
230
1
100
AcDbArc
50
90
51
180
0
LINE
5
117
100
AcDbEntity
8
CUTOUTS
100
AcDbLine
10
3.7539006669335517
20
-1.1817110244860829
30
0
11
3.7539006669335429
21
-2.3647817603697741
31
0
0
LINE
5
118
100
AcDbEntity
8
CUTOUTS
100
AcDbLine
10
3.7539006669335429
20
-2.3647817603697741
30
0
11
2.6696611415546023
21
-2.3647817603697696
31
0
0
ARC
5
119
100
AcDbEntity
8
CUTOUTS
100
AcDbCircle
10
0.66978837170871053
20
-2.3422228501807485
30
0
40
1.9999999999999987
210
-0
220
0
230
1
100
AcDbArc
50
-0.64627887654046434
51
89.353721123458897
0
LINE
5
11A
100
AcDbEntity
8
CUTOUTS
100
AcDbLine
10
0.69234728189773165
20
-0.3423500803348567
30
0
11
0.057625045814759801
21
-0.3351903039057702
31
0
0
LINE
5
11B
100
AcDbEntity
8
CUTOUTS
100
AcDbLine
10
0.057625045814759801
20
-0.3351903039057702
30
0
11
0.068357068786282227
21
0.61621560748499782
31
0
0
ARC
5
11C
100
AcDbEntity
8
CUTOUTS
100
AcDbCircle
10
-1.0945025498712013
20
-157.2142631816173
30
0
40
157.83476257558092
210
0
220
-0
230
1
100
AcDbArc
50
88.780680915586203
51
89.577865167295116
0
ARC
5
11D
100
AcDbEntity
8
CUTOUTS
100
AcDbCircle
10
2.2747862054012113
20
1.0846469003828219
30
0
40
0.49999999999998773
210
0
220
0
230
1
100
AcDbArc
50
-91.219319084407957
51
26.725612801052776
0
LINE
5
11E
100
AcDbEntity
8
CUTOUTS
100
AcDbLine
10
2.7213714259157573
20
1.3095060581193674
30
0
11
2.4502699392443272
21
1.847931614924232
31
0
0
LINE
5
11F
100
AcDbEntity
8
CUTOUTS
100
AcDbLine
10
2.4502699392443272
20
1.847931614924232
30
0
11
4.0416531180285897
21
1.847931614924232
31
0
0
LINE
5
120
100
AcDbEntity
8
CUTOUTS
100
AcDbLine
10
4.0416531180285897
20
1.847931614924232
30
0
11
4.0391028917747285
21
0.62152676107633642
31
0
0
ARC
5
121
100
AcDbEntity
8
CUTOUTS
100
AcDbCircle
10
4.5391018107682246
20
0.62048704700961466
30
0
40
0.50000000000000522
210
0
220
0
230
1
100
AcDbArc
50
179.88085745829198
51
269.88085745801811
0
LINE
5
122
100
AcDbEntity
8
CUTOUTS
100
AcDbLine
10
4.538062096699127
20
0.12048812801612296
30
0
11
4.7852998850357409
21
0.11997401369071792
31
0
0
ARC
5
123
100
AcDbEntity
8
CUTOUTS
100
AcDbCircle
10
4.7863395991048208
20
0.61997293268420739
30
0
40
0.50000000000000355
210
0
220
0
230
1
100
AcDbArc
50
269.88085745802016
51
359.5595116737644
0
LINE
5
124
100
AcDbEntity
8
CUTOUTS
100
AcDbLine
10
5.2863248229507409
20
0.61612898474579403
30
0
11
5.3030128639862983
21
2.786755139521222
31
0
0
ARC
5
125
100
AcDbEntity
8
CUTOUTS
100
AcDbCircle
10
6.8279677967163233
20
2.7750310983096949
30
0
40
1.5249999999999959
210
-0
220
0
230
1
100
AcDbArc
50
-0.44792796931815376
51
179.55951167378839
0
LINE
5
126
100
AcDbEntity
8
CUTOUTS
100
AcDbLine
10
8.3529211942679602
20
2.7631090474916054
30
0
11
8.3527815082800174
21
0.6115495022432671
31
0
0
ARC
5
127
100
AcDbEntity
8
CUTOUTS
100
AcDbCircle
10
8.8527815072262719
20
0.61151704067650137
30
0
40
0.50000000000000777
210
0
220
0
230
1
100
AcDbArc
50
179.99628017847297
51
269.88085745802016
0
LINE
5
128
100
AcDbEntity
8
CUTOUTS
100
AcDbLine
10
8.851741793157192
20
0.11151812168300745
30
0
11
10.509068562731564
21
0.10807182231328927
31
0
0
LINE
5
129
100
AcDbEntity
8
PERIMETER
100
AcDbLine
10
-12.458881204012355
20
-0.60598618841038121
30
0
11
-12.539200654925704
21
-3.2580633658936575
31
0
0
ARC
5
12A
100
AcDbEntity
8
PERIMETER
100
AcDbCircle
10
-10.540117235220148
20
-3.318606582344521
30
0
40
1.9999999999999694
210
0
220
0
230
1
100
AcDbArc
50
178.26529960281178
51
267.67474459159911
0
LINE
5
12B
100
AcDbEntity
8
PERIMETER
100
AcDbLine
10
-10.62126168231516
20
-5.316959799047094
30
0
11
-5.5378196789862955
21
-5.5233763060249785
31
0
0
ARC
5
12C
100
AcDbEntity
8
PERIMETER
100
AcDbCircle
10
-5.5175335672125581
20
-5.0237880018493142
30
0
40
0.50000000000001277
210
0
220
0
230
1
100
AcDbArc
50
267.67474459160098
51
359.77265699239149
0
LINE
5
12D
100
AcDbEntity
8
PERIMETER
100
AcDbLine
10
-5.0175375032332603
20
-5.0257719386505029
30
0
11
-5.0128989420946191
21
-3.8567516803197943
31
0
0
LINE
5
12E
100
AcDbEntity
8
PERIMETER
100
AcDbLine
10
-5.0128989420946191
20
-3.8567516803197943
30
0
11
-4.0346048136017121
21
-3.8677870070245168
31
0
0
LINE
5
12F
100
AcDbEntity
8
PERIMETER
100
AcDbLine
10
-4.0346048136017121
20
-3.8677870070245168
30
0
11
-4.0507810256806831
21
-5.3018264080820554
31
0
0
ARC
5
130
100
AcDbEntity
8
PERIMETER
100
AcDbCircle
10
-3.8007969294499411
20
-5.3046462718556775
30
0
40
0.25000000000000533
210
0
220
0
230
1
100
AcDbArc
50
179.35372112346064
51
269.43965387353092
0
ARC
5
131
100
AcDbEntity
8
PERIMETER
100
AcDbCircle
10
-5.3468230596656241
20
-163.38184880840882
30
0
40
157.83476257558084
210
0
220
-0
230
1
100
AcDbArc
50
89.28073864110273
51
89.439653873535974
0
ARC
5
132
100
AcDbEntity
8
PERIMETER
100
AcDbCircle
10
-3.3623614518189804
20
-5.3095423448643597
30
0
40
0.24999999999990852
210
0
220
0
230
1
100
AcDbArc
50
-90.719261358915134
51
1.1357791479123052
0
LINE
5
133
100
AcDbEntity
8
PERIMETER
100
AcDbLine
10
-3.1124105695514626
20
-5.3045868979969768
30
0
11
-3.160293939775114
21
-2.8893676546675451
31
0
0
ARC
5
134
100
AcDbEntity
8
PERIMETER
100
AcDbCircle
10
-1.6355935579428582
20
-2.8591394287766336
30
0
40
1.5249999999999875
210
-0
220
0
230
1
100
AcDbArc
50
-1.2894286802659398
51
181.13577914790716
0
LINE
5
135
100
AcDbEntity
8
PERIMETER
100
AcDbLine
10
-0.11097972116112409
20
-2.8934563151977688
30
0
11
-0.16149973045603616
21
-5.1379345659371101
31
0
0
ARC
5
136
100
AcDbEntity
8
PERIMETER
100
AcDbCircle
10
0.33837365865278635
20
-5.1491860041079374
30
0
40
0.50000000000005218
210
0
220
0
230
1
100
AcDbArc
50
178.71057131973831
51
267.94228502878246
0
ARC
5
137
100
AcDbEntity
8
PERIMETER
100
AcDbCircle
10
-5.3468230596656241
20
-163.38184880840882
30
0
40
157.83476257558084
210
0
220
-0
230
1
100
AcDbArc
50
87.290722138314123
51
87.942285028788845
0
ARC
5
138
100
AcDbEntity
8
PERIMETER
100
AcDbCircle
10
2.1373760956138455
20
-5.2240674542507737
30
0
40
0.49999999999998845
210
0
220
0
230
1
100
AcDbArc
50
267.29072213832063
51
359.35372112345834
0
LINE
5
139
100
AcDbEntity
8
PERIMETER
100
AcDbLine
10
2.6373442880753117
20
-5.2297071817980356
30
0
11
2.6535027148149659
21
-3.7972444710839026
31
0
0
LINE
5
13A
100
AcDbEntity
8
PERIMETER
100
AcDbLine
10
2.6535027148149659
20
-3.7972444710839026
30
0
11
3.7539006669335429
21
-3.8213302195452048
31
0
0
LINE
5
13B
100
AcDbEntity
8
PERIMETER
100
AcDbLine
10
3.7539006669335429
20
-3.8213302195452048
30
0
11
3.753900666933534
21
-4.7921307471920027
31
0
0
ARC
5
13C
100
AcDbEntity
8
PERIMETER
100
AcDbCircle
10
4.7539006669335215
20
-4.7921307471920072
30
0
40
0.99999999999998757
210
0
220
0
230
1
100
AcDbArc
50
180
51
269.99999999999949
0
LINE
5
13D
100
AcDbEntity
8
PERIMETER
100
AcDbLine
10
4.7539006669335127
20
-5.7921307471919947
30
0
11
11.649740098192435
21
-5.7921307471919992
31
0
0
ARC
5
13E
100
AcDbEntity
8
PERIMETER
100
AcDbCircle
10
11.649740098192449
20
-4.7921307471919938
30
0
40
1.0000000000000053
210
0
220
0
230
1
100
AcDbArc
50
-90.00000000000081
51
0
0
LINE
5
13F
100
AcDbEntity
8
PERIMETER
100
AcDbLine
10
12.649740098192455
20
-4.7921307471919938
30
0
11
12.649740098192481
21
-1.1817110244860896
31
0
0
ARC
5
140
100
AcDbEntity
8
PERIMETER
100
AcDbCircle
10
12.149740098192483
20
-1.1817110244860851
30
0
40
0.49999999999999822
210
-0
220
0
230
1
100
AcDbArc
50
0
51
90
0
LINE
5
141
100
AcDbEntity
8
PERIMETER
100
AcDbLine
10
12.149740098192483
20
-0.68171102448608689
30
0
11
11.918009759928392
21
-0.68171102448608689
31
0
0
LINE
5
142
100
AcDbEntity
8
PERIMETER
100
AcDbLine
10
11.918009759928392
20
-0.68171102448608689
30
0
11
11.918009759928392
21
0.10514202400855988
31
0
0
LINE
5
143
100
AcDbEntity
8
PERIMETER
100
AcDbLine
10
11.918009759928392
20
0.10514202400855988
30
0
11
12.166395332305932
21
0.1046255229435622
31
0
0
ARC
5
144
100
AcDbEntity
8
PERIMETER
100
AcDbCircle
10
12.167435046375022
20
0.60462444193704723
30
0
40
0.49999999999999922
210
0
220
0
230
1
100
AcDbArc
50
-90.119142541981134
51
0
0
LINE
5
145
100
AcDbEntity
8
PERIMETER
100
AcDbLine
10
12.667435046375019
20
0.60462444193704945
30
0
11
12.667435046375019
21
3.0701776124939073
31
0
0
ARC
5
146
100
AcDbEntity
8
PERIMETER
100
AcDbCircle
10
10.667435046398989
20
3.0701776124939073
30
0
40
1.9999999999760298
210
-0
220
0
230
1
100
AcDbArc
50
0
51
89.999999999780869
0
LINE
5
147
100
AcDbEntity
8
PERIMETER
100
AcDbLine
10
10.667435046406638
20
5.0701776124699371
30
0
11
6.0441990202212992
21
5.0701776125019133
31
0
0
ARC
5
148
100
AcDbEntity
8
PERIMETER
100
AcDbCircle
10
6.0441990202212992
20
3.0701776125052938
30
0
40
1.99999999999662
210
0
220
-0
230
1
100
AcDbArc
50
90
51
179.88085745829198
0
LINE
5
149
100
AcDbEntity
8
PERIMETER
100
AcDbLine
10
4.0442033442507164
20
3.0743364687721941
30
0
11
1.8304476601652109
21
3.0789398245461586
31
0
0
LINE
5
14A
100
AcDbEntity
8
PERIMETER
100
AcDbLine
10
1.8304476601652109
20
3.0789398245461586
30
0
11
1.394088531319273
21
3.9455780337291091
31
0
0
ARC
5
14B
100
AcDbEntity
8
PERIMETER
100
AcDbCircle
10
-0.99264146614622462
20
2.743809574508731
30
0
40
2.672213971668171
210
0
220
-0
230
1
100
AcDbArc
50
26.726210387364731
51
37.163653322164357
0
ARC
5
14C
100
AcDbEntity
8
PERIMETER
100
AcDbCircle
10
0.9774987203714236
20
4.2372584578587951
30
0
40
0.19999999999999266
210
0
220
-0
230
1
100
AcDbArc
50
37.163653322161394
51
117.05387594068148
0
LINE
5
14D
100
AcDbEntity
8
PERIMETER
100
AcDbLine
10
0.88653309566567806
20
4.4153743053342254
30
0
11
0.49781679887556329
21
4.216852830283047
31
0
0
ARC
5
14E
100
AcDbEntity
8
PERIMETER
100
AcDbCircle
10
0.58878242358129995
20
4.0387369828076185
30
0
40
0.19999999999998763
210
0
220
0
230
1
100
AcDbArc
50
117.05387594067943
51
202.52509738723546
0
ARC
5
14F
100
AcDbEntity
8
PERIMETER
100
AcDbCircle
10
-1.0046204594989749
20
3.3779100370862536
30
0
40
1.5249999999999899
210
0
220
0
230
1
100
AcDbArc
50
-184.19949898107419
51
22.525097387232641
0
ARC
5
150
100
AcDbEntity
8
PERIMETER
100
AcDbCircle
10
-2.7249890373806984
20
3.5042308834938729
30
0
40
0.19999999999998727
210
-0
220
0
230
1
100
AcDbArc
50
-4.1994989810763839
51
75.409497843010584
0
LINE
5
151
100
AcDbEntity
8
PERIMETER
100
AcDbLine
10
-2.6746072495897444
20
3.6977810719695814
30
0
11
-2.8882680769392621
21
3.7533977290627152
31
0
0
ARC
5
152
100
AcDbEntity
8
PERIMETER
100
AcDbCircle
10
-2.9386498647302339
20
3.5598475405870089
30
0
40
0.19999999999998985
210
0
220
-0
230
1
100
AcDbArc
50
75.409497843005525
51
165.40949784300807
0
LINE
5
153
100
AcDbEntity
8
PERIMETER
100
AcDbLine
10
-3.1322000532059402
20
3.6102293283779718
30
0
11
-3.2675051983826098
21
3.0904316495156658
31
0
0
LINE
5
154
100
AcDbEntity
8
PERIMETER
100
AcDbLine
10
-3.2675051983826098
20
3.0904316495156658
30
0
11
-5.5365893438578517
21
3.1400978542375335
31
0
0
ARC
5
155
100
AcDbEntity
8
PERIMETER
100
AcDbCircle
10
-8.5530104620154201
20
2.7506762331299739
30
0
40
3.0414545140529379
210
0
220
-0
230
1
100
AcDbArc
50
7.3562280070172115
51
90.00000000019493
0
LINE
5
156
100
AcDbEntity
8
PERIMETER
100
AcDbLine
10
-8.5530104620257674
20
5.7921307471829113
30
0
11
-9.8259684048230866
21
5.7921307471784385
31
0
0
ARC
5
157
100
AcDbEntity
8
PERIMETER
100
AcDbCircle
10
-9.82596840481337
20
2.9407631763185571
30
0
40
2.8513675708598818
210
0
220
0
230
1
100
AcDbArc
50
90.000000000195257
51
175.22388521966639
0
LINE
5
158
100
AcDbEntity
8
PERIMETER
100
AcDbLine
10
-12.667435046375006
20
3.1781749473911058
30
0
11
-12.667104879657121
21
0.84621178403763819
31
0
0
ARC
5
159
100
AcDbEntity
8
PERIMETER
100
AcDbCircle
10
-12.417104882169578
20
0.84624717982773712
30
0
40
0.24999999999326614
210
0
220
0
230
1
100
AcDbArc
50
180.00811211753572
51
270.0139523129231
0
LINE
5
15A
100
AcDbEntity
8
PERIMETER
100
AcDbLine
10
-12.417044003720488
20
0.59624718724684334
30
0
11
-11.968341383314032
21
0.59635645252850145
31
0
0
ARC
5
15B
100
AcDbEntity
8
PERIMETER
100
AcDbCircle
10
-11.968402261763131
20
0.8463564451161365
30
0
40
0.25000000000000627
210
-0
220
0
230
1
100
AcDbArc
50
-89.986047687075242
51
2.7621277792485248
0
LINE
5
15C
100
AcDbEntity
8
PERIMETER
100
AcDbLine
10
-11.718692709614693
20
0.85840383345667126
30
0
11
-11.82198366087774
21
2.9993439651938991
31
0
0
ARC
5
15D
100
AcDbEntity
8
PERIMETER
100
AcDbCircle
10
-10.298755392772279
20
3.0728330340711607
30
0
40
1.5250000000000026
210
-0
220
0
230
1
100
AcDbArc
50
-10.749421935177748
51
182.76212777924837
0
LINE
5
15E
100
AcDbEntity
8
PERIMETER
100
AcDbLine
10
-8.8005156664713624
20
2.7883989950853816
30
0
11
-8.7777793688622463
21
1.6581576556910349
31
0
0
ARC
5
15F
100
AcDbEntity
8
PERIMETER
100
AcDbCircle
10
-7.777981640660494
20
1.6782699077428731
30
0
40
0.99999999999999079
210
0
220
0
230
1
100
AcDbArc
50
181.15242486113749
51
261.30560451687012
0
LINE
5
160
100
AcDbEntity
8
PERIMETER
100
AcDbLine
10
-7.9291457684084587
20
0.68976122974243381
30
0
11
-7.9291457684084587
21
-0.60113547186513738
31
0
0
LINE
5
161
100
AcDbEntity
8
PERIMETER
100
AcDbLine
10
-7.9291457684084587
20
-0.60113547186513738
30
0
11
-8.2322389584490718
21
-0.58788522142813937
31
0
0
ARC
5
162
100
AcDbEntity
8
PERIMETER
100
AcDbCircle
10
-8.2540764779867182
20
-1.0874081165394944
30
0
40
0.49999999999998701
210
0
220
-0
230
1
100
AcDbArc
50
87.496808350274208
51
177.49680835027513
0
LINE
5
163
100
AcDbEntity
8
PERIMETER
100
AcDbLine
10
-8.753599373098071
20
-1.065570597001857
30
0
11
-8.8400961302980363
21
-3.0441428656968972
31
0
0
ARC
5
164
100
AcDbEntity
8
PERIMETER
100
AcDbCircle
10
-10.363878285561379
20
-2.9832089399984785
30
0
40
1.5250000000000083
210
0
220
0
230
1
100
AcDbArc
50
166.54960036484147
51
357.71004168803745
0
LINE
5
165
100
AcDbEntity
8
PERIMETER
100
AcDbLine
10
-11.847050047629768
20
-2.6284885935239988
30
0
11
-11.759851381057453
21
-0.63386048107044957
31
0
0
ARC
5
166
100
AcDbEntity
8
PERIMETER
100
AcDbCircle
10
-11.959660539102011
20
-0.62512547325538792
30
0
40
0.20000000000001
210
-0
220
0
230
1
100
AcDbArc
50
-2.5031916497264777
51
87.496808350270314
0
LINE
5
167
100
AcDbEntity
8
PERIMETER
100
AcDbLine
10
-11.950925531286938
20
-0.4253163152108308
30
0
11
-12.250237854226738
21
-0.41223135201092331
31
0
0
ARC
5
168
100
AcDbEntity
8
PERIMETER
100
AcDbCircle
10
-12.258972862041828
20
-0.61204051005543159
30
0
40
0.19999999999996243
210
0
220
-0
230
1
100
AcDbArc
50
87.496808350264615
51
178.26529960282187
0
ENDSEC
0
SECTION
2
OBJECTS
0
DICTIONARY
5
C
100
AcDbDictionary
3
ACAD_GROUP
350
D
3
ACAD_MLINESTYLE
350
17
0
DICTIONARY
5
D
100
AcDbDictionary
0
DICTIONARY
5
1A
330
C
100
AcDbDictionary
0
DICTIONARY
5
17
100
AcDbDictionary
0
ENDSEC
0
EOF
