0
SECTION
2
HEADER
9
$INSUNITS
70
4
9
$ACADVER
1
AC1014
9
$HANDSEED
5
FFFF
0
ENDSEC
0
SECTION
2
TABLES
0
TABLE
2
VPORT
5
8
100
AcDbSymbolTable
0
ENDTAB
0
TABLE
2
LTYPE
5
5
100
AcDbSymbolTable
70
2
0
LTYPE
5
14
100
AcDbSymbolTableRecord
100
AcDbLinetypeTableRecord
2
BYBLOCK
70
0
0
LTYPE
5
15
100
AcDbSymbolTableRecord
100
AcDbLinetypeTableRecord
2
BYLAYER
70
0
0
ENDTAB
0
TABLE
2
LAYER
5
2
100
AcDbSymbolTable
70
3
0
LAYER
5
50
100
AcDbSymbolTableRecord
100
AcDbLayerTableRecord
2
0
70
0
6
CONTINUOUS
0
LAYER
5
51
100
AcDbSymbolTableRecord
100
AcDbLayerTableRecord
2
CUTOUTS
70
0
62
1
6
CONTINUOUS
0
LAYER
5
52
100
AcDbSymbolTableRecord
100
AcDbLayerTableRecord
2
PERIMETER
70
0
62
5
6
CONTINUOUS
0
ENDTAB
0
TABLE
2
STYLE
5
3
100
AcDbSymbolTable
70
1
0
STYLE
5
11
100
AcDbSymbolTableRecord
100
AcDbTextStyleTableRecord
2
STANDARD
70
0
0
ENDTAB
0
TABLE
2
VIEW
5
6
100
AcDbSymbolTable
0
ENDTAB
0
TABLE
2
UCS
5
7
100
AcDbSymbolTable
0
ENDTAB
0
TABLE
2
APPID
5
9
100
AcDbSymbolTable
70
1
0
APPID
5
12
100
AcDbSymbolTableRecord
100
AcDbRegAppTableRecord
2
ACAD
70
0
0
ENDTAB
0
TABLE
2
DIMSTYLE
5
A
100
AcDbSymbolTable
0
ENDTAB
0
TABLE
2
BLOCK_RECORD
5
1
100
AcDbSymbolTable
70
2
0
BLOCK_RECORD
5
1F
100
AcDbSymbolTableRecord
100
AcDbBlockTableRecord
2
*MODEL_SPACE
0
BLOCK_RECORD
5
1B
100
AcDbSymbolTableRecord
100
AcDbBlockTableRecord
2
*PAPER_SPACE
0
ENDTAB
0
ENDSEC
0
SECTION
2
BLOCKS
0
BLOCK
5
20
100
AcDbEntity
100
AcDbBlockBegin
2
*MODEL_SPACE
0
ENDBLK
5
21
100
AcDbEntity
100
AcDbBlockEnd
0
BLOCK
5
1C
100
AcDbEntity
100
AcDbBlockBegin
2
*PAPER_SPACE
0
ENDBLK
5
1D
100
AcDbEntity
100
AcDbBlockEnd
0
ENDSEC
0
SECTION
2
ENTITIES
0
CIRCLE
5
100
100
AcDbEntity
8
CUTOUTS
100
AcDbCircle
10
-30.880397003725975
20
52.587167900838509
30
0
40
1.5249999999999986
210
0
220
0
230
1
0
CIRCLE
5
101
100
AcDbEntity
8
CUTOUTS
100
AcDbCircle
10
-70.538181564024441
20
-18.709043165968371
30
0
40
1.5249999999999986
210
0
220
0
230
1
0
CIRCLE
5
102
100
AcDbEntity
8
CUTOUTS
100
AcDbCircle
10
-83.672983671143854
20
-32.562884962651928
30
0
40
1.5249999999999986
210
0
220
0
230
1
0
CIRCLE
5
103
100
AcDbEntity
8
CUTOUTS
100
AcDbCircle
10
-50.59312801140932
20
-65.642740622385404
30
0
40
1.5249999999999986
210
0
220
0
230
1
0
CIRCLE
5
104
100
AcDbEntity
8
CUTOUTS
100
AcDbCircle
10
85.964904312715561
20
-28.584257097243952
30
0
40
1.5249999999999986
210
0
220
0
230
1
0
CIRCLE
5
105
100
AcDbEntity
8
CUTOUTS
100
AcDbCircle
10
85.951257382717159
20
36.316119007165923
30
0
40
1.5249999999999986
210
0
220
0
230
1
0
CIRCLE
5
106
100
AcDbEntity
8
CUTOUTS
100
AcDbCircle
10
-25.555796255913819
20
53.390769402887827
30
0
40
1.5249999999999986
210
0
220
0
230
1
0
CIRCLE
5
107
100
AcDbEntity
8
CUTOUTS
100
AcDbCircle
10
81.294565949416935
20
39.386813338655841
30
0
40
1.5249999999999986
210
0
220
0
230
1
0
CIRCLE
5
108
100
AcDbEntity
8
CUTOUTS
100
AcDbCircle
10
80.930711081975645
20
-28.614672695802792
30
0
40
1.5249999999999986
210
0
220
0
230
1
0
CIRCLE
5
109
100
AcDbEntity
8
CUTOUTS
100
AcDbCircle
10
28.313726326978902
20
-37.685564404022315
30
0
40
1.5249999999999986
210
0
220
0
230
1
0
CIRCLE
5
10A
100
AcDbEntity
8
CUTOUTS
100
AcDbCircle
10
-47.158793247402301
20
-62.2369193370887
30
0
40
1.5249999999999986
210
0
220
0
230
1
0
CIRCLE
5
10B
100
AcDbEntity
8
CUTOUTS
100
AcDbCircle
10
-80.256212592144877
20
-28.919623817674619
30
0
40
1.5249999999999986
210
0
220
0
230
1
0
CIRCLE
5
10C
100
AcDbEntity
8
CUTOUTS
100
AcDbCircle
10
14.182411587679677
20
-36.367300361544977
30
0
40
1.5249999999999986
210
0
220
0
230
1
0
LINE
5
10D
100
AcDbEntity
8
PERIMETER
100
AcDbLine
10
-50.16179301591702
20
-61.691155910763783
30
0
11
-44.378550796518645
21
-55.907913691370865
31
0
0
ARC
5
10E
100
AcDbEntity
8
PERIMETER
100
AcDbCircle
10
6.5209474675666312
20
-102.25187221653496
30
0
40
68.836918984784248
210
0
220
-0
230
1
100
AcDbArc
50
89.999999999999076
51
137.68216000008172
0
LINE
5
10F
100
AcDbEntity
8
PERIMETER
100
AcDbLine
10
6.5209474675677193
20
-33.414953231750722
30
0
11
36.30476463125521
21
-33.414953231750829
31
0
0
ARC
5
110
100
AcDbEntity
8
PERIMETER
100
AcDbCircle
10
36.304764631255203
20
-31.914953231752211
30
0
40
1.4999999999986269
210
0
220
0
230
1
100
AcDbArc
50
270
51
360
0
LINE
5
111
100
AcDbEntity
8
PERIMETER
100
AcDbLine
10
37.804764631253832
20
-31.914953231752214
30
0
11
37.804764631253832
21
-26.38912095916357
31
0
0
ARC
5
112
100
AcDbEntity
8
PERIMETER
100
AcDbCircle
10
38.304764631253825
20
-26.389120959163563
30
0
40
0.49999999999998934
210
0
220
-0
230
1
100
AcDbArc
50
89.99999999999919
51
180
0
LINE
5
113
100
AcDbEntity
8
PERIMETER
100
AcDbLine
10
38.304764631253832
20
-25.88912095916357
30
0
11
73.863559848484144
21
-25.88912095916357
31
0
0
LINE
5
114
100
AcDbEntity
8
PERIMETER
100
AcDbLine
10
73.863559848484144
20
-25.88912095916357
30
0
11
83.187863886211829
21
-25.946253329035102
31
0
0
ARC
5
115
100
AcDbEntity
8
PERIMETER
100
AcDbCircle
10
83.193991024194844
20
-24.94627210012122
30
0
40
0.99999999999999267
210
0
220
0
230
1
100
AcDbArc
50
-90.351061343526283
51
0.43743990222523105
0
LINE
5
116
100
AcDbEntity
8
PERIMETER
100
AcDbLine
10
84.193961879506105
20
-24.938637407718893
30
0
11
84.188997742841394
21
-24.288448542874022
31
0
0
LINE
5
117
100
AcDbEntity
8
PERIMETER
100
AcDbLine
10
84.188997742841394
20
-24.288448542874022
30
0
11
84.188997742849381
21
34.138155417658886
31
0
0
ARC
5
118
100
AcDbEntity
8
PERIMETER
100
AcDbCircle
10
83.188997742849367
20
34.138155417658986
30
0
40
1.0000000000000142
210
0
220
0
230
1
100
AcDbArc
50
0
51
61.42463343476517
0
ARC
5
119
100
AcDbEntity
8
PERIMETER
100
AcDbCircle
10
8.1726820274550462
20
-103.59236091270063
30
0
40
157.83476257558209
210
0
220
-0
230
1
100
AcDbArc
50
61.424633434764409
51
103.25453971544046
0
LINE
5
11A
100
AcDbEntity
8
PERIMETER
100
AcDbLine
10
-28.015279949769329
20
50.037856444515
30
0
11
-32.267656751668326
21
48.954479085297024
31
0
0
ARC
5
11B
100
AcDbEntity
8
PERIMETER
100
AcDbCircle
10
-32.576261106459526
20
50.165785550318915
30
0
40
1.2499999999999822
210
0
220
0
230
1
100
AcDbArc
50
180
51
284.29316913335731
0
LINE
5
11C
100
AcDbEntity
8
PERIMETER
100
AcDbLine
10
-33.826261106459512
20
50.165785550318958
30
0
11
-33.826261106459512
21
55.197093039030236
31
0
0
ARC
5
11D
100
AcDbEntity
8
PERIMETER
100
AcDbCircle
10
-32.826261106459505
20
55.197093039030236
30
0
40
1.0000000000000044
210
0
220
0
230
1
100
AcDbArc
50
104.15346717373731
51
180
0
ARC
5
11E
100
AcDbEntity
8
PERIMETER
100
AcDbCircle
10
7.3009271031975533
20
-103.92732425886737
30
0
40
165.10597616786754
210
0
220
-0
230
1
100
AcDbArc
50
60.755969550904666
51
104.15346717376065
0
ARC
5
11F
100
AcDbEntity
8
PERIMETER
100
AcDbCircle
10
85.761818435975243
20
36.208924128450306
30
0
40
4.500000000086164
210
0
220
-0
230
1
100
AcDbArc
50
0
51
60.755969550855511
0
LINE
5
120
100
AcDbEntity
8
PERIMETER
100
AcDbLine
10
90.261818435975215
20
36.208924128450306
30
0
11
90.261818435975201
21
-28.507938515266993
31
0
0
ARC
5
121
100
AcDbEntity
8
PERIMETER
100
AcDbCircle
10
85.761818435975215
20
-28.507938515266996
30
0
40
4.4999999999999929
210
0
220
0
230
1
100
AcDbArc
50
-90
51
0
0
ARC
5
122
100
AcDbEntity
8
PERIMETER
100
AcDbCircle
10
83.26847299187429
20
-104.93834269685635
30
0
40
71.973605003712507
210
0
220
-0
230
1
100
AcDbArc
50
88.014733869058702
51
109.6860830401906
0
ARC
5
123
100
AcDbEntity
8
PERIMETER
100
AcDbCircle
10
24.650196621496892
20
58.894225842462795
30
0
40
102.02988014272216
210
0
220
0
230
1
100
AcDbArc
50
267.30577591377124
51
289.68746640932085
0
ARC
5
124
100
AcDbEntity
8
PERIMETER
100
AcDbCircle
10
15.66139597085864
20
-132.12276531148319
30
0
40
89.198489736920209
210
0
220
-0
230
1
100
AcDbArc
50
87.305797133335062
51
134.99972120067906
0
ARC
5
125
100
AcDbEntity
8
PERIMETER
100
AcDbCircle
10
-50.59312801140905
20
-65.86761677016338
30
0
40
4.499998278379655
210
0
220
0
230
1
100
AcDbArc
50
225.0000000000004
51
314.99990332143926
0
LINE
5
126
100
AcDbEntity
8
PERIMETER
100
AcDbLine
10
-53.775107309379081
20
-69.049596068133468
30
0
11
-87.079837920635754
21
-35.744865477991389
31
0
0
ARC
5
127
100
AcDbEntity
8
PERIMETER
100
AcDbCircle
10
-83.897857405296264
20
-32.562884962651879
30
0
40
4.500000000000048
210
0
220
0
230
1
100
AcDbArc
50
135.00000000000131
51
225.00000000000014
0
LINE
5
128
100
AcDbEntity
8
PERIMETER
100
AcDbLine
10
-87.079837920635839
20
-29.380904447312449
30
0
11
-77.162665314494575
21
-19.463731841171011
31
0
0
ARC
5
129
100
AcDbEntity
8
PERIMETER
100
AcDbCircle
10
7.3009271031533363
20
-103.92732425882127
30
0
40
119.44955792379267
210
0
220
0
230
1
100
AcDbArc
50
133.24624863212804
51
134.99999999999915
0
LINE
5
12A
100
AcDbEntity
8
PERIMETER
100
AcDbLine
10
-74.538181564024839
20
-16.918375404399988
30
0
11
-70.399259920103049
21
-13.025377469801425
31
0
0
ARC
5
12B
100
AcDbEntity
8
PERIMETER
100
AcDbCircle
10
-69.237911003574354
20
-14.260089701227612
30
0
40
1.695065072602171
210
0
220
0
230
1
100
AcDbArc
50
0
51
133.24624863212836
0
LINE
5
12C
100
AcDbEntity
8
PERIMETER
100
AcDbLine
10
-67.542845930972177
20
-14.260089701227621
30
0
11
-67.542845930972078
21
-19.322692041450011
31
0
0
ARC
5
12D
100
AcDbEntity
8
PERIMETER
100
AcDbCircle
10
-69.042845930971936
20
-19.32269204145015
30
0
40
1.4999999999998628
210
0
220
0
230
1
100
AcDbArc
50
-48.853105835661026
51
0
0
ARC
5
12E
100
AcDbEntity
8
PERIMETER
100
AcDbCircle
10
5.568866258476719
20
-104.71052477720436
30
0
40
111.89307551676286
210
0
220
0
230
1
100
AcDbArc
50
131.14689416434132
51
135.64692213523932
0
LINE
5
12F
100
AcDbEntity
8
PERIMETER
100
AcDbLine
10
-74.43976562451968
20
-26.488538272058815
30
0
11
-79.84124045415912
21
-32.013386598960658
31
0
0
ARC
5
130
100
AcDbEntity
8
PERIMETER
100
AcDbCircle
10
-79.126195027858316
20
-32.712464590551171
30
0
40
0.99999999999997025
210
0
220
0
230
1
100
AcDbArc
50
135.64692213523819
51
224.16989897272634
0
LINE
5
131
100
AcDbEntity
8
PERIMETER
100
AcDbLine
10
-79.843471800632955
20
-33.409252959597275
30
0
11
-79.352460317534906
21
-33.914702171492159
31
0
0
LINE
5
132
100
AcDbEntity
8
PERIMETER
100
AcDbLine
10
-79.352460317534906
20
-33.914702171492166
30
0
11
-51.576006578290134
21
-61.691155910763136
31
0
0
ARC
5
133
100
AcDbEntity
8
PERIMETER
100
AcDbCircle
10
-50.868899797103246
20
-60.98404912957691
30
0
40
1.0000000000000042
210
0
220
0
230
1
100
AcDbArc
50
224.99999999997291
51
314.9999999999738
0
ENDSEC
0
SECTION
2
OBJECTS
0
DICTIONARY
5
C
100
AcDbDictionary
3
ACAD_GROUP
350
D
3
ACAD_MLINESTYLE
350
17
0
DICTIONARY
5
D
100
AcDbDictionary
0
DICTIONARY
5
1A
330
C
100
AcDbDictionary
0
DICTIONARY
5
17
100
AcDbDictionary
0
ENDSEC
0
EOF
