0
SECTION
2
HEADER
9
$INSUNITS
70
4
9
$ACADVER
1
AC1014
9
$HANDSEED
5
FFFF
0
ENDSEC
0
SECTION
2
TABLES
0
TABLE
2
VPORT
5
8
100
AcDbSymbolTable
0
ENDTAB
0
TABLE
2
LTYPE
5
5
100
AcDbSymbolTable
70
2
0
LTYPE
5
14
100
AcDbSymbolTableRecord
100
AcDbLinetypeTableRecord
2
BYBLOCK
70
0
0
LTYPE
5
15
100
AcDbSymbolTableRecord
100
AcDbLinetypeTableRecord
2
BYLAYER
70
0
0
ENDTAB
0
TABLE
2
LAYER
5
2
100
AcDbSymbolTable
70
3
0
LAYER
5
50
100
AcDbSymbolTableRecord
100
AcDbLayerTableRecord
2
0
70
0
6
CONTINUOUS
0
LAYER
5
51
100
AcDbSymbolTableRecord
100
AcDbLayerTableRecord
2
CUTOUTS
70
0
62
1
6
CONTINUOUS
0
LAYER
5
52
100
AcDbSymbolTableRecord
100
AcDbLayerTableRecord
2
PERIMETER
70
0
62
5
6
CONTINUOUS
0
ENDTAB
0
TABLE
2
STYLE
5
3
100
AcDbSymbolTable
70
1
0
STYLE
5
11
100
AcDbSymbolTableRecord
100
AcDbTextStyleTableRecord
2
STANDARD
70
0
0
ENDTAB
0
TABLE
2
VIEW
5
6
100
AcDbSymbolTable
0
ENDTAB
0
TABLE
2
UCS
5
7
100
AcDbSymbolTable
0
ENDTAB
0
TABLE
2
APPID
5
9
100
AcDbSymbolTable
70
1
0
APPID
5
12
100
AcDbSymbolTableRecord
100
AcDbRegAppTableRecord
2
ACAD
70
0
0
ENDTAB
0
TABLE
2
DIMSTYLE
5
A
100
AcDbSymbolTable
0
ENDTAB
0
TABLE
2
BLOCK_RECORD
5
1
100
AcDbSymbolTable
70
2
0
BLOCK_RECORD
5
1F
100
AcDbSymbolTableRecord
100
AcDbBlockTableRecord
2
*MODEL_SPACE
0
BLOCK_RECORD
5
1B
100
AcDbSymbolTableRecord
100
AcDbBlockTableRecord
2
*PAPER_SPACE
0
ENDTAB
0
ENDSEC
0
SECTION
2
BLOCKS
0
BLOCK
5
20
100
AcDbEntity
100
AcDbBlockBegin
2
*MODEL_SPACE
0
ENDBLK
5
21
100
AcDbEntity
100
AcDbBlockEnd
0
BLOCK
5
1C
100
AcDbEntity
100
AcDbBlockBegin
2
*PAPER_SPACE
0
ENDBLK
5
1D
100
AcDbEntity
100
AcDbBlockEnd
0
ENDSEC
0
SECTION
2
ENTITIES
0
CIRCLE
5
100
100
AcDbEntity
8
CUTOUTS
100
AcDbCircle
10
-30.673290381098717
20
52.7403458423884
30
0
40
1.5249999999999986
210
0
220
0
230
1
0
CIRCLE
5
101
100
AcDbEntity
8
CUTOUTS
100
AcDbCircle
10
-70.331074941397191
20
-18.555865224418476
30
0
40
1.5249999999999986
210
0
220
0
230
1
0
CIRCLE
5
102
100
AcDbEntity
8
CUTOUTS
100
AcDbCircle
10
-83.465877048516589
20
-32.409707021102037
30
0
40
1.5249999999999986
210
0
220
0
230
1
0
CIRCLE
5
103
100
AcDbEntity
8
CUTOUTS
100
AcDbCircle
10
-50.386021388782055
20
-65.489562680835519
30
0
40
1.5249999999999986
210
0
220
0
230
1
0
CIRCLE
5
104
100
AcDbEntity
8
CUTOUTS
100
AcDbCircle
10
28.520832949606159
20
-37.532386462472417
30
0
40
1.5249999999999986
210
0
220
0
230
1
0
CIRCLE
5
105
100
AcDbEntity
8
CUTOUTS
100
AcDbCircle
10
86.18842621568659
20
-28.419328746475784
30
0
40
1.5249999999999986
210
0
220
0
230
1
0
CIRCLE
5
106
100
AcDbEntity
8
CUTOUTS
100
AcDbCircle
10
86.15836400534441
20
36.469296948715815
30
0
40
1.5249999999999986
210
0
220
0
230
1
0
CIRCLE
5
107
100
AcDbEntity
8
CUTOUTS
100
AcDbCircle
10
-80.049105969517612
20
-28.766445876124727
30
0
40
1.5249999999999986
210
0
220
0
230
1
0
CIRCLE
5
108
100
AcDbEntity
8
CUTOUTS
100
AcDbCircle
10
-46.95168662477505
20
-62.083741395538809
30
0
40
1.5249999999999986
210
0
220
0
230
1
0
CIRCLE
5
109
100
AcDbEntity
8
CUTOUTS
100
AcDbCircle
10
14.389518210306935
20
-36.214122419995086
30
0
40
1.5249999999999986
210
0
220
0
230
1
0
CIRCLE
5
10A
100
AcDbEntity
8
CUTOUTS
100
AcDbCircle
10
81.137817704602909
20
-28.461494754252897
30
0
40
1.5249999999999986
210
0
220
0
230
1
0
CIRCLE
5
10B
100
AcDbEntity
8
CUTOUTS
100
AcDbCircle
10
81.501672572044185
20
39.539991280205733
30
0
40
1.5249999999999986
210
0
220
0
230
1
0
CIRCLE
5
10C
100
AcDbEntity
8
CUTOUTS
100
AcDbCircle
10
-25.348689633286561
20
53.543947344437719
30
0
40
1.5249999999999986
210
0
220
0
230
1
0
ARC
5
10D
100
AcDbEntity
8
PERIMETER
100
AcDbCircle
10
7.9906925728627929
20
-103.31790721425379
30
0
40
165.78105454358155
210
0
220
-0
230
1
100
AcDbArc
50
61.015229747924543
51
104.19969975989109
0
ARC
5
10E
100
AcDbEntity
8
PERIMETER
100
AcDbCircle
10
85.368056143678018
20
36.362100578686366
30
0
40
6.1008711449959385
210
0
220
-0
230
1
100
AcDbArc
50
0
51
61.015229747924451
0
LINE
5
10F
100
AcDbEntity
8
PERIMETER
100
AcDbLine
10
91.468927288673939
20
36.362100578686423
30
0
11
91.468927288677563
21
-28.354767729349348
31
0
0
ARC
5
110
100
AcDbEntity
8
PERIMETER
100
AcDbCircle
10
85.968927288673768
20
-28.354767729349376
30
0
40
5.500000000003781
210
0
220
0
230
1
100
AcDbArc
50
-90.000067548552948
51
0
0
ARC
5
111
100
AcDbEntity
8
PERIMETER
100
AcDbCircle
10
83.476844444303197
20
-104.78301816219215
30
0
40
70.97201669706881
210
0
220
-0
230
1
100
AcDbArc
50
87.987730629336411
51
109.68753691916406
0
ARC
5
112
100
AcDbEntity
8
PERIMETER
100
AcDbCircle
10
24.857267337730903
20
59.047391844037961
30
0
40
103.02987427818132
210
0
220
0
230
1
100
AcDbArc
50
267.30579685774427
51
289.68753691917425
0
ARC
5
113
100
AcDbEntity
8
PERIMETER
100
AcDbCircle
10
15.868504131004176
20
-131.96958791907383
30
0
40
88.198482462661104
210
0
220
-0
230
1
100
AcDbArc
50
87.305796857744042
51
134.99972808083686
0
ARC
5
114
100
AcDbEntity
8
PERIMETER
100
AcDbCircle
10
-50.386016329892449
20
-65.714438582564043
30
0
40
5.5000036249304287
210
0
220
0
230
1
100
AcDbArc
50
225.00000000000057
51
314.99972808084311
0
LINE
5
115
100
AcDbEntity
8
PERIMETER
100
AcDbLine
10
-54.275106189631316
20
-69.603528442302988
30
0
11
-87.579837770151201
21
-36.298796861781618
31
0
0
ARC
5
116
100
AcDbEntity
8
PERIMETER
100
AcDbCircle
10
-83.69075015268406
20
-32.409709244314421
30
0
40
5.5000004538793403
210
0
220
0
230
1
100
AcDbArc
50
135.00000000000063
51
225.0000000000004
0
LINE
5
117
100
AcDbEntity
8
PERIMETER
100
AcDbLine
10
-87.579837770151272
20
-28.520621626847298
30
0
11
-77.662662239395118
21
-18.603444129190802
31
0
0
LINE
5
118
100
AcDbEntity
8
PERIMETER
100
AcDbLine
10
-77.662662239395118
20
-18.603444129190802
30
0
11
-71.603506226975071
21
-12.544288145215571
31
0
0
ARC
5
119
100
AcDbEntity
8
PERIMETER
100
AcDbCircle
10
-69.835739288231167
20
-14.312055083959425
30
0
40
2.4999999798863652
210
0
220
-0
230
1
100
AcDbArc
50
0
51
135.00000000000085
0
LINE
5
11A
100
AcDbEntity
8
PERIMETER
100
AcDbLine
10
-67.335739308344799
20
-14.312055063845817
30
0
11
-67.335739308344785
21
-19.169514099900155
31
0
0
ARC
5
11B
100
AcDbEntity
8
PERIMETER
100
AcDbCircle
10
-68.835739308344813
20
-19.169514099900134
30
0
40
1.5000000000000382
210
0
220
0
230
1
100
AcDbArc
50
311.14689416434067
51
360
0
ARC
5
11C
100
AcDbEntity
8
PERIMETER
100
AcDbCircle
10
5.7759728810880961
20
-104.5573468356379
30
0
40
111.89307551673998
210
0
220
0
230
1
100
AcDbArc
50
131.14689416434072
51
135.64692213523986
0
LINE
5
11D
100
AcDbEntity
8
PERIMETER
100
AcDbLine
10
-74.232659001892472
20
-26.335360330508884
30
0
11
-79.634133831531869
21
-31.860208657410762
31
0
0
ARC
5
11E
100
AcDbEntity
8
PERIMETER
100
AcDbCircle
10
-78.919088405231051
20
-32.55928664900128
30
0
40
0.99999999999997025
210
0
220
0
230
1
100
AcDbArc
50
135.64692213523861
51
224.16989897272634
0
LINE
5
11F
100
AcDbEntity
8
PERIMETER
100
AcDbLine
10
-79.63636517800569
20
-33.256075018047383
30
0
11
-79.145353694907641
21
-33.761524229942268
31
0
0
LINE
5
120
100
AcDbEntity
8
PERIMETER
100
AcDbLine
10
-79.145353694907641
20
-33.761524229942268
30
0
11
-51.368899955662869
21
-61.537977969213244
31
0
0
ARC
5
121
100
AcDbEntity
8
PERIMETER
100
AcDbCircle
10
-50.661793174475989
20
-60.830871188027018
30
0
40
1.0000000000000042
210
0
220
0
230
1
100
AcDbArc
50
224.99999999997323
51
314.9999999999738
0
LINE
5
122
100
AcDbEntity
8
PERIMETER
100
AcDbLine
10
-49.954686393289762
20
-61.537977969213891
30
0
11
-44.171444173891388
21
-55.754735749820973
31
0
0
ARC
5
123
100
AcDbEntity
8
PERIMETER
100
AcDbCircle
10
6.728054090193889
20
-102.09869427498506
30
0
40
68.836918984784248
210
0
220
-0
230
1
100
AcDbArc
50
89.999999999999076
51
137.68216000008172
0
LINE
5
124
100
AcDbEntity
8
PERIMETER
100
AcDbLine
10
6.728054090194977
20
-33.261775290200831
30
0
11
36.511871253882468
21
-33.261775290200937
31
0
0
ARC
5
125
100
AcDbEntity
8
PERIMETER
100
AcDbCircle
10
36.511871253882461
20
-31.761775290202316
30
0
40
1.4999999999986269
210
0
220
0
230
1
100
AcDbArc
50
270
51
360
0
LINE
5
126
100
AcDbEntity
8
PERIMETER
100
AcDbLine
10
38.011871253881097
20
-31.761775290202323
30
0
11
38.011871253881097
21
-26.235943017613678
31
0
0
ARC
5
127
100
AcDbEntity
8
PERIMETER
100
AcDbCircle
10
38.511871253881083
20
-26.235943017613668
30
0
40
0.49999999999998934
210
0
220
-0
230
1
100
AcDbArc
50
89.99999999999919
51
180
0
LINE
5
128
100
AcDbEntity
8
PERIMETER
100
AcDbLine
10
38.51187125388109
20
-25.735943017613678
30
0
11
74.070666471111394
21
-25.735943017613678
31
0
0
LINE
5
129
100
AcDbEntity
8
PERIMETER
100
AcDbLine
10
74.070666471111394
20
-25.735943017613678
30
0
11
83.39497050883908
21
-25.79307538748521
31
0
0
ARC
5
12A
100
AcDbEntity
8
PERIMETER
100
AcDbCircle
10
83.401097646822109
20
-24.793094158571325
30
0
40
0.99999999999999267
210
0
220
0
230
1
100
AcDbArc
50
-90.351061343526283
51
0.43743990222523105
0
LINE
5
12B
100
AcDbEntity
8
PERIMETER
100
AcDbLine
10
84.40106850213337
20
-24.785459466169002
30
0
11
84.396104365468645
21
-24.13527060132413
31
0
0
LINE
5
12C
100
AcDbEntity
8
PERIMETER
100
AcDbLine
10
84.396104365468645
20
-24.13527060132413
30
0
11
84.396104365476646
21
34.291333359208778
31
0
0
ARC
5
12D
100
AcDbEntity
8
PERIMETER
100
AcDbCircle
10
83.396104365476617
20
34.291333359208885
30
0
40
1.0000000000000142
210
0
220
0
230
1
100
AcDbArc
50
0
51
61.424633434764253
0
ARC
5
12E
100
AcDbEntity
8
PERIMETER
100
AcDbCircle
10
8.379788650082304
20
-103.43918297115074
30
0
40
157.83476257558209
210
0
220
-0
230
1
100
AcDbArc
50
61.424633434764409
51
103.25453971544046
0
LINE
5
12F
100
AcDbEntity
8
PERIMETER
100
AcDbLine
10
-27.808173327142072
20
50.191034386064892
30
0
11
-32.060550129041076
21
49.107657026846915
31
0
0
ARC
5
130
100
AcDbEntity
8
PERIMETER
100
AcDbCircle
10
-32.369154483832276
20
50.318963491868828
30
0
40
1.2499999999999822
210
0
220
0
230
1
100
AcDbArc
50
180
51
284.29316913335731
0
LINE
5
131
100
AcDbEntity
8
PERIMETER
100
AcDbLine
10
-33.619154483832254
20
50.318963491868857
30
0
11
-33.61915448383229
21
56.186170021355395
31
0
0
ARC
5
132
100
AcDbEntity
8
PERIMETER
100
AcDbCircle
10
-32.36915448383224
20
56.18617002135538
30
0
40
1.2500000000000493
210
0
220
0
230
1
100
AcDbArc
50
104.19969975989201
51
180
0
ENDSEC
0
SECTION
2
OBJECTS
0
DICTIONARY
5
C
100
AcDbDictionary
3
ACAD_GROUP
350
D
3
ACAD_MLINESTYLE
350
17
0
DICTIONARY
5
D
100
AcDbDictionary
0
DICTIONARY
5
1A
330
C
100
AcDbDictionary
0
DICTIONARY
5
17
100
AcDbDictionary
0
ENDSEC
0
EOF
