0
SECTION
2
HEADER
9
$INSUNITS
70
4
9
$ACADVER
1
AC1014
9
$HANDSEED
5
FFFF
0
ENDSEC
0
SECTION
2
TABLES
0
TABLE
2
VPORT
5
8
100
AcDbSymbolTable
0
ENDTAB
0
TABLE
2
LTYPE
5
5
100
AcDbSymbolTable
70
2
0
LTYPE
5
14
100
AcDbSymbolTableRecord
100
AcDbLinetypeTableRecord
2
BYBLOCK
70
0
0
LTYPE
5
15
100
AcDbSymbolTableRecord
100
AcDbLinetypeTableRecord
2
BYLAYER
70
0
0
ENDTAB
0
TABLE
2
LAYER
5
2
100
AcDbSymbolTable
70
3
0
LAYER
5
50
100
AcDbSymbolTableRecord
100
AcDbLayerTableRecord
2
0
70
0
6
CONTINUOUS
0
LAYER
5
51
100
AcDbSymbolTableRecord
100
AcDbLayerTableRecord
2
CUTOUTS
70
0
62
1
6
CONTINUOUS
0
LAYER
5
52
100
AcDbSymbolTableRecord
100
AcDbLayerTableRecord
2
PERIMETER
70
0
62
5
6
CONTINUOUS
0
ENDTAB
0
TABLE
2
STYLE
5
3
100
AcDbSymbolTable
70
1
0
STYLE
5
11
100
AcDbSymbolTableRecord
100
AcDbTextStyleTableRecord
2
STANDARD
70
0
0
ENDTAB
0
TABLE
2
VIEW
5
6
100
AcDbSymbolTable
0
ENDTAB
0
TABLE
2
UCS
5
7
100
AcDbSymbolTable
0
ENDTAB
0
TABLE
2
APPID
5
9
100
AcDbSymbolTable
70
1
0
APPID
5
12
100
AcDbSymbolTableRecord
100
AcDbRegAppTableRecord
2
ACAD
70
0
0
ENDTAB
0
TABLE
2
DIMSTYLE
5
A
100
AcDbSymbolTable
0
ENDTAB
0
TABLE
2
BLOCK_RECORD
5
1
100
AcDbSymbolTable
70
2
0
BLOCK_RECORD
5
1F
100
AcDbSymbolTableRecord
100
AcDbBlockTableRecord
2
*MODEL_SPACE
0
BLOCK_RECORD
5
1B
100
AcDbSymbolTableRecord
100
AcDbBlockTableRecord
2
*PAPER_SPACE
0
ENDTAB
0
ENDSEC
0
SECTION
2
BLOCKS
0
BLOCK
5
20
100
AcDbEntity
100
AcDbBlockBegin
2
*MODEL_SPACE
0
ENDBLK
5
21
100
AcDbEntity
100
AcDbBlockEnd
0
BLOCK
5
1C
100
AcDbEntity
100
AcDbBlockBegin
2
*PAPER_SPACE
0
ENDBLK
5
1D
100
AcDbEntity
100
AcDbBlockEnd
0
ENDSEC
0
SECTION
2
ENTITIES
0
CIRCLE
5
100
100
AcDbEntity
8
CUTOUTS
100
AcDbCircle
10
-30.673290381098717
20
52.7403458423884
30
0
40
0.95000000000000639
210
0
220
0
230
1
0
CIRCLE
5
101
100
AcDbEntity
8
CUTOUTS
100
AcDbCircle
10
-70.331074941397191
20
-18.555865224418476
30
0
40
0.95000000000000639
210
0
220
0
230
1
0
CIRCLE
5
102
100
AcDbEntity
8
CUTOUTS
100
AcDbCircle
10
-83.465877048516589
20
-32.409707021102037
30
0
40
0.95000000000000639
210
0
220
0
230
1
0
CIRCLE
5
103
100
AcDbEntity
8
CUTOUTS
100
AcDbCircle
10
-50.386021388782055
20
-65.489562680835519
30
0
40
0.95000000000000639
210
0
220
0
230
1
0
CIRCLE
5
104
100
AcDbEntity
8
CUTOUTS
100
AcDbCircle
10
28.520832949606159
20
-37.532386462472417
30
0
40
0.95000000000000195
210
0
220
0
230
1
0
CIRCLE
5
105
100
AcDbEntity
8
CUTOUTS
100
AcDbCircle
10
86.190057658987087
20
-28.417646566945265
30
0
40
0.95000000000000639
210
0
220
0
230
1
0
CIRCLE
5
106
100
AcDbEntity
8
CUTOUTS
100
AcDbCircle
10
86.15836400534441
20
36.469296948715815
30
0
40
0.95000000000000639
210
0
220
0
230
1
0
ARC
5
107
100
AcDbEntity
8
CUTOUTS
100
AcDbCircle
10
-39.867333713689192
20
-56.332095577872224
30
0
40
1.0000000000000044
210
0
220
0
230
1
100
AcDbArc
50
130.94827301882569
51
226.47716602141932
0
LINE
5
108
100
AcDbEntity
8
CUTOUTS
100
AcDbLine
10
-39.292651458925661
20
-58.257004263396873
30
0
11
-40.555977316786809
21
-57.057195562641724
31
0
0
ARC
5
109
100
AcDbEntity
8
CUTOUTS
100
AcDbCircle
10
-38.60400785582808
20
-57.531904278627422
30
0
40
0.99999999999993927
210
0
220
0
230
1
100
AcDbArc
50
226.47716602141884
51
308.63607526332027
0
ARC
5
10A
100
AcDbEntity
8
CUTOUTS
100
AcDbCircle
10
12.573629172008074
20
-121.55830048115823
30
0
40
80.966639204229949
210
0
220
0
230
1
100
AcDbArc
50
93.276803647141818
51
128.6360752633187
0
ARC
5
10B
100
AcDbEntity
8
CUTOUTS
100
AcDbCircle
10
7.8884291207967738
20
-39.7256734738543
30
0
40
0.99999999999997757
210
-0
220
0
230
1
100
AcDbArc
50
-86.723196352858949
51
0
0
LINE
5
10C
100
AcDbEntity
8
CUTOUTS
100
AcDbLine
10
8.8884291207967703
20
-36.371308510658352
30
0
11
8.8884291207967525
21
-39.725673473854286
31
0
0
ARC
5
10D
100
AcDbEntity
8
CUTOUTS
100
AcDbCircle
10
8.3884291207967721
20
-36.371308510658345
30
0
40
0.49999999999999822
210
-0
220
0
230
1
100
AcDbArc
50
0
51
92.958723501300625
0
ARC
5
10E
100
AcDbEntity
8
CUTOUTS
100
AcDbCircle
10
12.541908946556255
20
-116.73207698000878
30
0
40
80.968034048605531
210
0
220
0
230
1
100
AcDbArc
50
92.958723501301492
51
130.94827301882651
0
ARC
5
10F
100
AcDbEntity
8
CUTOUTS
100
AcDbCircle
10
32.594367604537815
20
-38.36275982550508
30
0
40
1.0000000000000029
210
0
220
0
230
1
100
AcDbArc
50
179.62842707466373
51
272.51690314287896
0
ARC
5
110
100
AcDbEntity
8
CUTOUTS
100
AcDbCircle
10
28.204005550703645
20
61.516884743191667
30
0
40
100.97609053235149
210
-0
220
0
230
1
100
AcDbArc
50
272.51690314288095
51
287.34026285534492
0
ARC
5
111
100
AcDbEntity
8
CUTOUTS
100
AcDbCircle
10
83.035221335331642
20
-100.94388920720138
30
0
40
70.552210469841569
210
0
220
0
230
1
100
AcDbArc
50
97.809447414335295
51
110.52412069879556
0
ARC
5
112
100
AcDbEntity
8
CUTOUTS
100
AcDbCircle
10
73.312783287121533
20
-30.055293357662755
30
0
40
1.0000000000000198
210
-0
220
0
230
1
100
AcDbArc
50
-82.190552585665486
51
0.14542044793039316
0
LINE
5
113
100
AcDbEntity
8
CUTOUTS
100
AcDbLine
10
74.306803196636167
20
-27.697868672942949
30
0
11
74.312780066234737
21
-30.0527552947716
31
0
0
ARC
5
114
100
AcDbEntity
8
CUTOUTS
100
AcDbCircle
10
73.306806417522978
20
-27.7004067358341
30
0
40
1.0000000000000016
210
0
220
-0
230
1
100
AcDbArc
50
0.14542044793039316
51
98.101791871452633
0
ARC
5
115
100
AcDbEntity
8
CUTOUTS
100
AcDbCircle
10
83.109258413829522
20
-96.560586301300788
30
0
40
70.554384440725329
210
0
220
0
230
1
100
AcDbArc
50
98.10179187145269
51
110.55496840665791
0
ARC
5
116
100
AcDbEntity
8
CUTOUTS
100
AcDbCircle
10
28.459283777074312
20
65.832713871400045
30
0
40
100.85779527142017
210
-0
220
0
230
1
100
AcDbArc
50
272.33549913165245
51
287.23179190980187
0
ARC
5
117
100
AcDbEntity
8
CUTOUTS
100
AcDbCircle
10
32.610076775024034
20
-35.940472062040747
30
0
40
0.99999999999996003
210
0
220
0
230
1
100
AcDbArc
50
92.33549913165308
51
179.62842707466373
0
LINE
5
118
100
AcDbEntity
8
CUTOUTS
100
AcDbLine
10
31.594388633185293
20
-38.356274700004874
30
0
11
31.610097803671554
21
-35.933986936540556
31
0
0
ARC
5
119
100
AcDbEntity
8
CUTOUTS
100
AcDbCircle
10
87.092929815623933
20
-22.599377332638952
30
0
40
0.99999999999998068
210
-0
220
0
230
1
100
AcDbArc
50
-89.894005579013722
51
0.072099095137449637
0
LINE
5
11A
100
AcDbEntity
8
CUTOUTS
100
AcDbLine
10
88.026009072819676
20
30.581865189388626
30
0
11
88.092929023880771
21
-22.598118966373182
31
0
0
ARC
5
11B
100
AcDbEntity
8
CUTOUTS
100
AcDbCircle
10
87.026009864561019
20
30.58060682312286
30
0
40
1.0000000000017999
210
0
220
-0
230
1
100
AcDbArc
50
0.072099095137449637
51
90.105994420985297
0
LINE
5
11C
100
AcDbEntity
8
CUTOUTS
100
AcDbLine
10
86.483744213775125
20
31.579605367914194
30
0
11
87.024159913981265
21
31.580605111964619
31
0
0
ARC
5
11D
100
AcDbEntity
8
CUTOUTS
100
AcDbCircle
10
86.485594164354922
20
30.579607079074201
30
0
40
1.0000000000000295
210
0
220
0
230
1
100
AcDbArc
50
90.105994420987102
51
180.07209909515768
0
LINE
5
11E
100
AcDbEntity
8
CUTOUTS
100
AcDbLine
10
85.552514907171599
20
-22.601635442953789
30
0
11
85.485594956098055
21
30.578348712807966
31
0
0
ARC
5
11F
100
AcDbEntity
8
CUTOUTS
100
AcDbCircle
10
86.552514115417765
20
-22.600377076687575
30
0
40
0.99999999998931288
210
0
220
0
230
1
100
AcDbArc
50
180.07209909515768
51
270.10599442098737
0
LINE
5
120
100
AcDbEntity
8
CUTOUTS
100
AcDbLine
10
87.0947797662037
20
-23.599375621478895
30
0
11
86.554364065997532
21
-23.60037536551685
31
0
0
ARC
5
121
100
AcDbEntity
8
CUTOUTS
100
AcDbCircle
10
8.593283438987056
20
-105.12440582830442
30
0
40
160.65141458451788
210
0
220
-0
230
1
100
AcDbArc
50
65.185417664442966
51
99.641408627193897
0
ARC
5
122
100
AcDbEntity
8
CUTOUTS
100
AcDbCircle
10
76.435651377987057
20
41.601845911474641
30
0
40
0.99999999999998035
210
0
220
0
230
1
100
AcDbArc
50
245.18541766444193
51
334.32318431816293
0
LINE
5
123
100
AcDbEntity
8
CUTOUTS
100
AcDbLine
10
77.547591584870972
20
41.606782063912959
30
0
11
77.336903802512239
21
41.168551476606787
31
0
0
ARC
5
124
100
AcDbEntity
8
CUTOUTS
100
AcDbCircle
10
76.646339160345747
20
42.040076498780834
30
0
40
1.0000000000000346
210
-0
220
0
230
1
100
AcDbArc
50
-25.676815681837116
51
65.146684037226507
0
ARC
5
125
100
AcDbEntity
8
CUTOUTS
100
AcDbCircle
10
8.4875553429252282
20
-105.10928235924779
30
0
40
163.16828797209016
210
0
220
-0
230
1
100
AcDbArc
50
65.146684037227502
51
99.606462508486999
0
ARC
5
126
100
AcDbEntity
8
CUTOUTS
100
AcDbCircle
10
-18.575081770419544
20
54.784955486492478
30
0
40
1.0000000000000351
210
0
220
0
230
1
100
AcDbArc
50
99.606462508489713
51
189.93247868127261
0
LINE
5
127
100
AcDbEntity
8
CUTOUTS
100
AcDbLine
10
-19.465317182498893
20
54.071235929705786
30
0
11
-19.560093478590055
21
54.612467994867309
31
0
0
ARC
5
128
100
AcDbEntity
8
CUTOUTS
100
AcDbCircle
10
-18.4803054743284
20
54.243723421331005
30
0
40
1.0000000000000542
210
0
220
0
230
1
100
AcDbArc
50
189.93247868127574
51
279.64140862718887
0
ARC
5
129
100
AcDbEntity
8
CUTOUTS
100
AcDbCircle
10
-53.023486175091094
20
-62.840298628033679
30
0
40
0.99999999999998246
210
-0
220
0
230
1
100
AcDbArc
50
-44.894005579013253
51
45.081064846770282
0
LINE
5
12A
100
AcDbEntity
8
CUTOUTS
100
AcDbLine
10
-80.135787458729254
20
-34.392391695344166
30
0
11
-52.317380550269732
21
-62.13219210596543
31
0
0
ARC
5
12B
100
AcDbEntity
8
CUTOUTS
100
AcDbCircle
10
-80.84189308356558
20
-35.100498217427429
30
0
40
1.0000000000211844
210
0
220
-0
230
1
100
AcDbArc
50
45.081064846770865
51
135.07346632838338
0
LINE
5
12C
100
AcDbEntity
8
CUTOUTS
100
AcDbLine
10
-81.92642664345415
20
-34.77178618938477
30
0
11
-81.549905956284334
21
-34.394298690305732
31
0
0
ARC
5
12D
100
AcDbEntity
8
CUTOUTS
100
AcDbCircle
10
-81.218413770648937
20
-35.477985716592727
30
0
40
1.0000000001433247
210
0
220
0
230
1
100
AcDbArc
50
135.07346632838249
51
225.0704885480377
0
LINE
5
12E
100
AcDbEntity
8
CUTOUTS
100
AcDbLine
10
-54.111147178678522
20
-63.931113329200727
30
0
11
-81.924650093798718
21
-36.185961885789496
31
0
0
ARC
5
12F
100
AcDbEntity
8
CUTOUTS
100
AcDbCircle
10
-53.404910855570321
20
-63.223137160105352
30
0
40
1.0000000000421763
210
0
220
0
230
1
100
AcDbArc
50
225.07048854562154
51
315.10599442098629
0
LINE
5
130
100
AcDbEntity
8
CUTOUTS
100
AcDbLine
10
-52.315072491277604
20
-63.54609608664753
30
0
11
-52.696497171726939
21
-63.92893461874899
31
0
0
LINE
5
131
100
AcDbEntity
8
CUTOUTS
100
AcDbLine
10
-77.502031128593217
20
-20.914141692773182
30
0
11
-69.705051998460647
21
-13.358525094592943
31
0
0
ARC
5
132
100
AcDbEntity
8
CUTOUTS
100
AcDbCircle
10
-76.806126968699218
20
-21.632276359978601
30
0
40
1.0000000000000004
210
0
220
0
230
1
100
AcDbArc
50
134.09931092416397
51
226.15070852893228
0
LINE
5
133
100
AcDbEntity
8
CUTOUTS
100
AcDbLine
10
-75.157695397128364
20
-24.602436098930628
30
0
11
-77.498890815575905
21
-22.353440871349353
31
0
0
ARC
5
134
100
AcDbEntity
8
CUTOUTS
100
AcDbCircle
10
-74.464931550251677
20
-23.881271587559883
30
0
40
0.999999999999997
210
0
220
0
230
1
100
AcDbArc
50
226.150708528932
51
314.09931092416349
0
LINE
5
135
100
AcDbEntity
8
CUTOUTS
100
AcDbLine
10
-70.439859386534238
20
-21.373295653723929
30
0
11
-73.769027390357692
21
-24.599406254765299
31
0
0
ARC
5
136
100
AcDbEntity
8
CUTOUTS
100
AcDbCircle
10
-70.613835426507762
20
-21.193761986922574
30
0
40
0.2500000000000186
210
-0
220
0
230
1
100
AcDbArc
50
-45.900689075831949
51
83.408437426781958
0
ARC
5
137
100
AcDbEntity
8
CUTOUTS
100
AcDbCircle
10
-70.307654151652059
20
-18.544097131818901
30
0
40
2.4172965372158743
210
0
220
0
230
1
100
AcDbArc
50
110.52184534286131
51
263.40843742679141
0
ARC
5
138
100
AcDbEntity
8
CUTOUTS
100
AcDbCircle
10
-70.283737749352809
20
-18.607990181115476
30
0
40
2.4855190851553521
210
0
220
-0
230
1
100
AcDbArc
50
47.494459439627008
51
110.52184534286131
0
ARC
5
139
100
AcDbEntity
8
CUTOUTS
100
AcDbCircle
10
-68.435452821195184
20
-16.591332676829108
30
0
40
0.24999999999999956
210
0
220
0
230
1
100
AcDbArc
50
227.49445943963016
51
360
0
LINE
5
13A
100
AcDbEntity
8
CUTOUTS
100
AcDbLine
10
-68.18545282119517
20
-14.410695146227582
30
0
11
-68.18545282119517
21
-16.591332676829111
31
0
0
ARC
5
13B
100
AcDbEntity
8
CUTOUTS
100
AcDbCircle
10
-68.685452821195128
20
-14.410695146227573
30
0
40
0.49999999999995381
210
-0
220
0
230
1
100
AcDbArc
50
0
51
44.099310924170069
0
LINE
5
13C
100
AcDbEntity
8
CUTOUTS
100
AcDbLine
10
-68.998032584910959
20
-13.369640348248641
30
0
11
-68.326385487592489
21
-14.06274306628057
31
0
0
ARC
5
13D
100
AcDbEntity
8
CUTOUTS
100
AcDbCircle
10
-69.357099918513654
20
-13.717592428195637
30
0
40
0.4999999999999889
210
0
220
-0
230
1
100
AcDbArc
50
44.099310924164961
51
134.09931092416468
0
ARC
5
13E
100
AcDbEntity
8
PERIMETER
100
AcDbCircle
10
24.857267337731038
20
59.0473918440372
30
0
40
103.02987427819311
210
0
220
0
230
1
100
AcDbArc
50
267.30579685774421
51
289.68753691917425
0
ARC
5
13F
100
AcDbEntity
8
PERIMETER
100
AcDbCircle
10
83.476844444303211
20
-104.78301816219202
30
0
40
70.97201669706871
210
0
220
-0
230
1
100
AcDbArc
50
87.987730629336411
51
109.6875369191641
0
ARC
5
140
100
AcDbEntity
8
PERIMETER
100
AcDbCircle
10
85.96892728867374
20
-28.354767729349341
30
0
40
5.500000000003781
210
0
220
0
230
1
100
AcDbArc
50
-90.00006754855265
51
0
0
LINE
5
141
100
AcDbEntity
8
PERIMETER
100
AcDbLine
10
91.468927288677548
20
-28.354767729349341
30
0
11
91.468927288673882
21
36.36210057868643
31
0
0
ARC
5
142
100
AcDbEntity
8
PERIMETER
100
AcDbCircle
10
85.368056143678103
20
36.362100578686423
30
0
40
6.1008711449957786
210
0
220
-0
230
1
100
AcDbArc
50
0
51
61.015229747924472
0
ARC
5
143
100
AcDbEntity
8
PERIMETER
100
AcDbCircle
10
7.9906925728628231
20
-103.31790721425364
30
0
40
165.78105454358138
210
0
220
-0
230
1
100
AcDbArc
50
61.015229747924487
51
104.19969975989109
0
ARC
5
144
100
AcDbEntity
8
PERIMETER
100
AcDbCircle
10
-32.369154483832254
20
56.186170021355395
30
0
40
1.2500000000000202
210
0
220
0
230
1
100
AcDbArc
50
104.19969975989005
51
180
0
LINE
5
145
100
AcDbEntity
8
PERIMETER
100
AcDbLine
10
-33.619154483832304
20
56.186170021355395
30
0
11
-33.619154483832254
21
50.318963491868857
31
0
0
ARC
5
146
100
AcDbEntity
8
PERIMETER
100
AcDbCircle
10
-32.369154483832276
20
50.318963491868814
30
0
40
1.2499999999999822
210
0
220
0
230
1
100
AcDbArc
50
180
51
284.3579138118057
0
LINE
5
147
100
AcDbEntity
8
PERIMETER
100
AcDbLine
10
-32.059181540595247
20
49.10800652547367
30
0
11
-28.527754398433967
21
50.011958437021313
31
0
0
ARC
5
148
100
AcDbEntity
8
PERIMETER
100
AcDbCircle
10
-28.775732752915566
20
50.980724010165083
30
0
40
0.99999999999998779
210
-0
220
0
230
1
100
AcDbArc
50
-75.642086194583115
51
12.815337637090671
0
LINE
5
149
100
AcDbEntity
8
PERIMETER
100
AcDbLine
10
-27.800642740367998
20
51.202533539784476
30
0
11
-28.301081679724085
21
53.402497682412985
31
0
0
ARC
5
14A
100
AcDbEntity
8
PERIMETER
100
AcDbCircle
10
-25.837984418535285
20
53.962793078613167
30
0
40
2.5260203975975575
210
0
220
0
230
1
100
AcDbArc
50
102.8040367756323
51
192.81533763709237
0
LINE
5
14B
100
AcDbEntity
8
PERIMETER
100
AcDbLine
10
-26.39779398933257
20
56.426000803008876
30
0
11
-23.803437061655135
21
57.015616458965937
31
0
0
ARC
5
14C
100
AcDbEntity
8
PERIMETER
100
AcDbCircle
10
-23.244564251295898
20
54.556530556824249
30
0
40
2.5217934674098186
210
0
220
-0
230
1
100
AcDbArc
50
12.804036775632209
51
102.80403677563247
0
LINE
5
14D
100
AcDbEntity
8
PERIMETER
100
AcDbLine
10
-20.785478349154207
20
55.115403367183475
30
0
11
-20.247886717211774
21
52.749956384051046
31
0
0
ARC
5
14E
100
AcDbEntity
8
PERIMETER
100
AcDbCircle
10
-19.272752974531571
20
52.971573585293697
30
0
40
1.0000000000000644
210
0
220
0
230
1
100
AcDbArc
50
192.80403677563459
51
279.93247868127031
0
ARC
5
14F
100
AcDbEntity
8
PERIMETER
100
AcDbCircle
10
8.4071981779789162
20
-105.09829982939009
30
0
40
159.47512136508732
210
0
220
-0
230
1
100
AcDbArc
50
65.600167713487622
51
99.932478681274148
0
LINE
5
150
100
AcDbEntity
8
PERIMETER
100
AcDbLine
10
74.286652145993557
20
40.133280342711529
30
0
11
76.771145887522238
21
39.124281442370844
31
0
0
ARC
5
151
100
AcDbEntity
8
PERIMETER
100
AcDbCircle
10
77.147418364590536
20
40.050790494134986
30
0
40
1
210
0
220
0
230
1
100
AcDbArc
50
247.89701845821398
51
318.86403209445882
0
LINE
5
152
100
AcDbEntity
8
PERIMETER
100
AcDbLine
10
77.900568935619731
20
39.392942322169439
30
0
11
79.632476274616621
21
41.375750904638963
31
0
0
ARC
5
153
100
AcDbEntity
8
PERIMETER
100
AcDbCircle
10
81.41165737157732
20
39.603785594227887
30
0
40
2.5110448894996256
210
0
220
-0
230
1
100
AcDbArc
50
73.505321916586837
51
135.11642255731834
0
ARC
5
154
100
AcDbEntity
8
PERIMETER
100
AcDbCircle
10
81.223934091285983
20
38.969826190754532
30
0
40
3.1722139716681994
210
-0
220
0
230
1
100
AcDbArc
50
-0.32766555331573782
51
73.505321916586638
0
LINE
5
155
100
AcDbEntity
8
PERIMETER
100
AcDbLine
10
84.396096189208976
20
38.951684896764924
30
0
11
84.396104365476702
21
34.665903743824487
31
0
0
LINE
5
156
100
AcDbEntity
8
PERIMETER
100
AcDbLine
10
84.396104365476702
20
34.665903743824487
30
0
11
84.396104365468645
21
-24.13527060132413
31
0
0
LINE
5
157
100
AcDbEntity
8
PERIMETER
100
AcDbLine
10
84.396104365468645
20
-24.13527060132413
30
0
11
84.421548363254431
21
-28.742835924381627
31
0
0
ARC
5
158
100
AcDbEntity
8
PERIMETER
100
AcDbCircle
10
81.921586481049999
20
-28.756641268448497
30
0
40
2.4999999999999911
210
0
220
0
230
1
100
AcDbArc
50
-90.000000000042036
51
0.3163967879507894
0
LINE
5
159
100
AcDbEntity
8
PERIMETER
100
AcDbLine
10
81.921586481048166
20
-31.25664126844849
30
0
11
77.298350454863183
21
-31.25664126843164
31
0
0
ARC
5
15A
100
AcDbEntity
8
PERIMETER
100
AcDbCircle
10
77.29835045487232
20
-28.756641268437107
30
0
40
2.4999999999999911
210
0
220
0
230
1
100
AcDbArc
50
180
51
269.99999999979059
0
LINE
5
15B
100
AcDbEntity
8
PERIMETER
100
AcDbLine
10
74.79835045487232
20
-28.75664126842798
30
0
11
74.798350454876029
21
-26.463627001378313
31
0
0
ARC
5
15C
100
AcDbEntity
8
PERIMETER
100
AcDbCircle
10
74.070666471111394
20
-26.463627001378313
30
0
40
0.72768398376462429
210
0
220
-0
230
1
100
AcDbArc
50
0
51
90
0
LINE
5
15D
100
AcDbEntity
8
PERIMETER
100
AcDbLine
10
74.070666471111394
20
-25.735943017613682
30
0
11
38.511871253881097
21
-25.735943017613678
31
0
0
ARC
5
15E
100
AcDbEntity
8
PERIMETER
100
AcDbCircle
10
38.51187125388109
20
-26.235943017613678
30
0
40
0.49999999999999822
210
0
220
-0
230
1
100
AcDbArc
50
90
51
180
0
LINE
5
15F
100
AcDbEntity
8
PERIMETER
100
AcDbLine
10
38.011871253881097
20
-26.235943017613678
30
0
11
38.011871253881097
21
-31.761775290202312
31
0
0
ARC
5
160
100
AcDbEntity
8
PERIMETER
100
AcDbCircle
10
36.511871253882468
20
-31.761775290202323
30
0
40
1.4999999999986224
210
-0
220
0
230
1
100
AcDbArc
50
-90
51
0
0
LINE
5
161
100
AcDbEntity
8
PERIMETER
100
AcDbLine
10
36.511871253882468
20
-33.261775290200937
30
0
11
19.846385749902289
21
-33.261775290200944
31
0
0
ARC
5
162
100
AcDbEntity
8
PERIMETER
100
AcDbCircle
10
19.846385749902289
20
-33.761775290200944
30
0
40
0.49999999999999378
210
0
220
-0
230
1
100
AcDbArc
50
90
51
180
0
LINE
5
163
100
AcDbEntity
8
PERIMETER
100
AcDbLine
10
19.346385749902296
20
-33.761775290200937
30
0
11
19.346385749902304
21
-37.380250554489635
31
0
0
ARC
5
164
100
AcDbEntity
8
PERIMETER
100
AcDbCircle
10
17.846385749902296
20
-37.380250554489628
30
0
40
1.5000000000000036
210
0
220
0
230
1
100
AcDbArc
50
269.9999999999996
51
360
0
LINE
5
165
100
AcDbEntity
8
PERIMETER
100
AcDbLine
10
17.846385749902286
20
-38.880250554489628
30
0
11
10.950546318643344
21
-38.880250554489621
31
0
0
ARC
5
166
100
AcDbEntity
8
PERIMETER
100
AcDbCircle
10
10.95054631864337
20
-37.380250554489642
30
0
40
1.4999999999999858
210
0
220
0
230
1
100
AcDbArc
50
180
51
269.99999999999898
0
LINE
5
167
100
AcDbEntity
8
PERIMETER
100
AcDbLine
10
9.4505463186433847
20
-37.380250554489635
30
0
11
9.4505463186433936
21
-33.761775290200745
31
0
0
ARC
5
168
100
AcDbEntity
8
PERIMETER
100
AcDbCircle
10
8.9505463186433953
20
-33.761775290200745
30
0
40
0.49999999999999822
210
0
220
-0
230
1
100
AcDbArc
50
0
51
90
0
LINE
5
169
100
AcDbEntity
8
PERIMETER
100
AcDbLine
10
8.9505463186433953
20
-33.261775290200745
30
0
11
6.7280540901949859
21
-33.261775290200731
31
0
0
ARC
5
16A
100
AcDbEntity
8
PERIMETER
100
AcDbCircle
10
6.728054090193929
20
-102.09869427498518
30
0
40
68.836918984784447
210
0
220
-0
230
1
100
AcDbArc
50
89.999999999999119
51
137.68216000008167
0
ARC
5
16B
100
AcDbEntity
8
PERIMETER
100
AcDbCircle
10
-43.721792335267949
20
-56.164143442836135
30
0
40
0.60811301176470833
210
0
220
0
230
1
100
AcDbArc
50
137.68216000008232
51
226.93209102560937
0
LINE
5
16C
100
AcDbEntity
8
PERIMETER
100
AcDbLine
10
-44.137051248855514
20
-56.608397277668914
30
0
11
-43.474407111370027
21
-57.227792909292333
31
0
0
LINE
5
16D
100
AcDbEntity
8
PERIMETER
100
AcDbLine
10
-43.474407111370027
20
-57.227792909292333
30
0
11
-41.149013472393975
21
-59.566457128367048
31
0
0
ARC
5
16E
100
AcDbEntity
8
PERIMETER
100
AcDbCircle
10
-42.141372974607698
20
-59.913955006465294
30
0
40
1.0514428928461141
210
-0
220
0
230
1
100
AcDbArc
50
-45
51
19.298895425316029
0
LINE
5
16F
100
AcDbEntity
8
PERIMETER
100
AcDbLine
10
-41.397890575045807
20
-60.657437406027185
30
0
11
-45.034172051432307
21
-64.293718882413714
31
0
0
ARC
5
170
100
AcDbEntity
8
PERIMETER
100
AcDbCircle
10
-46.801939004398662
20
-62.52595192944738
30
0
40
2.4999999999999698
210
0
220
0
230
1
100
AcDbArc
50
225.00000000000057
51
315.00000000000011
0
LINE
5
171
100
AcDbEntity
8
PERIMETER
100
AcDbLine
10
-48.569705957364988
20
-64.293718882413742
30
0
11
-82.120816152094051
21
-30.866515469799101
31
0
0
ARC
5
172
100
AcDbEntity
8
PERIMETER
100
AcDbCircle
10
-79.717410382063917
20
-28.530855971211437
30
0
40
3.3513675699267722
210
0
220
0
230
1
100
AcDbArc
50
135.0000000002031
51
224.18099649671848
0
LINE
5
173
100
AcDbEntity
8
PERIMETER
100
AcDbLine
10
-82.087185117016219
20
-26.161081236275933
30
0
11
-81.187067924403792
21
-25.260964043648933
31
0
0
ARC
5
174
100
AcDbEntity
8
PERIMETER
100
AcDbCircle
10
-78.682881422594164
20
-27.765150545440829
30
0
40
3.541454513555637
210
0
220
-0
230
1
100
AcDbArc
50
46.150708528989099
51
135.00000000020296
0
LINE
5
175
100
AcDbEntity
8
PERIMETER
100
AcDbLine
10
-76.229489770247085
20
-25.2111792316283
30
0
11
-75.045939265691786
21
-26.348119538008774
31
0
0
ARC
5
176
100
AcDbEntity
8
PERIMETER
100
AcDbCircle
10
-74.645735079743815
20
-25.931508513182848
30
0
40
0.57769207754372065
210
0
220
0
230
1
100
AcDbArc
50
226.15070852912567
51
315.64692213485648
0
ARC
5
177
100
AcDbEntity
8
PERIMETER
100
AcDbCircle
10
5.7759728810976885
20
-104.55734683564783
30
0
40
111.89307551675377
210
0
220
0
230
1
100
AcDbArc
50
131.14689416434103
51
135.64692213523949
0
ARC
5
178
100
AcDbEntity
8
PERIMETER
100
AcDbCircle
10
-68.835739308344799
20
-19.169514099900141
30
0
40
1.5000000000000033
210
-0
220
0
230
1
100
AcDbArc
50
311.14689416434021
51
360
0
LINE
5
179
100
AcDbEntity
8
PERIMETER
100
AcDbLine
10
-67.335739308344799
20
-19.169514099900155
30
0
11
-67.335739308344799
21
-14.312055072682526
31
0
0
ARC
5
17A
100
AcDbEntity
8
PERIMETER
100
AcDbCircle
10
-69.835739294479652
20
-14.312055077710941
30
0
40
2.4999999861348599
210
0
220
-0
230
1
100
AcDbArc
50
0
51
135.00000000000037
0
LINE
5
17B
100
AcDbEntity
8
PERIMETER
100
AcDbLine
10
-71.603506237641895
20
-12.544288134548715
30
0
11
-77.662662239395118
21
-18.603444129190798
31
0
0
LINE
5
17C
100
AcDbEntity
8
PERIMETER
100
AcDbLine
10
-77.662662239395118
20
-18.603444129190798
30
0
11
-87.579838720680868
21
-28.520620676317712
31
0
0
ARC
5
17D
100
AcDbEntity
8
PERIMETER
100
AcDbCircle
10
-83.690750152684075
20
-32.409709244314421
30
0
40
5.5000017981311604
210
0
220
0
230
1
100
AcDbArc
50
135.00000000000063
51
225.00000000000063
0
LINE
5
17E
100
AcDbEntity
8
PERIMETER
100
AcDbLine
10
-87.579838720680783
20
-36.298797812311207
30
0
11
-54.27510618963025
21
-69.603528442301922
31
0
0
ARC
5
17F
100
AcDbEntity
8
PERIMETER
100
AcDbCircle
10
-50.386016329892449
20
-65.714438582564043
30
0
40
5.5000036249289224
210
0
220
0
230
1
100
AcDbArc
50
225.00000000000057
51
314.99972808084289
0
ARC
5
180
100
AcDbEntity
8
PERIMETER
100
AcDbCircle
10
15.868504131004189
20
-131.96958791907386
30
0
40
88.198482462661133
210
0
220
-0
230
1
100
AcDbArc
50
87.305796857744028
51
134.99972808083686
0
ENDSEC
0
SECTION
2
OBJECTS
0
DICTIONARY
5
C
100
AcDbDictionary
3
ACAD_GROUP
350
D
3
ACAD_MLINESTYLE
350
17
0
DICTIONARY
5
D
100
AcDbDictionary
0
DICTIONARY
5
1A
330
C
100
AcDbDictionary
0
DICTIONARY
5
17
100
AcDbDictionary
0
ENDSEC
0
EOF
