0
SECTION
2
HEADER
9
$INSUNITS
70
4
9
$ACADVER
1
AC1014
9
$HANDSEED
5
FFFF
0
ENDSEC
0
SECTION
2
TABLES
0
TABLE
2
VPORT
5
8
100
AcDbSymbolTable
0
ENDTAB
0
TABLE
2
LTYPE
5
5
100
AcDbSymbolTable
70
2
0
LTYPE
5
14
100
AcDbSymbolTableRecord
100
AcDbLinetypeTableRecord
2
BYBLOCK
70
0
0
LTYPE
5
15
100
AcDbSymbolTableRecord
100
AcDbLinetypeTableRecord
2
BYLAYER
70
0
0
ENDTAB
0
TABLE
2
LAYER
5
2
100
AcDbSymbolTable
70
3
0
LAYER
5
50
100
AcDbSymbolTableRecord
100
AcDbLayerTableRecord
2
0
70
0
6
CONTINUOUS
0
LAYER
5
51
100
AcDbSymbolTableRecord
100
AcDbLayerTableRecord
2
CUTOUTS
70
0
62
1
6
CONTINUOUS
0
LAYER
5
52
100
AcDbSymbolTableRecord
100
AcDbLayerTableRecord
2
PERIMETER
70
0
62
5
6
CONTINUOUS
0
ENDTAB
0
TABLE
2
STYLE
5
3
100
AcDbSymbolTable
70
1
0
STYLE
5
11
100
AcDbSymbolTableRecord
100
AcDbTextStyleTableRecord
2
STANDARD
70
0
0
ENDTAB
0
TABLE
2
VIEW
5
6
100
AcDbSymbolTable
0
ENDTAB
0
TABLE
2
UCS
5
7
100
AcDbSymbolTable
0
ENDTAB
0
TABLE
2
APPID
5
9
100
AcDbSymbolTable
70
1
0
APPID
5
12
100
AcDbSymbolTableRecord
100
AcDbRegAppTableRecord
2
ACAD
70
0
0
ENDTAB
0
TABLE
2
DIMSTYLE
5
A
100
AcDbSymbolTable
0
ENDTAB
0
TABLE
2
BLOCK_RECORD
5
1
100
AcDbSymbolTable
70
2
0
BLOCK_RECORD
5
1F
100
AcDbSymbolTableRecord
100
AcDbBlockTableRecord
2
*MODEL_SPACE
0
BLOCK_RECORD
5
1B
100
AcDbSymbolTableRecord
100
AcDbBlockTableRecord
2
*PAPER_SPACE
0
ENDTAB
0
ENDSEC
0
SECTION
2
BLOCKS
0
BLOCK
5
20
100
AcDbEntity
100
AcDbBlockBegin
2
*MODEL_SPACE
0
ENDBLK
5
21
100
AcDbEntity
100
AcDbBlockEnd
0
BLOCK
5
1C
100
AcDbEntity
100
AcDbBlockBegin
2
*PAPER_SPACE
0
ENDBLK
5
1D
100
AcDbEntity
100
AcDbBlockEnd
0
ENDSEC
0
SECTION
2
ENTITIES
0
ARC
5
100
100
AcDbEntity
8
CUTOUTS
100
AcDbCircle
10
45.161818435975164
20
28.821067771258441
30
0
40
0.99999999999999645
210
0
220
0
230
1
100
AcDbArc
50
180
51
270
0
LINE
5
101
100
AcDbEntity
8
CUTOUTS
100
AcDbLine
10
44.161818435975192
20
38.821067771257773
30
0
11
44.161818435975171
21
28.821067771258441
31
0
0
ARC
5
102
100
AcDbEntity
8
CUTOUTS
100
AcDbCircle
10
43.161818435975192
20
38.821067771257773
30
0
40
0.99999999999999645
210
0
220
-0
230
1
100
AcDbArc
50
0
51
90
0
LINE
5
103
100
AcDbEntity
8
CUTOUTS
100
AcDbLine
10
26.111818435975181
20
39.821067771257802
30
0
11
43.161818435975192
21
39.821067771257773
31
0
0
ARC
5
104
100
AcDbEntity
8
CUTOUTS
100
AcDbCircle
10
26.111818435975181
20
40.821067771257802
30
0
40
0.99999999999999201
210
0
220
0
230
1
100
AcDbArc
50
180
51
270
0
LINE
5
105
100
AcDbEntity
8
CUTOUTS
100
AcDbLine
10
25.111818435975199
20
44.821067771258413
30
0
11
25.111818435975191
21
40.821067771257802
31
0
0
ARC
5
106
100
AcDbEntity
8
CUTOUTS
100
AcDbCircle
10
24.111818435975199
20
44.821067771258413
30
0
40
1.0000000000000009
210
0
220
-0
230
1
100
AcDbArc
50
0
51
90.000000000000199
0
LINE
5
107
100
AcDbEntity
8
CUTOUTS
100
AcDbLine
10
5.0618184359752494
20
45.821067771258441
30
0
11
24.111818435975195
21
45.821067771258406
31
0
0
ARC
5
108
100
AcDbEntity
8
CUTOUTS
100
AcDbCircle
10
5.0618184359752494
20
44.821067771258441
30
0
40
0.99999999999999645
210
0
220
-0
230
1
100
AcDbArc
50
90
51
180
0
LINE
5
109
100
AcDbEntity
8
CUTOUTS
100
AcDbLine
10
4.0618184359752352
20
40.321067771258413
30
0
11
4.0618184359752529
21
44.821067771258441
31
0
0
ARC
5
10A
100
AcDbEntity
8
CUTOUTS
100
AcDbCircle
10
3.0618184359752298
20
40.321067771258413
30
0
40
1.0000000000000053
210
-0
220
0
230
1
100
AcDbArc
50
-90
51
0
0
LINE
5
10B
100
AcDbEntity
8
CUTOUTS
100
AcDbLine
10
-13.988181564024744
20
39.321067771258456
30
0
11
3.0618184359752298
21
39.321067771258413
31
0
0
ARC
5
10C
100
AcDbEntity
8
CUTOUTS
100
AcDbCircle
10
-13.988181564024744
20
38.321067771258456
30
0
40
0.99999999999999645
210
0
220
-0
230
1
100
AcDbArc
50
90
51
180
0
LINE
5
10D
100
AcDbEntity
8
CUTOUTS
100
AcDbLine
10
-14.98818156402475
20
37.821067771258456
30
0
11
-14.988181564024741
21
38.321067771258456
31
0
0
ARC
5
10E
100
AcDbEntity
8
CUTOUTS
100
AcDbCircle
10
-15.988181564024746
20
37.821067771258456
30
0
40
0.99999999999999645
210
-0
220
0
230
1
100
AcDbArc
50
-90
51
0
0
LINE
5
10F
100
AcDbEntity
8
CUTOUTS
100
AcDbLine
10
-32.788181564024782
20
36.821067771258456
30
0
11
-15.988181564024746
21
36.821067771258456
31
0
0
ARC
5
110
100
AcDbEntity
8
CUTOUTS
100
AcDbCircle
10
-32.788181564024782
20
35.821067771258456
30
0
40
0.99999999999999645
210
0
220
-0
230
1
100
AcDbArc
50
90
51
180
0
LINE
5
111
100
AcDbEntity
8
CUTOUTS
100
AcDbLine
10
-33.788181564024811
20
-5.9726736019180215
30
0
11
-33.788181564024775
21
35.821067771258456
31
0
0
ARC
5
112
100
AcDbEntity
8
CUTOUTS
100
AcDbCircle
10
-34.788181564024839
20
-5.9726736019180127
30
0
40
0.99999999999999312
210
-0
220
0
230
1
100
AcDbArc
50
291.98063710675279
51
360
0
ARC
5
113
100
AcDbEntity
8
CUTOUTS
100
AcDbCircle
10
7.3009271030942458
20
-110.24831797223415
30
0
40
111.4495579237073
210
0
220
0
230
1
100
AcDbArc
50
111.98063710675243
51
135.00000000000017
0
LINE
5
114
100
AcDbEntity
8
CUTOUTS
100
AcDbLine
10
-78.24100315580398
20
-38.176771894939833
30
0
11
-71.505811065002334
21
-31.441579804138001
31
0
0
ARC
5
115
100
AcDbEntity
8
CUTOUTS
100
AcDbCircle
10
-77.533896374617441
20
-38.883878676126358
30
0
40
0.99999999999998546
210
0
220
0
230
1
100
AcDbArc
50
135.0000000000006
51
224.99999999999943
0
LINE
5
116
100
AcDbEntity
8
CUTOUTS
100
AcDbLine
10
-51.300234792596164
20
-66.531753820520677
30
0
11
-78.24100315580398
21
-39.590985457312883
31
0
0
ARC
5
117
100
AcDbEntity
8
CUTOUTS
100
AcDbCircle
10
-50.593128011409618
20
-65.824647039334124
30
0
40
0.999999999999998
210
0
220
0
230
1
100
AcDbArc
50
225.00000000000028
51
314.99999999999972
0
LINE
5
118
100
AcDbEntity
8
CUTOUTS
100
AcDbLine
10
-43.150829139421418
20
-59.796561729718611
30
0
11
-49.886021230223072
21
-66.531753820520677
31
0
0
ARC
5
119
100
AcDbEntity
8
CUTOUTS
100
AcDbCircle
10
7.3009271030942458
20
-110.24831797223415
30
0
40
71.349557923707081
210
0
220
-0
230
1
100
AcDbArc
50
89.999999999999972
51
135.00000000000009
0
LINE
5
11A
100
AcDbEntity
8
CUTOUTS
100
AcDbLine
10
35.875927103094256
20
-38.898760048527137
30
0
11
7.3009271030942635
21
-38.898760048527066
31
0
0
ARC
5
11B
100
AcDbEntity
8
CUTOUTS
100
AcDbCircle
10
35.875927103094256
20
-37.898760048527137
30
0
40
1.0000000000000009
210
-0
220
0
230
1
100
AcDbArc
50
-90
51
0
0
LINE
5
11C
100
AcDbEntity
8
CUTOUTS
100
AcDbLine
10
36.875927103094298
20
-20.328932228741539
30
0
11
36.875927103094256
21
-37.898760048527137
31
0
0
ARC
5
11D
100
AcDbEntity
8
CUTOUTS
100
AcDbCircle
10
37.875927103094298
20
-20.328932228741543
30
0
40
0.99999999999999867
210
0
220
-0
230
1
100
AcDbArc
50
89.999999999999588
51
180
0
LINE
5
11E
100
AcDbEntity
8
CUTOUTS
100
AcDbLine
10
41.161818435975221
20
-19.32893222874155
30
0
11
37.875927103094305
21
-19.328932228741543
31
0
0
ARC
5
11F
100
AcDbEntity
8
CUTOUTS
100
AcDbCircle
10
41.161818435975221
20
-20.32893222874155
30
0
40
1.0000000000000053
210
0
220
0
230
1
100
AcDbArc
50
0
51
90
0
LINE
5
120
100
AcDbEntity
8
CUTOUTS
100
AcDbLine
10
42.161818435975192
20
-30.328942228741465
30
0
11
42.161818435975214
21
-20.328932228741547
31
0
0
ARC
5
121
100
AcDbEntity
8
CUTOUTS
100
AcDbCircle
10
43.161818435975199
20
-30.328942228741468
30
0
40
1.0000000000000053
210
0
220
0
230
1
100
AcDbArc
50
180
51
270.0000000000004
0
LINE
5
122
100
AcDbEntity
8
CUTOUTS
100
AcDbLine
10
81.261818435975073
20
-31.32894222874156
30
0
11
43.161818435975206
21
-31.328942228741468
31
0
0
ARC
5
123
100
AcDbEntity
8
CUTOUTS
100
AcDbCircle
10
81.261818435975073
20
-30.328942228741553
30
0
40
1.0000000000000009
210
-0
220
0
230
1
100
AcDbArc
50
-90
51
0
0
LINE
5
124
100
AcDbEntity
8
CUTOUTS
100
AcDbLine
10
82.261818435975187
20
26.821067771258384
30
0
11
82.261818435975073
21
-30.328942228741553
31
0
0
ARC
5
125
100
AcDbEntity
8
CUTOUTS
100
AcDbCircle
10
81.261818435975201
20
26.821067771258384
30
0
40
0.99999999999999645
210
0
220
-0
230
1
100
AcDbArc
50
0
51
90
0
LINE
5
126
100
AcDbEntity
8
CUTOUTS
100
AcDbLine
10
45.161818435975164
20
27.821067771258441
30
0
11
81.261818435975201
21
27.821067771258381
31
0
0
CIRCLE
5
127
100
AcDbEntity
8
CUTOUTS
100
AcDbCircle
10
-70.538181564024839
20
10.768185803323247
30
0
40
2.2499999999999964
210
0
220
0
230
1
0
CIRCLE
5
128
100
AcDbEntity
8
CUTOUTS
100
AcDbCircle
10
-59.28139587911172
20
36.448904285568169
30
0
40
2.2499999999999964
210
0
220
0
230
1
0
CIRCLE
5
129
100
AcDbEntity
8
CUTOUTS
100
AcDbCircle
10
-70.538181564024441
20
-25.030036879442996
30
0
40
2.2499999999999964
210
0
220
0
230
1
0
CIRCLE
5
12A
100
AcDbEntity
8
CUTOUTS
100
AcDbCircle
10
-83.672983671143854
20
-38.883878676126557
30
0
40
2.2499999999999964
210
0
220
0
230
1
0
CIRCLE
5
12B
100
AcDbEntity
8
CUTOUTS
100
AcDbCircle
10
-50.59312801140932
20
-71.963734335860025
30
0
40
2.2499999999999964
210
0
220
0
230
1
0
CIRCLE
5
12C
100
AcDbEntity
8
CUTOUTS
100
AcDbCircle
10
85.951257382717159
20
29.995125293691302
30
0
40
2.2499999999999964
210
0
220
0
230
1
0
CIRCLE
5
12D
100
AcDbEntity
8
CUTOUTS
100
AcDbCircle
10
28.314806264137218
20
-44.018864544047247
30
0
40
2.2500000000000009
210
0
220
0
230
1
0
CIRCLE
5
12E
100
AcDbEntity
8
CUTOUTS
100
AcDbCircle
10
-30.880397003725975
20
46.26617418736388
30
0
40
2.2499999999999964
210
0
220
0
230
1
0
CIRCLE
5
12F
100
AcDbEntity
8
CUTOUTS
100
AcDbCircle
10
85.982951036359836
20
-34.891818221969785
30
0
40
2.2499999999999964
210
0
220
0
230
1
0
CIRCLE
5
130
100
AcDbEntity
8
CUTOUTS
100
AcDbCircle
10
-80.253893331183974
20
-35.255669929838064
30
0
40
2.2499999999999964
210
0
220
0
230
1
0
CIRCLE
5
131
100
AcDbEntity
8
CUTOUTS
100
AcDbCircle
10
-47.155873742144664
20
-68.537973017782591
30
0
40
2.2499999999999964
210
0
220
0
230
1
0
CIRCLE
5
132
100
AcDbEntity
8
CUTOUTS
100
AcDbCircle
10
14.18241158767966
20
-42.688294075019598
30
0
40
2.2500000000000009
210
0
220
0
230
1
0
CIRCLE
5
133
100
AcDbEntity
8
CUTOUTS
100
AcDbCircle
10
80.930711082023592
20
-34.935666409277417
30
0
40
2.2499999999999964
210
0
220
0
230
1
0
CIRCLE
5
134
100
AcDbEntity
8
CUTOUTS
100
AcDbCircle
10
81.294565949416935
20
33.06581962518122
30
0
40
2.2499999999999964
210
0
220
0
230
1
0
CIRCLE
5
135
100
AcDbEntity
8
CUTOUTS
100
AcDbCircle
10
-25.555796255913819
20
47.069775689413198
30
0
40
2.2499999999999964
210
0
220
0
230
1
0
ARC
5
136
100
AcDbEntity
8
CUTOUTS
100
AcDbCircle
10
-70.450720765064702
20
14.429712925830644
30
0
40
1.0000000000039557
210
0
220
0
230
1
100
AcDbArc
50
180.06726902038292
51
270.10643563410946
0
LINE
5
137
100
AcDbEntity
8
CUTOUTS
100
AcDbLine
10
-69.908447421384977
20
13.43071855685157
30
0
11
-70.448863113876456
21
13.429714651262143
31
0
0
ARC
5
138
100
AcDbEntity
8
CUTOUTS
100
AcDbCircle
10
-69.910305072573195
20
14.430716831416088
30
0
40
0.99999999999997469
210
-0
220
0
230
1
100
AcDbArc
50
-89.89356436589172
51
0.066849021938085146
0
LINE
5
139
100
AcDbEntity
8
CUTOUTS
100
AcDbLine
10
-68.927030453072973
20
28.766487881957381
30
0
11
-68.910305753209045
21
14.431883566686015
31
0
0
ARC
5
13A
100
AcDbEntity
8
CUTOUTS
100
AcDbCircle
10
-66.927031814344659
20
28.768821352497234
30
0
40
1.9999999999999636
210
0
220
0
230
1
100
AcDbArc
50
117.24359266088467
51
180.06684902193808
0
LINE
5
13B
100
AcDbEntity
8
CUTOUTS
100
AcDbLine
10
-62.075445817728635
20
33.516411765733579
30
0
11
-67.842580802765738
21
30.546958031664779
31
0
0
ARC
5
13C
100
AcDbEntity
8
CUTOUTS
100
AcDbCircle
10
-62.533220311939175
20
34.405480105317366
30
0
40
1.0000000000000013
210
-0
220
0
230
1
100
AcDbArc
50
-62.756407339115704
51
27.243592660884097
0
LINE
5
13D
100
AcDbEntity
8
CUTOUTS
100
AcDbLine
10
-61.891540919502773
20
35.343721910951629
30
0
11
-61.644151972355381
21
34.863254599527906
31
0
0
ARC
5
13E
100
AcDbEntity
8
CUTOUTS
100
AcDbCircle
10
-62.78060925908656
20
34.885947416741047
30
0
40
1.0000000000000218
210
0
220
-0
230
1
100
AcDbArc
50
27.243592660886474
51
117.24359266088631
0
LINE
5
13F
100
AcDbEntity
8
CUTOUTS
100
AcDbLine
10
-70.11345110617917
20
32.235096112349567
30
0
11
-63.238383753297143
21
35.775015756324848
31
0
0
ARC
5
140
100
AcDbEntity
8
CUTOUTS
100
AcDbCircle
10
-68.969014870652771
20
30.012425263390128
30
0
40
2.4999999999999849
210
0
220
0
230
1
100
AcDbArc
50
117.24359266088562
51
180.06726902038292
0
LINE
5
141
100
AcDbEntity
8
CUTOUTS
100
AcDbLine
10
-71.450720075853383
20
14.42853886021005
30
0
11
-71.469013147614561
21
30.009490099338649
31
0
0
ARC
5
142
100
AcDbEntity
8
CUTOUTS
100
AcDbCircle
10
-40.074440336316442
20
-62.806267232896744
30
0
40
1.0000000000000027
210
0
220
0
230
1
100
AcDbArc
50
130.94827301882748
51
226.47716602141907
0
LINE
5
143
100
AcDbEntity
8
CUTOUTS
100
AcDbLine
10
-39.499758081552926
20
-64.731175918421386
30
0
11
-40.763083939414066
21
-63.531367217666244
31
0
0
ARC
5
144
100
AcDbEntity
8
CUTOUTS
100
AcDbCircle
10
-38.811114478455337
20
-64.006075933651942
30
0
40
0.99999999999993927
210
0
220
0
230
1
100
AcDbArc
50
226.4771660214183
51
308.63607526332163
0
ARC
5
145
100
AcDbEntity
8
CUTOUTS
100
AcDbCircle
10
12.366522549380816
20
-128.03247213618275
30
0
40
80.966639204229963
210
0
220
0
230
1
100
AcDbArc
50
93.276803647141818
51
128.63607526331862
0
ARC
5
146
100
AcDbEntity
8
CUTOUTS
100
AcDbCircle
10
7.6813224981695161
20
-46.19984512887882
30
0
40
0.99999999999995992
210
-0
220
0
230
1
100
AcDbArc
50
-86.723196352858892
51
0
0
LINE
5
147
100
AcDbEntity
8
CUTOUTS
100
AcDbLine
10
8.6813224981695125
20
-42.845480165682872
30
0
11
8.6813224981694859
21
-46.199845128878806
31
0
0
ARC
5
148
100
AcDbEntity
8
CUTOUTS
100
AcDbCircle
10
8.1813224981695143
20
-42.845480165682865
30
0
40
0.49999999999999822
210
-0
220
0
230
1
100
AcDbArc
50
0
51
92.958723501300625
0
ARC
5
149
100
AcDbEntity
8
CUTOUTS
100
AcDbCircle
10
12.334802323928997
20
-123.20624863503329
30
0
40
80.968034048605531
210
0
220
0
230
1
100
AcDbArc
50
92.958723501301492
51
130.94827301882663
0
ARC
5
14A
100
AcDbEntity
8
CUTOUTS
100
AcDbCircle
10
-18.782188393046802
20
48.310783831467958
30
0
40
1.0000000000000351
210
0
220
0
230
1
100
AcDbArc
50
99.606462508489642
51
189.93247868127222
0
LINE
5
14B
100
AcDbEntity
8
CUTOUTS
100
AcDbLine
10
-19.672423805126151
20
47.597064274681273
30
0
11
-19.767200101217313
21
48.138296339842796
31
0
0
ARC
5
14C
100
AcDbEntity
8
CUTOUTS
100
AcDbCircle
10
-18.687412096955658
20
47.769551766306492
30
0
40
1.0000000000000542
210
0
220
0
230
1
100
AcDbArc
50
189.93247868127574
51
279.64140862718881
0
ARC
5
14D
100
AcDbEntity
8
CUTOUTS
100
AcDbCircle
10
8.3861768163597983
20
-111.59857748332894
30
0
40
160.65141458451788
210
0
220
-0
230
1
100
AcDbArc
50
65.185417664442966
51
99.641408627193897
0
ARC
5
14E
100
AcDbEntity
8
CUTOUTS
100
AcDbCircle
10
76.228544755359806
20
35.127674256450128
30
0
40
0.99999999999999534
210
0
220
0
230
1
100
AcDbArc
50
245.18541766443968
51
334.32318431816219
0
LINE
5
14F
100
AcDbEntity
8
CUTOUTS
100
AcDbLine
10
77.340484962243721
20
35.132610408888439
30
0
11
77.129797179884974
21
34.69437982158226
31
0
0
ARC
5
150
100
AcDbEntity
8
CUTOUTS
100
AcDbCircle
10
76.439232537718482
20
35.565904843756321
30
0
40
1.0000000000000346
210
-0
220
0
230
1
100
AcDbArc
50
-25.676815681837116
51
65.146684037225938
0
ARC
5
151
100
AcDbEntity
8
CUTOUTS
100
AcDbCircle
10
8.2804487202979704
20
-111.58345401427229
30
0
40
163.16828797209016
210
0
220
-0
230
1
100
AcDbArc
50
65.146684037227502
51
99.606462508486999
0
ARC
5
152
100
AcDbEntity
8
CUTOUTS
100
AcDbCircle
10
-53.230592797718344
20
-69.314470283058199
30
0
40
0.99999999999998246
210
-0
220
0
230
1
100
AcDbArc
50
-44.894005579013566
51
45.081064846771149
0
LINE
5
153
100
AcDbEntity
8
CUTOUTS
100
AcDbLine
10
-80.342894081356505
20
-40.866563350368679
30
0
11
-52.52448717289699
21
-68.606363760989936
31
0
0
ARC
5
154
100
AcDbEntity
8
CUTOUTS
100
AcDbCircle
10
-81.048999706192845
20
-41.574669872451949
30
0
40
1.0000000000211813
210
0
220
-0
230
1
100
AcDbArc
50
45.081064846769998
51
135.07346632838136
0
LINE
5
155
100
AcDbEntity
8
CUTOUTS
100
AcDbLine
10
-82.133533266081415
20
-41.24595784440929
30
0
11
-81.757012578911571
21
-40.868470345330238
31
0
0
ARC
5
156
100
AcDbEntity
8
CUTOUTS
100
AcDbCircle
10
-81.425520393276187
20
-41.952157371617247
30
0
40
1.0000000001433216
210
0
220
0
230
1
100
AcDbArc
50
135.07346632838309
51
225.0704885480377
0
LINE
5
157
100
AcDbEntity
8
CUTOUTS
100
AcDbLine
10
-54.318253801305772
20
-70.405284984225261
30
0
11
-82.131756716425969
21
-42.660133540814016
31
0
0
ARC
5
158
100
AcDbEntity
8
CUTOUTS
100
AcDbCircle
10
-53.612017478197572
20
-69.697308815129873
30
0
40
1.0000000000421825
210
0
220
0
230
1
100
AcDbArc
50
225.07048854562208
51
315.10599442098686
0
LINE
5
159
100
AcDbEntity
8
CUTOUTS
100
AcDbLine
10
-52.522179113904869
20
-70.020267741672043
30
0
11
-52.903603794354183
21
-70.403106273773503
31
0
0
ARC
5
15A
100
AcDbEntity
8
CUTOUTS
100
AcDbCircle
10
86.885823192996682
20
-29.073548987663468
30
0
40
0.99999999999998068
210
-0
220
0
230
1
100
AcDbArc
50
-89.894005579013722
51
0.072099095137449637
0
LINE
5
15B
100
AcDbEntity
8
CUTOUTS
100
AcDbLine
10
87.818902450192411
20
24.10769353436411
30
0
11
87.885822401253506
21
-29.072290621397698
31
0
0
ARC
5
15C
100
AcDbEntity
8
CUTOUTS
100
AcDbCircle
10
86.818903241933754
20
24.106435168098344
30
0
40
1.0000000000017999
210
0
220
-0
230
1
100
AcDbArc
50
0.072099095137449637
51
90.105994420985297
0
LINE
5
15D
100
AcDbEntity
8
CUTOUTS
100
AcDbLine
10
86.276637591147875
20
25.105433712889678
30
0
11
86.817053291354
21
25.106433456940103
31
0
0
ARC
5
15E
100
AcDbEntity
8
CUTOUTS
100
AcDbCircle
10
86.278487541727671
20
24.105435424049688
30
0
40
1.0000000000000295
210
0
220
0
230
1
100
AcDbArc
50
90.105994420987102
51
180.07209909515768
0
LINE
5
15F
100
AcDbEntity
8
CUTOUTS
100
AcDbLine
10
85.345408284544334
20
-29.075807097978309
30
0
11
85.278488333470776
21
24.104177057783446
31
0
0
ARC
5
160
100
AcDbEntity
8
CUTOUTS
100
AcDbCircle
10
86.345407492790514
20
-29.074548731712092
30
0
40
0.99999999998931288
210
0
220
0
230
1
100
AcDbArc
50
180.07209909515768
51
270.10599442098578
0
LINE
5
161
100
AcDbEntity
8
CUTOUTS
100
AcDbLine
10
86.88767314357645
20
-30.073547276503412
30
0
11
86.347257443370268
21
-30.074547020541367
31
0
0
ARC
5
162
100
AcDbEntity
8
CUTOUTS
100
AcDbCircle
10
-69.564206541140905
20
-20.191764083220157
30
0
40
0.4999999999999889
210
0
220
-0
230
1
100
AcDbArc
50
44.099310924165103
51
134.09931092416451
0
LINE
5
163
100
AcDbEntity
8
CUTOUTS
100
AcDbLine
10
-69.20513920753821
20
-19.843812003273158
30
0
11
-68.533492110219754
21
-20.536914721305088
31
0
0
ARC
5
164
100
AcDbEntity
8
CUTOUTS
100
AcDbCircle
10
-68.892559443822392
20
-20.884866801252091
30
0
40
0.49999999999995381
210
-0
220
0
230
1
100
AcDbArc
50
0
51
44.099310924169927
0
LINE
5
165
100
AcDbEntity
8
CUTOUTS
100
AcDbLine
10
-68.392559443822435
20
-20.884866801252095
30
0
11
-68.392559443822435
21
-23.065504331853624
31
0
0
ARC
5
166
100
AcDbEntity
8
CUTOUTS
100
AcDbCircle
10
-68.642559443822435
20
-23.065504331853624
30
0
40
0.24999999999999956
210
0
220
0
230
1
100
AcDbArc
50
-132.50554056036984
51
0
0
ARC
5
167
100
AcDbEntity
8
CUTOUTS
100
AcDbCircle
10
-70.49084437198006
20
-25.082161836139992
30
0
40
2.4855190851553521
210
0
220
-0
230
1
100
AcDbArc
50
47.494459439627008
51
110.52184534286134
0
ARC
5
168
100
AcDbEntity
8
CUTOUTS
100
AcDbCircle
10
-70.514760774279324
20
-25.018268786843414
30
0
40
2.4172965372158766
210
0
220
0
230
1
100
AcDbArc
50
110.52184534286098
51
263.40843742679147
0
ARC
5
169
100
AcDbEntity
8
CUTOUTS
100
AcDbCircle
10
-70.820942049135027
20
-27.667933641947087
30
0
40
0.2500000000000186
210
-0
220
0
230
1
100
AcDbArc
50
-45.900689075831949
51
83.408437426781859
0
LINE
5
16A
100
AcDbEntity
8
CUTOUTS
100
AcDbLine
10
-70.646966009161503
20
-27.847467308748442
30
0
11
-73.976134012984943
21
-31.073577909789812
31
0
0
ARC
5
16B
100
AcDbEntity
8
CUTOUTS
100
AcDbCircle
10
-74.672038172878942
20
-30.3554432425844
30
0
40
0.999999999999997
210
0
220
0
230
1
100
AcDbArc
50
226.150708528932
51
314.09931092416423
0
LINE
5
16C
100
AcDbEntity
8
CUTOUTS
100
AcDbLine
10
-75.364802019755629
20
-31.076607753955145
30
0
11
-77.705997438203156
21
-28.827612526373869
31
0
0
ARC
5
16D
100
AcDbEntity
8
CUTOUTS
100
AcDbCircle
10
-77.013233591326468
20
-28.106448015003117
30
0
40
1.0000000000000004
210
0
220
0
230
1
100
AcDbArc
50
134.09931092416397
51
226.15070852893228
0
LINE
5
16E
100
AcDbEntity
8
CUTOUTS
100
AcDbLine
10
-77.709137751220467
20
-27.388313347797698
30
0
11
-69.912158621087897
21
-19.832696749617458
31
0
0
LINE
5
16F
100
AcDbEntity
8
CUTOUTS
100
AcDbLine
10
74.099696574008917
20
-34.172040327967466
30
0
11
74.105673443607486
21
-36.52692694979612
31
0
0
ARC
5
170
100
AcDbEntity
8
CUTOUTS
100
AcDbCircle
10
73.105676664494268
20
-36.529465012687268
30
0
40
1.0000000000000198
210
-0
220
0
230
1
100
AcDbArc
50
-82.190552585664761
51
0.14542044792788689
0
ARC
5
171
100
AcDbEntity
8
CUTOUTS
100
AcDbCircle
10
82.828114712704377
20
-107.4180608622259
30
0
40
70.552210469841569
210
0
220
0
230
1
100
AcDbArc
50
97.809447414335281
51
110.52412069879556
0
ARC
5
172
100
AcDbEntity
8
CUTOUTS
100
AcDbCircle
10
27.996898928076387
20
55.042713088167154
30
0
40
100.97609053235149
210
-0
220
0
230
1
100
AcDbArc
50
272.51690314288095
51
287.3402628553448
0
ARC
5
173
100
AcDbEntity
8
CUTOUTS
100
AcDbCircle
10
32.387260981910558
20
-44.836931480529586
30
0
40
1.0000000000000073
210
0
220
0
230
1
100
AcDbArc
50
179.62842707466373
51
272.5169031428785
0
LINE
5
174
100
AcDbEntity
8
CUTOUTS
100
AcDbLine
10
31.387282010558032
20
-44.830446355029387
30
0
11
31.402991181044296
21
-42.408158591565069
31
0
0
ARC
5
175
100
AcDbEntity
8
CUTOUTS
100
AcDbCircle
10
32.402970152396776
20
-42.41464371706526
30
0
40
0.99999999999996436
210
0
220
0
230
1
100
AcDbArc
50
92.335499131653066
51
179.62842707466373
0
ARC
5
176
100
AcDbEntity
8
CUTOUTS
100
AcDbCircle
10
28.252177154447054
20
59.35854221637554
30
0
40
100.85779527142017
210
-0
220
0
230
1
100
AcDbArc
50
272.33549913165245
51
287.23179190980187
0
ARC
5
177
100
AcDbEntity
8
CUTOUTS
100
AcDbCircle
10
82.902151791202257
20
-103.03475795632531
30
0
40
70.554384440725329
210
0
220
0
230
1
100
AcDbArc
50
98.10179187145269
51
110.55496840665789
0
ARC
5
178
100
AcDbEntity
8
CUTOUTS
100
AcDbCircle
10
73.099699794895713
20
-34.17457839085862
30
0
40
1.0000000000000016
210
0
220
-0
230
1
100
AcDbArc
50
0.14542044793039316
51
98.101791871451766
0
ARC
5
179
100
AcDbEntity
8
CUTOUTS
100
AcDbCircle
10
-70.055278070737032
20
6.0361693652018467
30
0
40
1.0000000000196132
210
0
220
-0
230
1
100
AcDbArc
50
0.15836347059566067
51
90.103852395307541
0
LINE
5
17A
100
AcDbEntity
8
CUTOUTS
100
AcDbLine
10
-70.597506373183037
20
7.0351881821136963
30
0
11
-70.057090635978767
21
7.036167722523734
31
0
0
ARC
5
17B
100
AcDbEntity
8
CUTOUTS
100
AcDbCircle
10
-70.595693807941274
20
6.0351898248113933
30
0
40
1.0000000000000302
210
0
220
0
230
1
100
AcDbArc
50
90.103852395311222
51
180.15836341343919
0
LINE
5
17C
100
AcDbEntity
8
CUTOUTS
100
AcDbLine
10
-71.529832669421708
20
-17.794648362856371
30
0
11
-71.59568998819806
21
6.0324258653513407
31
0
0
ARC
5
17D
100
AcDbEntity
8
CUTOUTS
100
AcDbCircle
10
-70.529836489175608
20
-17.791884403396349
30
0
40
0.99999999998934008
210
0
220
0
230
1
100
AcDbArc
50
180.15836341343919
51
270.10657361851509
0
LINE
5
17E
100
AcDbEntity
8
CUTOUTS
100
AcDbLine
10
-69.987560739637104
20
-18.790877466425286
30
0
11
-70.527976429709355
21
-18.791882673473587
31
0
0
ARC
5
17F
100
AcDbEntity
8
CUTOUTS
100
AcDbCircle
10
-69.989420799103371
20
-17.790879196337407
30
0
40
0.99999999999998379
210
-0
220
0
230
1
100
AcDbArc
50
-89.893426381485213
51
0.15836347059796213
0
LINE
5
180
100
AcDbEntity
8
CUTOUTS
100
AcDbLine
10
-69.055281890463419
20
6.0389333256594968
30
0
11
-68.989424618849398
21
-17.788115235879808
31
0
0
ARC
5
181
100
AcDbEntity
8
CUTOUTS
100
AcDbCircle
10
-54.767614348767125
20
37.863744286506069
30
0
40
0.99999999999998435
210
0
220
0
230
1
100
AcDbArc
50
202.19617259228482
51
291.51959243364763
0
LINE
5
182
100
AcDbEntity
8
CUTOUTS
100
AcDbLine
10
-34.969589774277864
20
44.595283972711776
30
0
11
-54.400794984886062
21
36.933452098920974
31
0
0
ARC
5
183
100
AcDbEntity
8
CUTOUTS
100
AcDbCircle
10
-35.336409138173664
20
45.525576160334154
30
0
40
1.0000000000400802
210
-0
220
0
230
1
100
AcDbArc
50
-68.480407566350507
51
22.19390267428572
0
LINE
5
184
100
AcDbEntity
8
CUTOUTS
100
AcDbLine
10
-34.614636543939667
20
46.403695998813021
30
0
11
-34.41049834935383
21
45.90331841535361
31
0
0
ARC
5
185
100
AcDbEntity
8
CUTOUTS
100
AcDbCircle
10
-35.540547332722369
20
46.025953743808671
30
0
40
0.99999999999998435
210
0
220
-0
230
1
100
AcDbArc
50
22.19390267428798
51
111.51959312606466
0
LINE
5
186
100
AcDbEntity
8
CUTOUTS
100
AcDbLine
10
-55.338591742005789
20
39.294405965276873
30
0
11
-35.907366707845974
21
46.956245926960769
31
0
0
ARC
5
187
100
AcDbEntity
8
CUTOUTS
100
AcDbCircle
10
-54.971772366885943
20
38.364113782134304
30
0
40
0.99999999998973965
210
0
220
0
230
1
100
AcDbArc
50
111.51959312606458
51
202.19617259228181
0
LINE
5
188
100
AcDbEntity
8
CUTOUTS
100
AcDbLine
10
-55.693510171603236
20
37.485965349487877
30
0
11
-55.897668189712597
21
37.986334845120027
31
0
0
ARC
5
189
100
AcDbEntity
8
PERIMETER
100
AcDbCircle
10
-83.897857405296293
20
-38.883878676126507
30
0
40
4.5000000000000382
210
0
220
0
230
1
100
AcDbArc
50
135.00000000000105
51
225.00000000000037
0
LINE
5
18A
100
AcDbEntity
8
PERIMETER
100
AcDbLine
10
-87.079837920635754
20
-42.065859191466011
30
0
11
-53.775107319936062
21
-75.370589792165077
31
0
0
ARC
5
18B
100
AcDbEntity
8
PERIMETER
100
AcDbCircle
10
-50.59312801140905
20
-72.188610483637987
30
0
40
4.4999982933095133
210
0
220
0
230
1
100
AcDbArc
50
225.00000000000071
51
314.99990332143881
0
ARC
5
18C
100
AcDbEntity
8
PERIMETER
100
AcDbCircle
10
15.661395970858569
20
-138.44375902495764
30
0
40
89.198489736920052
210
0
220
-0
230
1
100
AcDbArc
50
87.305797133334991
51
134.99972120067906
0
ARC
5
18D
100
AcDbEntity
8
PERIMETER
100
AcDbCircle
10
24.650196621496985
20
52.573232128987598
30
0
40
102.02988014224974
210
0
220
0
230
1
100
AcDbArc
50
267.30577591377119
51
289.68746640932079
0
ARC
5
18E
100
AcDbEntity
8
PERIMETER
100
AcDbCircle
10
83.268472991874233
20
-111.25933641033059
30
0
40
71.973605003712109
210
0
220
-0
230
1
100
AcDbArc
50
88.01473386905856
51
109.68608304019061
0
ARC
5
18F
100
AcDbEntity
8
PERIMETER
100
AcDbCircle
10
85.761818435975215
20
-34.828932228741614
30
0
40
4.4999999999999929
210
-0
220
0
230
1
100
AcDbArc
50
-90
51
0
0
LINE
5
190
100
AcDbEntity
8
PERIMETER
100
AcDbLine
10
90.261818435975201
20
-34.828932228741614
30
0
11
90.261818435975201
21
29.887930414975685
31
0
0
ARC
5
191
100
AcDbEntity
8
PERIMETER
100
AcDbCircle
10
85.761818435975215
20
29.887930414975649
30
0
40
4.4999999999999929
210
0
220
-0
230
1
100
AcDbArc
50
0
51
60.755969550855077
0
ARC
5
192
100
AcDbEntity
8
PERIMETER
100
AcDbCircle
10
7.3009271030942458
20
-110.24831797223415
30
0
40
165.10597616773771
210
0
220
-0
230
1
100
AcDbArc
50
60.755969550855085
51
118.78639938338799
0
ARC
5
193
100
AcDbEntity
8
PERIMETER
100
AcDbCircle
10
-70.038181564024896
20
30.51013417671312
30
0
40
4.5000000000000115
210
0
220
0
230
1
100
AcDbArc
50
118.78639938338773
51
180
0
LINE
5
194
100
AcDbEntity
8
PERIMETER
100
AcDbLine
10
-74.538181564024853
20
30.510134176713095
30
0
11
-74.538181564024839
21
-23.239369117874595
31
0
0
ARC
5
195
100
AcDbEntity
8
PERIMETER
100
AcDbCircle
10
7.3009271030942458
20
-110.24831797223415
30
0
40
119.4495579237072
210
0
220
0
230
1
100
AcDbArc
50
133.24624863212767
51
135.0000000000004
0
LINE
5
196
100
AcDbEntity
8
PERIMETER
100
AcDbLine
10
-77.16266531449503
20
-25.784725554646105
30
0
11
-87.079837920635839
21
-35.701898160787074
31
0
0
ENDSEC
0
SECTION
2
OBJECTS
0
DICTIONARY
5
C
100
AcDbDictionary
3
ACAD_GROUP
350
D
3
ACAD_MLINESTYLE
350
17
0
DICTIONARY
5
D
100
AcDbDictionary
0
DICTIONARY
5
1A
330
C
100
AcDbDictionary
0
DICTIONARY
5
17
100
AcDbDictionary
0
ENDSEC
0
EOF
