0
SECTION
2
HEADER
9
$INSUNITS
70
4
9
$ACADVER
1
AC1014
9
$HANDSEED
5
FFFF
0
ENDSEC
0
SECTION
2
TABLES
0
TABLE
2
VPORT
5
8
100
AcDbSymbolTable
0
ENDTAB
0
TABLE
2
LTYPE
5
5
100
AcDbSymbolTable
70
2
0
LTYPE
5
14
100
AcDbSymbolTableRecord
100
AcDbLinetypeTableRecord
2
BYBLOCK
70
0
0
LTYPE
5
15
100
AcDbSymbolTableRecord
100
AcDbLinetypeTableRecord
2
BYLAYER
70
0
0
ENDTAB
0
TABLE
2
LAYER
5
2
100
AcDbSymbolTable
70
3
0
LAYER
5
50
100
AcDbSymbolTableRecord
100
AcDbLayerTableRecord
2
0
70
0
6
CONTINUOUS
0
LAYER
5
51
100
AcDbSymbolTableRecord
100
AcDbLayerTableRecord
2
CUTOUTS
70
0
62
1
6
CONTINUOUS
0
LAYER
5
52
100
AcDbSymbolTableRecord
100
AcDbLayerTableRecord
2
PERIMETER
70
0
62
5
6
CONTINUOUS
0
ENDTAB
0
TABLE
2
STYLE
5
3
100
AcDbSymbolTable
70
1
0
STYLE
5
11
100
AcDbSymbolTableRecord
100
AcDbTextStyleTableRecord
2
STANDARD
70
0
0
ENDTAB
0
TABLE
2
VIEW
5
6
100
AcDbSymbolTable
0
ENDTAB
0
TABLE
2
UCS
5
7
100
AcDbSymbolTable
0
ENDTAB
0
TABLE
2
APPID
5
9
100
AcDbSymbolTable
70
1
0
APPID
5
12
100
AcDbSymbolTableRecord
100
AcDbRegAppTableRecord
2
ACAD
70
0
0
ENDTAB
0
TABLE
2
DIMSTYLE
5
A
100
AcDbSymbolTable
0
ENDTAB
0
TABLE
2
BLOCK_RECORD
5
1
100
AcDbSymbolTable
70
2
0
BLOCK_RECORD
5
1F
100
AcDbSymbolTableRecord
100
AcDbBlockTableRecord
2
*MODEL_SPACE
0
BLOCK_RECORD
5
1B
100
AcDbSymbolTableRecord
100
AcDbBlockTableRecord
2
*PAPER_SPACE
0
ENDTAB
0
ENDSEC
0
SECTION
2
BLOCKS
0
BLOCK
5
20
100
AcDbEntity
100
AcDbBlockBegin
2
*MODEL_SPACE
0
ENDBLK
5
21
100
AcDbEntity
100
AcDbBlockEnd
0
BLOCK
5
1C
100
AcDbEntity
100
AcDbBlockBegin
2
*PAPER_SPACE
0
ENDBLK
5
1D
100
AcDbEntity
100
AcDbBlockEnd
0
ENDSEC
0
SECTION
2
ENTITIES
0
LINE
5
100
100
AcDbEntity
8
CUTOUTS
100
AcDbLine
10
43.954452853635445
20
38.685720330837434
30
0
11
43.954452853635431
21
28.685720330838098
31
0
0
ARC
5
101
100
AcDbEntity
8
CUTOUTS
100
AcDbCircle
10
42.954452853635452
20
38.685720330837434
30
0
40
0.99999999999999645
210
0
220
-0
230
1
100
AcDbArc
50
0
51
90
0
LINE
5
102
100
AcDbEntity
8
CUTOUTS
100
AcDbLine
10
25.904452853635441
20
39.685720330837462
30
0
11
42.954452853635452
21
39.685720330837427
31
0
0
ARC
5
103
100
AcDbEntity
8
CUTOUTS
100
AcDbCircle
10
25.904452853635441
20
40.685720330837462
30
0
40
0.99999999999999645
210
0
220
0
230
1
100
AcDbArc
50
180
51
270
0
LINE
5
104
100
AcDbEntity
8
CUTOUTS
100
AcDbLine
10
24.904452853635458
20
44.685720330838066
30
0
11
24.904452853635448
21
40.685720330837462
31
0
0
ARC
5
105
100
AcDbEntity
8
CUTOUTS
100
AcDbCircle
10
23.904452853635458
20
44.685720330838066
30
0
40
1.0000000000000009
210
0
220
-0
230
1
100
AcDbArc
50
0
51
90
0
LINE
5
106
100
AcDbEntity
8
CUTOUTS
100
AcDbLine
10
4.8544528536355092
20
45.685720330838102
30
0
11
23.904452853635458
21
45.685720330838066
31
0
0
ARC
5
107
100
AcDbEntity
8
CUTOUTS
100
AcDbCircle
10
4.8544528536355092
20
44.685720330838102
30
0
40
0.99999999999999645
210
0
220
-0
230
1
100
AcDbArc
50
90
51
180
0
LINE
5
108
100
AcDbEntity
8
CUTOUTS
100
AcDbLine
10
3.8544528536354949
20
40.185720330838073
30
0
11
3.8544528536355127
21
44.685720330838102
31
0
0
ARC
5
109
100
AcDbEntity
8
CUTOUTS
100
AcDbCircle
10
2.8544528536354896
20
40.185720330838073
30
0
40
1.0000000000000142
210
-0
220
0
230
1
100
AcDbArc
50
-90
51
0
0
LINE
5
10A
100
AcDbEntity
8
CUTOUTS
100
AcDbLine
10
-14.195547146364484
20
39.185720330838116
30
0
11
2.8544528536354896
21
39.185720330838059
31
0
0
ARC
5
10B
100
AcDbEntity
8
CUTOUTS
100
AcDbCircle
10
-14.195547146364484
20
38.185720330838116
30
0
40
0.99999999999999645
210
0
220
-0
230
1
100
AcDbArc
50
90
51
180
0
LINE
5
10C
100
AcDbEntity
8
CUTOUTS
100
AcDbLine
10
-15.19554714636449
20
37.685720330838109
30
0
11
-15.195547146364481
21
38.185720330838116
31
0
0
ARC
5
10D
100
AcDbEntity
8
CUTOUTS
100
AcDbCircle
10
-16.195547146364486
20
37.685720330838109
30
0
40
0.99999999999999645
210
-0
220
0
230
1
100
AcDbArc
50
-90
51
0
0
LINE
5
10E
100
AcDbEntity
8
CUTOUTS
100
AcDbLine
10
-32.995547146364515
20
36.685720330838116
30
0
11
-16.195547146364486
21
36.685720330838116
31
0
0
ARC
5
10F
100
AcDbEntity
8
CUTOUTS
100
AcDbCircle
10
-32.995547146364515
20
35.685720330838116
30
0
40
0.99999999999999645
210
0
220
-0
230
1
100
AcDbArc
50
90
51
180
0
LINE
5
110
100
AcDbEntity
8
CUTOUTS
100
AcDbLine
10
-33.995547146364551
20
-6.108021042338363
30
0
11
-33.995547146364515
21
35.685720330838116
31
0
0
ARC
5
111
100
AcDbEntity
8
CUTOUTS
100
AcDbCircle
10
-34.995547146364586
20
-6.1080210423383541
30
0
40
0.99999999999999312
210
-0
220
0
230
1
100
AcDbArc
50
291.98063710675319
51
360
0
ARC
5
112
100
AcDbEntity
8
CUTOUTS
100
AcDbCircle
10
7.0935615207545055
20
-110.38366541265449
30
0
40
111.4495579237073
210
0
220
0
230
1
100
AcDbArc
50
111.98063710675243
51
135.00000000000017
0
LINE
5
113
100
AcDbEntity
8
CUTOUTS
100
AcDbLine
10
-78.448368738143742
20
-38.312119335360173
30
0
11
-71.713176647342067
21
-31.576927244558345
31
0
0
ARC
5
114
100
AcDbEntity
8
CUTOUTS
100
AcDbCircle
10
-77.741261956957175
20
-39.019226116546697
30
0
40
1.0000000000000011
210
0
220
0
230
1
100
AcDbArc
50
135.00000000000145
51
224.99999999999855
0
LINE
5
115
100
AcDbEntity
8
CUTOUTS
100
AcDbLine
10
-51.507600374935905
20
-66.66710126094101
30
0
11
-78.448368738143742
21
-39.726332897733229
31
0
0
ARC
5
116
100
AcDbEntity
8
CUTOUTS
100
AcDbCircle
10
-50.800493593749358
20
-65.959994479754471
30
0
40
0.999999999999998
210
0
220
0
230
1
100
AcDbArc
50
224.99999999999972
51
315.00000000000028
0
LINE
5
117
100
AcDbEntity
8
CUTOUTS
100
AcDbLine
10
-43.358194721761159
20
-59.931909170138965
30
0
11
-50.093386812562812
21
-66.667101260941024
31
0
0
ARC
5
118
100
AcDbEntity
8
CUTOUTS
100
AcDbCircle
10
7.0935615207545055
20
-110.38366541265449
30
0
40
71.349557923707081
210
0
220
-0
230
1
100
AcDbArc
50
89.999999999999972
51
135.00000000000009
0
LINE
5
119
100
AcDbEntity
8
CUTOUTS
100
AcDbLine
10
35.668561520754515
20
-39.034107488947484
30
0
11
7.0935615207545233
21
-39.034107488947413
31
0
0
ARC
5
11A
100
AcDbEntity
8
CUTOUTS
100
AcDbCircle
10
35.668561520754515
20
-38.034107488947477
30
0
40
1.0000000000000009
210
-0
220
0
230
1
100
AcDbArc
50
-90
51
0
0
LINE
5
11B
100
AcDbEntity
8
CUTOUTS
100
AcDbLine
10
36.668561520754558
20
-20.464279669161879
30
0
11
36.668561520754515
21
-38.034107488947477
31
0
0
ARC
5
11C
100
AcDbEntity
8
CUTOUTS
100
AcDbCircle
10
37.668561520754558
20
-20.464279669161883
30
0
40
0.99999999999999867
210
0
220
-0
230
1
100
AcDbArc
50
90
51
180
0
LINE
5
11D
100
AcDbEntity
8
CUTOUTS
100
AcDbLine
10
40.954452853635473
20
-19.46427966916189
30
0
11
37.668561520754558
21
-19.464279669161883
31
0
0
ARC
5
11E
100
AcDbEntity
8
CUTOUTS
100
AcDbCircle
10
40.954452853635473
20
-20.464279669161893
30
0
40
1.0000000000000053
210
-0
220
0
230
1
100
AcDbArc
50
0
51
90
0
LINE
5
11F
100
AcDbEntity
8
CUTOUTS
100
AcDbLine
10
41.954452853635459
20
-30.464289669161808
30
0
11
41.954452853635473
21
-20.464279669161893
31
0
0
ARC
5
120
100
AcDbEntity
8
CUTOUTS
100
AcDbCircle
10
42.954452853635459
20
-30.464289669161811
30
0
40
1.0000000000000053
210
0
220
0
230
1
100
AcDbArc
50
180
51
270
0
LINE
5
121
100
AcDbEntity
8
CUTOUTS
100
AcDbLine
10
81.054452853635325
20
-31.4642896691619
30
0
11
42.954452853635473
21
-31.464289669161811
31
0
0
ARC
5
122
100
AcDbEntity
8
CUTOUTS
100
AcDbCircle
10
81.054452853635325
20
-30.464289669161893
30
0
40
1.0000000000000009
210
-0
220
0
230
1
100
AcDbArc
50
-90
51
0
0
LINE
5
123
100
AcDbEntity
8
CUTOUTS
100
AcDbLine
10
82.054452853635453
20
26.685720330838045
30
0
11
82.054452853635325
21
-30.464289669161893
31
0
0
ARC
5
124
100
AcDbEntity
8
CUTOUTS
100
AcDbCircle
10
81.054452853635453
20
26.685720330838045
30
0
40
0.99999999999999645
210
0
220
-0
230
1
100
AcDbArc
50
0
51
90
0
LINE
5
125
100
AcDbEntity
8
CUTOUTS
100
AcDbLine
10
44.954452853635431
20
27.685720330838102
30
0
11
81.054452853635439
21
27.685720330838038
31
0
0
ARC
5
126
100
AcDbEntity
8
CUTOUTS
100
AcDbCircle
10
44.954452853635431
20
28.685720330838098
30
0
40
0.99999999999999645
210
0
220
0
230
1
100
AcDbArc
50
180
51
270
0
LINE
5
127
100
AcDbEntity
8
PERIMETER
100
AcDbLine
10
-86.580096721788948
20
-41.494099850699797
30
0
11
-53.275367327901897
21
-74.798829244586216
31
0
0
ARC
5
128
100
AcDbEntity
8
PERIMETER
100
AcDbCircle
10
-84.105222987636026
20
-39.019226116546847
30
0
40
3.5000000000000369
210
0
220
0
230
1
100
AcDbArc
50
135.00000000000091
51
225.0000000000004
0
LINE
5
129
100
AcDbEntity
8
PERIMETER
100
AcDbLine
10
-76.662924115647655
20
-26.627179776252344
30
0
11
-86.580096721789005
21
-36.544352382393946
31
0
0
ARC
5
12A
100
AcDbEntity
8
PERIMETER
100
AcDbCircle
10
7.0935615207545055
20
-110.38366541265449
30
0
40
118.4495579237072
210
0
220
0
230
1
100
AcDbArc
50
133.24624863212736
51
135.00000000000028
0
ARC
5
12B
100
AcDbEntity
8
PERIMETER
100
AcDbCircle
10
-74.745547146364657
20
-23.374716558294878
30
0
40
1.000000000000097
210
-0
220
0
230
1
100
AcDbArc
50
313.24624863216599
51
360
0
LINE
5
12C
100
AcDbEntity
8
PERIMETER
100
AcDbLine
10
-73.745547146364572
20
30.374786736292751
30
0
11
-73.745547146364544
21
-23.374716558294935
31
0
0
ARC
5
12D
100
AcDbEntity
8
PERIMETER
100
AcDbCircle
10
-70.245547146364643
20
30.374786736292776
30
0
40
3.4999999999999547
210
0
220
0
230
1
100
AcDbArc
50
118.78639938338769
51
180
0
ARC
5
12E
100
AcDbEntity
8
PERIMETER
100
AcDbCircle
10
7.0935615207545055
20
-110.38366541265449
30
0
40
164.10597616773765
210
0
220
-0
230
1
100
AcDbArc
50
60.755969550855077
51
118.78639938338799
0
ARC
5
12F
100
AcDbEntity
8
PERIMETER
100
AcDbCircle
10
85.554452853635468
20
29.752582974555306
30
0
40
3.4999999999999964
210
0
220
-0
230
1
100
AcDbArc
50
0
51
60.755969550854921
0
LINE
5
130
100
AcDbEntity
8
PERIMETER
100
AcDbLine
10
89.054452853635468
20
-34.964279669161954
30
0
11
89.054452853635468
21
29.752582974555331
31
0
0
ARC
5
131
100
AcDbEntity
8
PERIMETER
100
AcDbCircle
10
85.554201453858397
20
-34.964802379339204
30
0
40
3.5002514388065076
210
-0
220
0
230
1
100
AcDbArc
50
-89.428810691004372
51
0.0085562673673221391
0
ARC
5
132
100
AcDbEntity
8
PERIMETER
100
AcDbCircle
10
83.0611074095345
20
-111.39468385075094
30
0
40
72.973605018613313
210
0
220
-0
230
1
100
AcDbArc
50
88.01473386905856
51
109.68609251874894
0
ARC
5
133
100
AcDbEntity
8
PERIMETER
100
AcDbCircle
10
24.442831039157245
20
52.437884688567252
30
0
40
101.02988012734858
210
0
220
0
230
1
100
AcDbArc
50
267.30577591377119
51
289.68747325565755
0
ARC
5
134
100
AcDbEntity
8
PERIMETER
100
AcDbCircle
10
15.454030388518829
20
-138.579106465378
30
0
40
90.198489751821114
210
0
220
-0
230
1
100
AcDbArc
50
87.305796898080899
51
134.99971838422164
0
ARC
5
135
100
AcDbEntity
8
PERIMETER
100
AcDbCircle
10
-50.800493593749003
20
-72.323955510433194
30
0
40
3.500000000000056
210
0
220
0
230
1
100
AcDbArc
50
225.00000000000148
51
315.00000000000216
0
ENDSEC
0
SECTION
2
OBJECTS
0
DICTIONARY
5
C
100
AcDbDictionary
3
ACAD_GROUP
350
D
3
ACAD_MLINESTYLE
350
17
0
DICTIONARY
5
D
100
AcDbDictionary
0
DICTIONARY
5
1A
330
C
100
AcDbDictionary
0
DICTIONARY
5
17
100
AcDbDictionary
0
ENDSEC
0
EOF
