0
SECTION
2
HEADER
9
$INSUNITS
70
4
9
$ACADVER
1
AC1014
9
$HANDSEED
5
FFFF
0
ENDSEC
0
SECTION
2
TABLES
0
TABLE
2
VPORT
5
8
100
AcDbSymbolTable
0
ENDTAB
0
TABLE
2
LTYPE
5
5
100
AcDbSymbolTable
70
2
0
LTYPE
5
14
100
AcDbSymbolTableRecord
100
AcDbLinetypeTableRecord
2
BYBLOCK
70
0
0
LTYPE
5
15
100
AcDbSymbolTableRecord
100
AcDbLinetypeTableRecord
2
BYLAYER
70
0
0
ENDTAB
0
TABLE
2
LAYER
5
2
100
AcDbSymbolTable
70
3
0
LAYER
5
50
100
AcDbSymbolTableRecord
100
AcDbLayerTableRecord
2
0
70
0
6
CONTINUOUS
0
LAYER
5
51
100
AcDbSymbolTableRecord
100
AcDbLayerTableRecord
2
CUTOUTS
70
0
62
1
6
CONTINUOUS
0
LAYER
5
52
100
AcDbSymbolTableRecord
100
AcDbLayerTableRecord
2
PERIMETER
70
0
62
5
6
CONTINUOUS
0
ENDTAB
0
TABLE
2
STYLE
5
3
100
AcDbSymbolTable
70
1
0
STYLE
5
11
100
AcDbSymbolTableRecord
100
AcDbTextStyleTableRecord
2
STANDARD
70
0
0
ENDTAB
0
TABLE
2
VIEW
5
6
100
AcDbSymbolTable
0
ENDTAB
0
TABLE
2
UCS
5
7
100
AcDbSymbolTable
0
ENDTAB
0
TABLE
2
APPID
5
9
100
AcDbSymbolTable
70
1
0
APPID
5
12
100
AcDbSymbolTableRecord
100
AcDbRegAppTableRecord
2
ACAD
70
0
0
ENDTAB
0
TABLE
2
DIMSTYLE
5
A
100
AcDbSymbolTable
0
ENDTAB
0
TABLE
2
BLOCK_RECORD
5
1
100
AcDbSymbolTable
70
2
0
BLOCK_RECORD
5
1F
100
AcDbSymbolTableRecord
100
AcDbBlockTableRecord
2
*MODEL_SPACE
0
BLOCK_RECORD
5
1B
100
AcDbSymbolTableRecord
100
AcDbBlockTableRecord
2
*PAPER_SPACE
0
ENDTAB
0
ENDSEC
0
SECTION
2
BLOCKS
0
BLOCK
5
20
100
AcDbEntity
100
AcDbBlockBegin
2
*MODEL_SPACE
0
ENDBLK
5
21
100
AcDbEntity
100
AcDbBlockEnd
0
BLOCK
5
1C
100
AcDbEntity
100
AcDbBlockBegin
2
*PAPER_SPACE
0
ENDBLK
5
1D
100
AcDbEntity
100
AcDbBlockEnd
0
ENDSEC
0
SECTION
2
ENTITIES
0
CIRCLE
5
100
100
AcDbEntity
8
CUTOUTS
100
AcDbCircle
10
-70.745547146364189
20
-18.912992331419787
30
0
40
0.95000000000000639
210
0
220
0
230
1
0
CIRCLE
5
101
100
AcDbEntity
8
CUTOUTS
100
AcDbCircle
10
-83.880349253483587
20
-32.766834128103348
30
0
40
0.95000000000000639
210
0
220
0
230
1
0
CIRCLE
5
102
100
AcDbEntity
8
CUTOUTS
100
AcDbCircle
10
-59.48876146145146
20
42.565948833591378
30
0
40
0.95000000000000639
210
0
220
0
230
1
0
CIRCLE
5
103
100
AcDbEntity
8
CUTOUTS
100
AcDbCircle
10
-31.087762586065715
20
52.383218735387089
30
0
40
0.95000000000000639
210
0
220
0
230
1
0
CIRCLE
5
104
100
AcDbEntity
8
CUTOUTS
100
AcDbCircle
10
85.743891800377412
20
36.112169841714504
30
0
40
0.95000000000000639
210
0
220
0
230
1
0
CIRCLE
5
105
100
AcDbEntity
8
CUTOUTS
100
AcDbCircle
10
28.106360744639161
20
-37.889513569473728
30
0
40
0.95000000000000195
210
0
220
0
230
1
0
CIRCLE
5
106
100
AcDbEntity
8
CUTOUTS
100
AcDbCircle
10
-50.800493593749053
20
-65.846689787836823
30
0
40
0.95000000000000639
210
0
220
0
230
1
0
CIRCLE
5
107
100
AcDbEntity
8
CUTOUTS
100
AcDbCircle
10
-70.745547146364572
20
16.885230351346454
30
0
40
0.95000000000000639
210
0
220
0
230
1
0
CIRCLE
5
108
100
AcDbEntity
8
CUTOUTS
100
AcDbCircle
10
-25.763161838253559
20
53.186820237436407
30
0
40
0.94999999999999751
210
0
220
0
230
1
0
CIRCLE
5
109
100
AcDbEntity
8
CUTOUTS
100
AcDbCircle
10
81.087200367077202
20
39.182864173204422
30
0
40
0.95000000000000639
210
0
220
0
230
1
0
CIRCLE
5
10A
100
AcDbEntity
8
CUTOUTS
100
AcDbCircle
10
80.723345499635911
20
-28.818621861254208
30
0
40
0.95000000000000639
210
0
220
0
230
1
0
CIRCLE
5
10B
100
AcDbEntity
8
CUTOUTS
100
AcDbCircle
10
-47.366158829742048
20
-62.440868502540113
30
0
40
0.95000000000000639
210
0
220
0
230
1
0
CIRCLE
5
10C
100
AcDbEntity
8
CUTOUTS
100
AcDbCircle
10
-80.46357817448461
20
-29.123572983126035
30
0
40
0.95000000000000639
210
0
220
0
230
1
0
CIRCLE
5
10D
100
AcDbEntity
8
CUTOUTS
100
AcDbCircle
10
13.975046005339937
20
-36.57124952699639
30
0
40
0.95000000000000195
210
0
220
0
230
1
0
CIRCLE
5
10E
100
AcDbEntity
8
CUTOUTS
100
AcDbCircle
10
85.775585454020103
20
-28.774773673946576
30
0
40
0.95000000000000639
210
0
220
0
230
1
0
LINE
5
10F
100
AcDbEntity
8
PERIMETER
100
AcDbLine
10
-73.745547146364544
20
-17.122324569851386
30
0
11
-73.745547146364572
21
36.627178724736297
31
0
0
ARC
5
110
100
AcDbEntity
8
PERIMETER
100
AcDbCircle
10
-70.245547146364629
20
36.627178724736325
30
0
40
3.4999999999999392
210
0
220
0
230
1
100
AcDbArc
50
118.78639938338767
51
180
0
ARC
5
111
100
AcDbEntity
8
PERIMETER
100
AcDbCircle
10
7.0935615207515212
20
-104.13127342420424
30
0
40
164.10597616773035
210
0
220
0
230
1
100
AcDbArc
50
113.40650046346072
51
118.78639938338819
0
ARC
5
112
100
AcDbEntity
8
PERIMETER
100
AcDbCircle
10
-57.700615593320244
20
45.552640453468342
30
0
40
1.0000000000000231
210
0
220
-0
230
1
100
AcDbArc
50
0
51
113.40650046345877
0
LINE
5
113
100
AcDbEntity
8
PERIMETER
100
AcDbLine
10
-56.700615593320208
20
45.552640453468378
30
0
11
-56.700615593320194
21
40.419609374208392
31
0
0
ARC
5
114
100
AcDbEntity
8
PERIMETER
100
AcDbCircle
10
-55.700615593320194
20
40.419609374208392
30
0
40
0.99999999999999645
210
0
220
0
230
1
100
AcDbArc
50
180
51
270
0
LINE
5
115
100
AcDbEntity
8
PERIMETER
100
AcDbLine
10
-55.700615593320194
20
39.419609374208392
30
0
11
-34.995547146364565
21
39.419609374208392
31
0
0
ARC
5
116
100
AcDbEntity
8
PERIMETER
100
AcDbCircle
10
-34.995547146364572
20
40.419609374208399
30
0
40
1.0000000000000053
210
0
220
0
230
1
100
AcDbArc
50
270.0000000000004
51
360
0
LINE
5
117
100
AcDbEntity
8
PERIMETER
100
AcDbLine
10
-33.995547146364572
20
40.419609374208399
30
0
11
-33.995547146364551
21
53.97129716813118
31
0
0
ARC
5
118
100
AcDbEntity
8
PERIMETER
100
AcDbCircle
10
-32.995547146364565
20
53.971297168131187
30
0
40
0.99999999999999489
210
0
220
0
230
1
100
AcDbArc
50
104.22826805170803
51
180
0
ARC
5
119
100
AcDbEntity
8
PERIMETER
100
AcDbCircle
10
7.0935615207544451
20
-104.13127342421123
30
0
40
164.10597616773794
210
0
220
-0
230
1
100
AcDbArc
50
60.755969550855177
51
104.22826805170803
0
ARC
5
11A
100
AcDbEntity
8
PERIMETER
100
AcDbCircle
10
85.554452853635496
20
36.00497496299888
30
0
40
3.4999999999999609
210
0
220
0
230
1
100
AcDbArc
50
0
51
60.755969550857216
0
LINE
5
11B
100
AcDbEntity
8
PERIMETER
100
AcDbLine
10
89.054452853635468
20
36.00497496299888
30
0
11
89.054452853635468
21
-28.711887680718409
31
0
0
ARC
5
11C
100
AcDbEntity
8
PERIMETER
100
AcDbCircle
10
85.554201453858397
20
-28.712410390895649
30
0
40
3.5002514388065387
210
0
220
0
230
1
100
AcDbArc
50
-89.428810691004372
51
0.0085562673247259104
0
ARC
5
11D
100
AcDbEntity
8
PERIMETER
100
AcDbCircle
10
83.061107409534486
20
-105.14229186230733
30
0
40
72.973605018613213
210
0
220
-0
230
1
100
AcDbArc
50
88.01473386905856
51
109.68609251874899
0
ARC
5
11E
100
AcDbEntity
8
PERIMETER
100
AcDbCircle
10
24.442831039157113
20
58.690276677011433
30
0
40
101.02988012782282
210
0
220
0
230
1
100
AcDbArc
50
267.30577591377124
51
289.68747325565749
0
ARC
5
11F
100
AcDbEntity
8
PERIMETER
100
AcDbCircle
10
15.454030388518811
20
-132.32671447693437
30
0
40
90.198489751821057
210
0
220
-0
230
1
100
AcDbArc
50
87.305796898080871
51
134.99971838422169
0
ARC
5
120
100
AcDbEntity
8
PERIMETER
100
AcDbCircle
10
-50.800493593749003
20
-66.071563521989646
30
0
40
3.4999999701965483
210
0
220
0
230
1
100
AcDbArc
50
225.00000000000136
51
315.00000000000222
0
LINE
5
121
100
AcDbEntity
8
PERIMETER
100
AcDbLine
10
-53.275367306827647
20
-68.54643723506841
30
0
11
-86.580096721788948
21
-35.241707862256256
31
0
0
ARC
5
122
100
AcDbEntity
8
PERIMETER
100
AcDbCircle
10
-84.105222987636012
20
-32.766834128103298
30
0
40
3.5000000000000497
210
0
220
0
230
1
100
AcDbArc
50
135.00000000000105
51
225.0000000000004
0
LINE
5
123
100
AcDbEntity
8
PERIMETER
100
AcDbLine
10
-86.580096721789005
20
-30.291960393950394
30
0
11
-76.662924115647627
21
-20.374787787808792
31
0
0
ARC
5
124
100
AcDbEntity
8
PERIMETER
100
AcDbCircle
10
7.0935615207207015
20
-104.13127342417613
30
0
40
118.44955792365873
210
0
220
0
230
1
100
AcDbArc
50
133.24624863212674
51
135.00000000000028
0
ARC
5
125
100
AcDbEntity
8
PERIMETER
100
AcDbCircle
10
-74.745547146364657
20
-17.12232456985133
30
0
40
1.0000000000001095
210
0
220
0
230
1
100
AcDbArc
50
313.24624863217724
51
360
0
ENDSEC
0
SECTION
2
OBJECTS
0
DICTIONARY
5
C
100
AcDbDictionary
3
ACAD_GROUP
350
D
3
ACAD_MLINESTYLE
350
17
0
DICTIONARY
5
D
100
AcDbDictionary
0
DICTIONARY
5
1A
330
C
100
AcDbDictionary
0
DICTIONARY
5
17
100
AcDbDictionary
0
ENDSEC
0
EOF
