0
SECTION
2
HEADER
9
$INSUNITS
70
4
9
$ACADVER
1
AC1014
9
$HANDSEED
5
FFFF
0
ENDSEC
0
SECTION
2
TABLES
0
TABLE
2
VPORT
5
8
100
AcDbSymbolTable
0
ENDTAB
0
TABLE
2
LTYPE
5
5
100
AcDbSymbolTable
70
2
0
LTYPE
5
14
100
AcDbSymbolTableRecord
100
AcDbLinetypeTableRecord
2
BYBLOCK
70
0
0
LTYPE
5
15
100
AcDbSymbolTableRecord
100
AcDbLinetypeTableRecord
2
BYLAYER
70
0
0
ENDTAB
0
TABLE
2
LAYER
5
2
100
AcDbSymbolTable
70
3
0
LAYER
5
50
100
AcDbSymbolTableRecord
100
AcDbLayerTableRecord
2
0
70
0
6
CONTINUOUS
0
LAYER
5
51
100
AcDbSymbolTableRecord
100
AcDbLayerTableRecord
2
CUTOUTS
70
0
62
1
6
CONTINUOUS
0
LAYER
5
52
100
AcDbSymbolTableRecord
100
AcDbLayerTableRecord
2
PERIMETER
70
0
62
5
6
CONTINUOUS
0
ENDTAB
0
TABLE
2
STYLE
5
3
100
AcDbSymbolTable
70
1
0
STYLE
5
11
100
AcDbSymbolTableRecord
100
AcDbTextStyleTableRecord
2
STANDARD
70
0
0
ENDTAB
0
TABLE
2
VIEW
5
6
100
AcDbSymbolTable
0
ENDTAB
0
TABLE
2
UCS
5
7
100
AcDbSymbolTable
0
ENDTAB
0
TABLE
2
APPID
5
9
100
AcDbSymbolTable
70
1
0
APPID
5
12
100
AcDbSymbolTableRecord
100
AcDbRegAppTableRecord
2
ACAD
70
0
0
ENDTAB
0
TABLE
2
DIMSTYLE
5
A
100
AcDbSymbolTable
0
ENDTAB
0
TABLE
2
BLOCK_RECORD
5
1
100
AcDbSymbolTable
70
2
0
BLOCK_RECORD
5
1F
100
AcDbSymbolTableRecord
100
AcDbBlockTableRecord
2
*MODEL_SPACE
0
BLOCK_RECORD
5
1B
100
AcDbSymbolTableRecord
100
AcDbBlockTableRecord
2
*PAPER_SPACE
0
ENDTAB
0
ENDSEC
0
SECTION
2
BLOCKS
0
BLOCK
5
20
100
AcDbEntity
100
AcDbBlockBegin
2
*MODEL_SPACE
0
ENDBLK
5
21
100
AcDbEntity
100
AcDbBlockEnd
0
BLOCK
5
1C
100
AcDbEntity
100
AcDbBlockBegin
2
*PAPER_SPACE
0
ENDBLK
5
1D
100
AcDbEntity
100
AcDbBlockEnd
0
ENDSEC
0
SECTION
2
ENTITIES
0
LINE
5
100
100
AcDbEntity
8
CUTOUTS
100
AcDbLine
10
40.343488721924757
20
-6.767546414183272
30
0
11
27.04348872192476
21
-6.7675464141832702
31
0
0
ARC
5
101
100
AcDbEntity
8
CUTOUTS
100
AcDbCircle
10
27.043488721924756
20
-6.4675464141832801
30
0
40
0.29999999999998916
210
0
220
0
230
1
100
AcDbArc
50
180
51
270.00000000000131
0
LINE
5
102
100
AcDbEntity
8
CUTOUTS
100
AcDbLine
10
26.743488721924766
20
-6.4675464141832739
30
0
11
26.743488721924766
21
6.832453585816749
31
0
0
ARC
5
103
100
AcDbEntity
8
CUTOUTS
100
AcDbCircle
10
27.043488721924763
20
6.8324535858167472
30
0
40
0.29999999999999583
210
0
220
0
230
1
100
AcDbArc
50
90.000000000000696
51
180
0
LINE
5
104
100
AcDbEntity
8
CUTOUTS
100
AcDbLine
10
27.04348872192476
20
7.1324535858167426
30
0
11
40.343488721924757
21
7.1324535858167497
31
0
0
ARC
5
105
100
AcDbEntity
8
CUTOUTS
100
AcDbCircle
10
40.343488721924757
20
6.8324535858167419
30
0
40
0.30000000000000249
210
-0
220
0
230
1
100
AcDbArc
50
0
51
90
0
LINE
5
106
100
AcDbEntity
8
CUTOUTS
100
AcDbLine
10
40.643488721924761
20
6.8324535858167401
30
0
11
40.643488721924754
21
-6.4675464141832695
31
0
0
ARC
5
107
100
AcDbEntity
8
CUTOUTS
100
AcDbCircle
10
40.34348872192475
20
-6.467546414183273
30
0
40
0.29999999999999916
210
-0
220
0
230
1
100
AcDbArc
50
-89.999999999998678
51
0
0
ARC
5
108
100
AcDbEntity
8
CUTOUTS
100
AcDbCircle
10
-52.188750507973829
20
-11.424632194868282
30
0
40
0.29999999999998439
210
0
220
0
230
1
100
AcDbArc
50
120.00000000001421
51
210.00000000000102
0
LINE
5
109
100
AcDbEntity
8
CUTOUTS
100
AcDbLine
10
-52.338750507973884
20
-11.164824573733005
30
0
11
-37.573017373454576
21
-2.6398245737306336
31
0
0
ARC
5
10A
100
AcDbEntity
8
CUTOUTS
100
AcDbCircle
10
-37.423017373454499
20
-2.899632194865954
30
0
40
0.30000000000002863
210
0
220
-0
230
1
100
AcDbArc
50
30.000000000020833
51
120.00000000001376
0
LINE
5
10B
100
AcDbEntity
8
CUTOUTS
100
AcDbLine
10
-37.163209752319197
20
-2.7496321948658453
30
0
11
-32.87570975231661
21
-10.175800032315996
31
0
0
ARC
5
10C
100
AcDbEntity
8
CUTOUTS
100
AcDbCircle
10
-33.135517373451897
20
-10.32580003231609
30
0
40
0.30000000000000726
210
-0
220
0
230
1
100
AcDbArc
50
-59.999999999976012
51
30.000000000019838
0
LINE
5
10D
100
AcDbEntity
8
CUTOUTS
100
AcDbLine
10
-32.985517373451785
20
-10.585607653451364
30
0
11
-35.713497395372329
21
-12.160607653452304
31
0
0
ARC
5
10E
100
AcDbEntity
8
CUTOUTS
100
AcDbCircle
10
-35.563497395372217
20
-12.420415274587601
30
0
40
0.30000000000002647
210
0
220
0
230
1
100
AcDbArc
50
120.00000000002193
51
209.99999999999534
0
LINE
5
10F
100
AcDbEntity
8
CUTOUTS
100
AcDbLine
10
-35.823305016507589
20
-12.570415274587596
30
0
11
-28.823305016508041
21
-24.694770927569216
31
0
0
ARC
5
110
100
AcDbEntity
8
CUTOUTS
100
AcDbCircle
10
-28.563497395372703
20
-24.544770927569239
30
0
40
0.29999999999999444
210
0
220
0
230
1
100
AcDbArc
50
209.99999999999571
51
299.99999999999812
0
LINE
5
111
100
AcDbEntity
8
CUTOUTS
100
AcDbLine
10
-28.413497395372715
20
-24.804578548704566
30
0
11
-25.68551737345123
21
-23.229578548704417
31
0
0
ARC
5
112
100
AcDbEntity
8
CUTOUTS
100
AcDbCircle
10
-25.535517373451242
20
-23.489386169839726
30
0
40
0.29999999999997568
210
0
220
-0
230
1
100
AcDbArc
50
29.999999999992841
51
120.00000000000017
0
LINE
5
113
100
AcDbEntity
8
CUTOUTS
100
AcDbLine
10
-25.275709752315912
20
-23.339386169839766
30
0
11
-20.988209752316376
21
-30.765554007291644
31
0
0
ARC
5
114
100
AcDbEntity
8
CUTOUTS
100
AcDbCircle
10
-21.248017373451724
20
-30.915554007291632
30
0
40
0.30000000000000449
210
-0
220
0
230
1
100
AcDbArc
50
-59.999999999997179
51
29.999999999995847
0
LINE
5
115
100
AcDbEntity
8
CUTOUTS
100
AcDbLine
10
-21.098017373451707
20
-31.175361628426963
30
0
11
-35.863750507976974
21
-39.700361628426023
31
0
0
ARC
5
116
100
AcDbEntity
8
CUTOUTS
100
AcDbCircle
10
-36.013750507976937
20
-39.440554007290693
30
0
40
0.29999999999997684
210
0
220
0
230
1
100
AcDbArc
50
209.99999999999704
51
299.99999999999403
0
LINE
5
117
100
AcDbEntity
8
CUTOUTS
100
AcDbLine
10
-36.27355812911226
20
-39.59055400729067
30
0
11
-37.267308129111996
21
-37.869328517269466
31
0
0
ARC
5
118
100
AcDbEntity
8
CUTOUTS
100
AcDbCircle
10
-37.527115750247368
20
-38.019328517269521
30
0
40
0.30000000000006294
210
0
220
-0
230
1
100
AcDbArc
50
30.000000000005222
51
120.0000000000022
0
LINE
5
119
100
AcDbEntity
8
CUTOUTS
100
AcDbLine
10
-37.67711575024741
20
-37.759520896134141
30
0
11
-38.673044964599498
21
-38.33452089613418
31
0
0
ARC
5
11A
100
AcDbEntity
8
CUTOUTS
100
AcDbCircle
10
-38.823044964599482
20
-38.074713274998842
30
0
40
0.29999999999999888
210
0
220
0
230
1
100
AcDbArc
50
209.99999999999801
51
299.99999999999687
0
LINE
5
11B
100
AcDbEntity
8
CUTOUTS
100
AcDbLine
10
-39.08285258573482
20
-38.224713274998834
30
0
11
-40.78285258573473
21
-35.280226902131574
31
0
0
ARC
5
11C
100
AcDbEntity
8
CUTOUTS
100
AcDbCircle
10
-40.523044964599393
20
-35.130226902131589
30
0
40
0.29999999999999888
210
0
220
0
230
1
100
AcDbArc
50
119.99999999999805
51
209.99999999999687
0
LINE
5
11D
100
AcDbEntity
8
CUTOUTS
100
AcDbLine
10
-40.673044964599384
20
-34.870419280996252
30
0
11
-39.677115750248092
21
-34.295419280996725
31
0
0
ARC
5
11E
100
AcDbEntity
8
CUTOUTS
100
AcDbCircle
10
-39.827115750248119
20
-34.035611659861402
30
0
40
0.30000000000000127
210
-0
220
0
230
1
100
AcDbArc
50
-59.999999999994742
51
29.99999999999989
0
LINE
5
11F
100
AcDbEntity
8
CUTOUTS
100
AcDbLine
10
-39.567308129112782
20
-33.885611659861404
30
0
11
-49.154808129109568
21
-17.279574542298199
31
0
0
ARC
5
120
100
AcDbEntity
8
CUTOUTS
100
AcDbCircle
10
-49.41461575024492
20
-17.429574542298191
30
0
40
0.30000000000001648
210
0
220
-0
230
1
100
AcDbArc
50
29.999999999996682
51
120.00000000002547
0
LINE
5
121
100
AcDbEntity
8
CUTOUTS
100
AcDbLine
10
-49.564615750245039
20
-17.169766921162907
30
0
11
-50.560544964596815
21
-17.744766921163304
31
0
0
ARC
5
122
100
AcDbEntity
8
CUTOUTS
100
AcDbCircle
10
-50.710544964596934
20
-17.484959300028038
30
0
40
0.3000000000000016
210
0
220
0
230
1
100
AcDbArc
50
210.00000000001876
51
300.00000000002564
0
LINE
5
123
100
AcDbEntity
8
CUTOUTS
100
AcDbLine
10
-50.970352585732215
20
-17.634959300028122
30
0
11
-52.670352585733241
21
-14.690472927161613
31
0
0
ARC
5
124
100
AcDbEntity
8
CUTOUTS
100
AcDbCircle
10
-52.410544964597975
20
-14.540472927161519
30
0
40
0.29999999999999022
210
0
220
0
230
1
100
AcDbArc
50
120.00000000001472
51
210.00000000002183
0
LINE
5
125
100
AcDbEntity
8
CUTOUTS
100
AcDbLine
10
-52.560544964598037
20
-14.280665306026233
30
0
11
-51.564615750244599
21
-13.705665306024954
31
0
0
ARC
5
126
100
AcDbEntity
8
CUTOUTS
100
AcDbCircle
10
-51.714615750244661
20
-13.445857684889674
30
0
40
0.29999999999998439
210
-0
220
0
230
1
100
AcDbArc
50
-59.999999999984773
51
29.99999999999881
0
LINE
5
127
100
AcDbEntity
8
CUTOUTS
100
AcDbLine
10
-51.454808129109338
20
-13.295857684889686
30
0
11
-52.448558129109145
21
-11.574632194868277
31
0
0
ARC
5
128
100
AcDbEntity
8
CUTOUTS
100
AcDbCircle
10
27.043488721924763
20
12.582453585816729
30
0
40
0.29999999999999805
210
0
220
0
230
1
100
AcDbArc
50
180
51
269.99999999999932
0
LINE
5
129
100
AcDbEntity
8
CUTOUTS
100
AcDbLine
10
40.343488721924757
20
12.282453585816731
30
0
11
27.04348872192476
21
12.282453585816731
31
0
0
ARC
5
12A
100
AcDbEntity
8
CUTOUTS
100
AcDbCircle
10
40.343488721924757
20
12.582453585816724
30
0
40
0.29999999999999361
210
-0
220
0
230
1
100
AcDbArc
50
-90
51
0
0
LINE
5
12B
100
AcDbEntity
8
CUTOUTS
100
AcDbLine
10
40.643488721924754
20
25.882453585816751
30
0
11
40.643488721924747
21
12.582453585816724
31
0
0
ARC
5
12C
100
AcDbEntity
8
CUTOUTS
100
AcDbCircle
10
40.343488721924757
20
25.882453585816755
30
0
40
0.29999999999999361
210
-0
220
0
230
1
100
AcDbArc
50
0
51
90.000000000001364
0
LINE
5
12D
100
AcDbEntity
8
CUTOUTS
100
AcDbLine
10
27.04348872192476
20
26.182453585816749
30
0
11
40.343488721924757
21
26.182453585816752
31
0
0
ARC
5
12E
100
AcDbEntity
8
CUTOUTS
100
AcDbCircle
10
27.043488721924753
20
25.882453585816762
30
0
40
0.29999999999998916
210
0
220
-0
230
1
100
AcDbArc
50
89.99999999999865
51
180
0
LINE
5
12F
100
AcDbEntity
8
CUTOUTS
100
AcDbLine
10
26.743488721924766
20
12.582453585816724
30
0
11
26.743488721924756
21
25.882453585816751
31
0
0
LINE
5
130
100
AcDbEntity
8
CUTOUTS
100
AcDbLine
10
7.693488721924675
20
-0.46754641418318199
30
0
11
7.6934887219246484
21
12.832453585816825
31
0
0
ARC
5
131
100
AcDbEntity
8
CUTOUTS
100
AcDbCircle
10
7.9934887219246598
20
12.832453585816822
30
0
40
0.30000000000000693
210
0
220
-0
230
1
100
AcDbArc
50
89.999999999998295
51
180
0
LINE
5
132
100
AcDbEntity
8
CUTOUTS
100
AcDbLine
10
7.9934887219246686
20
13.132453585816828
30
0
11
21.293488721924668
21
13.132453585816828
31
0
0
ARC
5
133
100
AcDbEntity
8
CUTOUTS
100
AcDbCircle
10
21.293488721924668
20
12.832453585816825
30
0
40
0.30000000000000249
210
0
220
-0
230
1
100
AcDbArc
50
0
51
90
0
LINE
5
134
100
AcDbEntity
8
CUTOUTS
100
AcDbLine
10
21.593488721924672
20
12.832453585816829
30
0
11
21.593488721924672
21
-0.46754641418318421
31
0
0
ARC
5
135
100
AcDbEntity
8
CUTOUTS
100
AcDbCircle
10
21.293488721924682
20
-0.46754641418319087
30
0
40
0.29999999999998916
210
0
220
0
230
1
100
AcDbArc
50
-90.000000000000711
51
0
0
LINE
5
136
100
AcDbEntity
8
CUTOUTS
100
AcDbLine
10
21.293488721924678
20
-0.76754641418318004
30
0
11
7.9934887219246598
21
-0.76754641418318004
31
0
0
ARC
5
137
100
AcDbEntity
8
CUTOUTS
100
AcDbCircle
10
7.9934887219246775
20
-0.46754641418317755
30
0
40
0.30000000000000249
210
0
220
0
230
1
100
AcDbArc
50
180
51
269.99999999999659
0
ARC
5
138
100
AcDbEntity
8
CUTOUTS
100
AcDbCircle
10
2.2434887219246935
20
6.3324535858168174
30
0
40
0.30000000000000249
210
-0
220
0
230
1
100
AcDbArc
50
0
51
89.999999999998295
0
LINE
5
139
100
AcDbEntity
8
CUTOUTS
100
AcDbLine
10
-11.056511278075289
20
6.6324535858168154
30
0
11
2.2434887219247024
21
6.6324535858168199
31
0
0
ARC
5
13A
100
AcDbEntity
8
CUTOUTS
100
AcDbCircle
10
-11.056511278075298
20
6.3324535858168147
30
0
40
0.30000000000000027
210
0
220
-0
230
1
100
AcDbArc
50
89.999999999998295
51
180
0
LINE
5
13B
100
AcDbEntity
8
CUTOUTS
100
AcDbLine
10
-11.35651127807531
20
-6.9675464141831878
30
0
11
-11.356511278075301
21
6.3324535858168129
31
0
0
ARC
5
13C
100
AcDbEntity
8
CUTOUTS
100
AcDbCircle
10
-11.056511278075298
20
-6.9675464141831771
30
0
40
0.30000000000001137
210
0
220
0
230
1
100
AcDbArc
50
180
51
270
0
LINE
5
13D
100
AcDbEntity
8
CUTOUTS
100
AcDbLine
10
2.2434887219246935
20
-7.2675464141831885
30
0
11
-11.056511278075298
21
-7.2675464141831885
31
0
0
ARC
5
13E
100
AcDbEntity
8
CUTOUTS
100
AcDbCircle
10
2.2434887219247024
20
-6.9675464141831922
30
0
40
0.29999999999999583
210
0
220
0
230
1
100
AcDbArc
50
-90.00000000000172
51
0
0
LINE
5
13F
100
AcDbEntity
8
CUTOUTS
100
AcDbLine
10
2.543488721924696
20
6.3324535858168129
30
0
11
2.543488721924696
21
-6.9675464141831878
31
0
0
LINE
5
140
100
AcDbEntity
8
CUTOUTS
100
AcDbLine
10
-30.406511278075357
20
-9.4675464141831505
30
0
11
-30.406511278075357
21
3.8324535858168041
31
0
0
ARC
5
141
100
AcDbEntity
8
CUTOUTS
100
AcDbCircle
10
-30.106511278075345
20
3.832453585816793
30
0
40
0.30000000000001359
210
0
220
-0
230
1
100
AcDbArc
50
90
51
180
0
LINE
5
142
100
AcDbEntity
8
CUTOUTS
100
AcDbLine
10
-30.106511278075345
20
4.1324535858168066
30
0
11
-16.806511278075362
21
4.1324535858168083
31
0
0
ARC
5
143
100
AcDbEntity
8
CUTOUTS
100
AcDbCircle
10
-16.806511278075355
20
3.8324535858167974
30
0
40
0.30000000000001137
210
0
220
-0
230
1
100
AcDbArc
50
0
51
90.000000000001364
0
LINE
5
144
100
AcDbEntity
8
CUTOUTS
100
AcDbLine
10
-16.506511278075344
20
3.8324535858168018
30
0
11
-16.506511278075344
21
-9.4675464141831522
31
0
0
ARC
5
145
100
AcDbEntity
8
CUTOUTS
100
AcDbCircle
10
-16.806511278075334
20
-9.4675464141831576
30
0
40
0.29999999999999472
210
0
220
0
230
1
100
AcDbArc
50
-90.000000000002032
51
0
0
LINE
5
146
100
AcDbEntity
8
CUTOUTS
100
AcDbLine
10
-16.806511278075345
20
-9.7675464141831512
30
0
11
-30.106511278075381
21
-9.7675464141831458
31
0
0
ARC
5
147
100
AcDbEntity
8
CUTOUTS
100
AcDbCircle
10
-30.106511278075381
20
-9.46754641418317
30
0
40
0.29999999999997584
210
0
220
0
230
1
100
AcDbArc
50
180
51
270
0
LINE
5
148
100
AcDbEntity
8
CUTOUTS
100
AcDbLine
10
-16.506511278075344
20
22.882453585816826
30
0
11
-16.506511278075344
21
9.5824535858168503
31
0
0
ARC
5
149
100
AcDbEntity
8
CUTOUTS
100
AcDbCircle
10
-16.806511278075334
20
9.5824535858168503
30
0
40
0.29999999999999361
210
0
220
0
230
1
100
AcDbArc
50
-90.000000000002032
51
0
0
LINE
5
14A
100
AcDbEntity
8
CUTOUTS
100
AcDbLine
10
-16.806511278075345
20
9.2824535858168566
30
0
11
-30.106511278075381
21
9.2824535858168566
31
0
0
ARC
5
14B
100
AcDbEntity
8
CUTOUTS
100
AcDbCircle
10
-30.106511278075381
20
9.5824535858168325
30
0
40
0.29999999999997584
210
0
220
0
230
1
100
AcDbArc
50
180
51
270
0
LINE
5
14C
100
AcDbEntity
8
CUTOUTS
100
AcDbLine
10
-30.406511278075357
20
9.5824535858168538
30
0
11
-30.406511278075357
21
22.882453585816826
31
0
0
ARC
5
14D
100
AcDbEntity
8
CUTOUTS
100
AcDbCircle
10
-30.106511278075363
20
22.882453585816819
30
0
40
0.29999999999999361
210
0
220
-0
230
1
100
AcDbArc
50
89.999999999996618
51
180
0
LINE
5
14E
100
AcDbEntity
8
CUTOUTS
100
AcDbLine
10
-30.106511278075345
20
23.182453585816813
30
0
11
-16.806511278075345
21
23.182453585816813
31
0
0
ARC
5
14F
100
AcDbEntity
8
CUTOUTS
100
AcDbCircle
10
-16.806511278075334
20
22.882453585816819
30
0
40
0.29999999999999361
210
0
220
-0
230
1
100
AcDbArc
50
0
51
90.000000000002032
0
ARC
5
150
100
AcDbEntity
8
CUTOUTS
100
AcDbCircle
10
21.293488721924657
20
31.882453585816837
30
0
40
0.30000000000000693
210
-0
220
0
230
1
100
AcDbArc
50
0
51
89.999999999996618
0
LINE
5
151
100
AcDbEntity
8
CUTOUTS
100
AcDbLine
10
7.9934887219246686
20
32.182453585816837
30
0
11
21.293488721924675
21
32.182453585816837
31
0
0
ARC
5
152
100
AcDbEntity
8
CUTOUTS
100
AcDbCircle
10
7.9934887219246509
20
31.882453585816837
30
0
40
0.30000000000000249
210
0
220
-0
230
1
100
AcDbArc
50
89.999999999996618
51
180
0
LINE
5
153
100
AcDbEntity
8
CUTOUTS
100
AcDbLine
10
7.693488721924675
20
18.582453585816818
30
0
11
7.6934887219246484
21
31.882453585816826
31
0
0
ARC
5
154
100
AcDbEntity
8
CUTOUTS
100
AcDbCircle
10
7.9934887219246864
20
18.582453585816832
30
0
40
0.30000000000001137
210
0
220
0
230
1
100
AcDbArc
50
180
51
269.99999999999829
0
LINE
5
155
100
AcDbEntity
8
CUTOUTS
100
AcDbLine
10
21.293488721924678
20
18.282453585816821
30
0
11
7.9934887219246775
21
18.282453585816821
31
0
0
ARC
5
156
100
AcDbEntity
8
CUTOUTS
100
AcDbCircle
10
21.293488721924689
20
18.582453585816808
30
0
40
0.29999999999998916
210
0
220
0
230
1
100
AcDbArc
50
-90.000000000002032
51
0
0
LINE
5
157
100
AcDbEntity
8
CUTOUTS
100
AcDbLine
10
21.593488721924665
20
31.882453585816826
30
0
11
21.593488721924679
21
18.582453585816818
31
0
0
LINE
5
158
100
AcDbEntity
8
CUTOUTS
100
AcDbLine
10
-11.056511278075289
20
25.682453585816813
30
0
11
2.2434887219247024
21
25.682453585816813
31
0
0
ARC
5
159
100
AcDbEntity
8
CUTOUTS
100
AcDbCircle
10
2.2434887219247113
20
25.38245358581683
30
0
40
0.29999999999998472
210
-0
220
0
230
1
100
AcDbArc
50
0
51
90.000000000001705
0
LINE
5
15A
100
AcDbEntity
8
CUTOUTS
100
AcDbLine
10
2.543488721924696
20
25.382453585816826
30
0
11
2.543488721924696
21
12.082453585816815
31
0
0
ARC
5
15B
100
AcDbEntity
8
CUTOUTS
100
AcDbCircle
10
2.2434887219246757
20
12.082453585816829
30
0
40
0.30000000000001581
210
-0
220
0
230
1
100
AcDbArc
50
270.00000000000335
51
360
0
LINE
5
15C
100
AcDbEntity
8
CUTOUTS
100
AcDbLine
10
2.2434887219246935
20
11.782453585816812
30
0
11
-11.056511278075298
21
11.782453585816818
31
0
0
ARC
5
15D
100
AcDbEntity
8
CUTOUTS
100
AcDbCircle
10
-11.056511278075307
20
12.082453585816818
30
0
40
0.30000000000000249
210
0
220
0
230
1
100
AcDbArc
50
180
51
270.00000000000171
0
LINE
5
15E
100
AcDbEntity
8
CUTOUTS
100
AcDbLine
10
-11.35651127807531
20
12.082453585816811
30
0
11
-11.356511278075292
21
25.382453585816826
31
0
0
ARC
5
15F
100
AcDbEntity
8
CUTOUTS
100
AcDbCircle
10
-11.056511278075281
20
25.382453585816805
30
0
40
0.30000000000000693
210
0
220
0
230
1
100
AcDbArc
50
90.000000000001705
51
180
0
LINE
5
160
100
AcDbEntity
8
CUTOUTS
100
AcDbLine
10
0.70759738904365044
20
-12.437374233968654
30
0
11
14.007597389043713
21
-12.437374233968598
31
0
0
ARC
5
161
100
AcDbEntity
8
CUTOUTS
100
AcDbCircle
10
14.007597389043717
20
-12.737374233968595
30
0
40
0.29999999999999805
210
-0
220
0
230
1
100
AcDbArc
50
0
51
90.000000000000696
0
LINE
5
162
100
AcDbEntity
8
CUTOUTS
100
AcDbLine
10
14.307597389043716
20
-12.737374233968596
30
0
11
14.307597389043707
21
-26.037374233968738
31
0
0
ARC
5
163
100
AcDbEntity
8
CUTOUTS
100
AcDbCircle
10
14.007597389043704
20
-26.037374233968727
30
0
40
0.30000000000000249
210
-0
220
0
230
1
100
AcDbArc
50
270
51
360
0
LINE
5
164
100
AcDbEntity
8
CUTOUTS
100
AcDbLine
10
14.007597389043704
20
-26.337374233968731
30
0
11
0.70759738904369485
21
-26.337374233968713
31
0
0
ARC
5
165
100
AcDbEntity
8
CUTOUTS
100
AcDbCircle
10
0.70759738904369485
20
-26.037374233968713
30
0
40
0.30000000000000249
210
0
220
0
230
1
100
AcDbArc
50
180
51
270
0
LINE
5
166
100
AcDbEntity
8
CUTOUTS
100
AcDbLine
10
0.40759738904369236
20
-26.037374233968716
30
0
11
0.40759738904365683
21
-12.737374233968648
31
0
0
ARC
5
167
100
AcDbEntity
8
CUTOUTS
100
AcDbCircle
10
0.70759738904365044
20
-12.737374233968648
30
0
40
0.29999999999999361
210
0
220
-0
230
1
100
AcDbArc
50
90
51
180
0
ARC
5
168
100
AcDbEntity
8
CUTOUTS
100
AcDbCircle
10
59.39348872192479
20
-5.1675464141831418
30
0
40
0.30000000000000249
210
-0
220
0
230
1
100
AcDbArc
50
0
51
90.000000000001364
0
LINE
5
169
100
AcDbEntity
8
CUTOUTS
100
AcDbLine
10
46.093488721924629
20
-4.8675464141831419
30
0
11
59.393488721924783
21
-4.8675464141831419
31
0
0
ARC
5
16A
100
AcDbEntity
8
CUTOUTS
100
AcDbCircle
10
46.093488721924636
20
-5.1675464141831418
30
0
40
0.30000000000000027
210
0
220
-0
230
1
100
AcDbArc
50
90
51
180
0
LINE
5
16B
100
AcDbEntity
8
CUTOUTS
100
AcDbLine
10
45.793488721924632
20
-18.467546414183143
30
0
11
45.793488721924632
21
-5.1675464141831462
31
0
0
ARC
5
16C
100
AcDbEntity
8
CUTOUTS
100
AcDbCircle
10
46.093488721924636
20
-18.467546414183143
30
0
40
0.30000000000000249
210
0
220
0
230
1
100
AcDbArc
50
180
51
270
0
LINE
5
16D
100
AcDbEntity
8
CUTOUTS
100
AcDbLine
10
59.393488721924641
20
-18.767546414183144
30
0
11
46.093488721924636
21
-18.767546414183141
31
0
0
ARC
5
16E
100
AcDbEntity
8
CUTOUTS
100
AcDbCircle
10
59.393488721924641
20
-18.467546414183143
30
0
40
0.30000000000000249
210
-0
220
0
230
1
100
AcDbArc
50
270
51
360
0
LINE
5
16F
100
AcDbEntity
8
CUTOUTS
100
AcDbLine
10
59.69348872192478
20
-5.1675464141831462
30
0
11
59.693488721924652
21
-18.467546414183147
31
0
0
LINE
5
170
100
AcDbEntity
8
CUTOUTS
100
AcDbLine
10
2.2434887219246935
20
30.832453585816815
30
0
11
-11.056511278075298
21
30.832453585816808
31
0
0
ARC
5
171
100
AcDbEntity
8
CUTOUTS
100
AcDbCircle
10
-11.056511278075307
20
31.132453585816808
30
0
40
0.30000000000000249
210
0
220
0
230
1
100
AcDbArc
50
180
51
270.00000000000171
0
LINE
5
172
100
AcDbEntity
8
CUTOUTS
100
AcDbLine
10
-11.35651127807531
20
31.132453585816826
30
0
11
-11.356511278075292
21
44.432453585816816
31
0
0
ARC
5
173
100
AcDbEntity
8
CUTOUTS
100
AcDbCircle
10
-11.056511278075263
20
44.432453585816788
30
0
40
0.30000000000002913
210
0
220
0
230
1
100
AcDbArc
50
90.000000000005087
51
180
0
LINE
5
174
100
AcDbEntity
8
CUTOUTS
100
AcDbLine
10
-11.056511278075289
20
44.73245358581682
30
0
11
2.2434887219247024
21
44.73245358581682
31
0
0
ARC
5
175
100
AcDbEntity
8
CUTOUTS
100
AcDbCircle
10
2.2434887219247113
20
44.432453585816837
30
0
40
0.29999999999998472
210
-0
220
0
230
1
100
AcDbArc
50
0
51
90.000000000001705
0
LINE
5
176
100
AcDbEntity
8
CUTOUTS
100
AcDbLine
10
2.543488721924696
20
44.432453585816816
30
0
11
2.543488721924696
21
31.132453585816826
31
0
0
ARC
5
177
100
AcDbEntity
8
CUTOUTS
100
AcDbCircle
10
2.2434887219246846
20
31.132453585816826
30
0
40
0.30000000000001137
210
-0
220
0
230
1
100
AcDbArc
50
-89.999999999998323
51
0
0
LINE
5
178
100
AcDbEntity
8
CUTOUTS
100
AcDbLine
10
59.393488721924641
20
19.332453585816857
30
0
11
46.093488721924636
21
19.332453585816872
31
0
0
ARC
5
179
100
AcDbEntity
8
CUTOUTS
100
AcDbCircle
10
46.093488721924629
20
19.632453585816869
30
0
40
0.29999999999999361
210
0
220
0
230
1
100
AcDbArc
50
180
51
270.00000000000131
0
LINE
5
17A
100
AcDbEntity
8
CUTOUTS
100
AcDbLine
10
45.793488721924632
20
19.632453585816858
30
0
11
45.793488721924632
21
32.932453585816859
31
0
0
ARC
5
17B
100
AcDbEntity
8
CUTOUTS
100
AcDbCircle
10
46.093488721924629
20
32.932453585816866
30
0
40
0.29999999999999361
210
0
220
-0
230
1
100
AcDbArc
50
89.99999999999865
51
180
0
LINE
5
17C
100
AcDbEntity
8
CUTOUTS
100
AcDbLine
10
46.093488721924636
20
33.232453585816863
30
0
11
59.39348872192479
21
33.232453585816863
31
0
0
ARC
5
17D
100
AcDbEntity
8
CUTOUTS
100
AcDbCircle
10
59.39348872192479
20
32.932453585816866
30
0
40
0.29999999999999361
210
-0
220
0
230
1
100
AcDbArc
50
0
51
90.000000000001364
0
LINE
5
17E
100
AcDbEntity
8
CUTOUTS
100
AcDbLine
10
59.69348872192478
20
32.932453585816859
30
0
11
59.693488721924638
21
19.632453585816855
31
0
0
ARC
5
17F
100
AcDbEntity
8
CUTOUTS
100
AcDbCircle
10
59.393488721924641
20
19.632453585816862
30
0
40
0.30000000000000693
210
-0
220
0
230
1
100
AcDbArc
50
270
51
360
0
LINE
5
180
100
AcDbEntity
8
CUTOUTS
100
AcDbLine
10
-5.6108984026763764
20
-27.169219985944082
30
0
11
-18.457711892321065
21
-30.611513285807366
31
0
0
ARC
5
181
100
AcDbEntity
8
CUTOUTS
100
AcDbCircle
10
-18.535357605851814
20
-30.321735537920645
30
0
40
0.30000000000000226
210
0
220
0
230
1
100
AcDbArc
50
194.99999999999727
51
284.99999999999858
0
LINE
5
182
100
AcDbEntity
8
CUTOUTS
100
AcDbLine
10
-18.825135353738538
20
-30.399381251451388
30
0
11
-22.267428653601709
21
-17.552567761807136
31
0
0
ARC
5
183
100
AcDbEntity
8
CUTOUTS
100
AcDbCircle
10
-21.977650905714974
20
-17.47492204827639
30
0
40
0.30000000000000576
210
0
220
0
230
1
100
AcDbArc
50
104.99999999999991
51
194.9999999999969
0
LINE
5
184
100
AcDbEntity
8
CUTOUTS
100
AcDbLine
10
-22.05529661924573
20
-17.185144300389666
30
0
11
-9.2084831296013814
21
-13.742851000526279
31
0
0
ARC
5
185
100
AcDbEntity
8
CUTOUTS
100
AcDbCircle
10
-9.1308374160706318
20
-14.032628748413011
30
0
40
0.30000000000000687
210
0
220
-0
230
1
100
AcDbArc
50
15.000000000001124
51
104.99999999999825
0
LINE
5
186
100
AcDbEntity
8
CUTOUTS
100
AcDbLine
10
-8.841059668183906
20
-13.954983034882249
30
0
11
-5.3987663683204268
21
-26.801796524526608
31
0
0
ARC
5
187
100
AcDbEntity
8
CUTOUTS
100
AcDbCircle
10
-5.6885441162071348
20
-26.879442238057372
30
0
40
0.29999999999998855
210
-0
220
0
230
1
100
AcDbArc
50
-74.999999999999105
51
15.000000000002087
0
LINE
5
188
100
AcDbEntity
8
CUTOUTS
100
AcDbLine
10
-16.806511278075345
20
28.33245358581685
30
0
11
-30.106511278075399
21
28.33245358581685
31
0
0
ARC
5
189
100
AcDbEntity
8
CUTOUTS
100
AcDbCircle
10
-30.106511278075381
20
28.632453585816826
30
0
40
0.29999999999997584
210
0
220
0
230
1
100
AcDbArc
50
180
51
269.99999999999659
0
LINE
5
18A
100
AcDbEntity
8
CUTOUTS
100
AcDbLine
10
-30.406511278075357
20
28.632453585816855
30
0
11
-30.406511278075357
21
41.932453585816816
31
0
0
ARC
5
18B
100
AcDbEntity
8
CUTOUTS
100
AcDbCircle
10
-30.106511278075345
20
41.932453585816809
30
0
40
0.30000000000001137
210
0
220
-0
230
1
100
AcDbArc
50
90
51
180
0
LINE
5
18C
100
AcDbEntity
8
CUTOUTS
100
AcDbLine
10
-30.106511278075345
20
42.23245358581682
30
0
11
-16.806511278075355
21
42.23245358581682
31
0
0
ARC
5
18D
100
AcDbEntity
8
CUTOUTS
100
AcDbCircle
10
-16.806511278075355
20
41.932453585816809
30
0
40
0.30000000000001137
210
0
220
-0
230
1
100
AcDbArc
50
0
51
90
0
LINE
5
18E
100
AcDbEntity
8
CUTOUTS
100
AcDbLine
10
-16.506511278075344
20
41.932453585816816
30
0
11
-16.506511278075344
21
28.632453585816855
31
0
0
ARC
5
18F
100
AcDbEntity
8
CUTOUTS
100
AcDbCircle
10
-16.806511278075345
20
28.632453585816855
30
0
40
0.30000000000000249
210
-0
220
0
230
1
100
AcDbArc
50
-90
51
0
0
LINE
5
190
100
AcDbEntity
8
CUTOUTS
100
AcDbLine
10
78.743488721924692
20
13.882443585816851
30
0
11
78.743488721924692
21
0.58244358581680089
31
0
0
ARC
5
191
100
AcDbEntity
8
CUTOUTS
100
AcDbCircle
10
78.443488721924695
20
0.58244358581679645
30
0
40
0.29999999999999361
210
-0
220
0
230
1
100
AcDbArc
50
-90
51
0
0
LINE
5
192
100
AcDbEntity
8
CUTOUTS
100
AcDbLine
10
78.443488721924695
20
0.28244358581680284
30
0
11
65.143488721924697
21
0.28244358581680729
31
0
0
ARC
5
193
100
AcDbEntity
8
CUTOUTS
100
AcDbCircle
10
65.143488721924697
20
0.58244358581681865
30
0
40
0.30000000000000249
210
0
220
0
230
1
100
AcDbArc
50
180
51
269.99999999999721
0
LINE
5
194
100
AcDbEntity
8
CUTOUTS
100
AcDbLine
10
64.843488721924686
20
0.58244358581681199
30
0
11
64.843488721924672
21
13.882443585816846
31
0
0
ARC
5
195
100
AcDbEntity
8
CUTOUTS
100
AcDbCircle
10
65.143488721924683
20
13.882443585816851
30
0
40
0.30000000000000249
210
0
220
-0
230
1
100
AcDbArc
50
90
51
180
0
LINE
5
196
100
AcDbEntity
8
CUTOUTS
100
AcDbLine
10
65.143488721924683
20
14.182443585816852
30
0
11
78.443488721924695
21
14.182443585816852
31
0
0
ARC
5
197
100
AcDbEntity
8
CUTOUTS
100
AcDbCircle
10
78.443488721924695
20
13.882443585816858
30
0
40
0.29999999999999361
210
-0
220
0
230
1
100
AcDbArc
50
0
51
90
0
LINE
5
198
100
AcDbEntity
8
CUTOUTS
100
AcDbLine
10
21.293488721924678
20
37.332453585816836
30
0
11
7.9934887219246686
21
37.332453585816836
31
0
0
ARC
5
199
100
AcDbEntity
8
CUTOUTS
100
AcDbCircle
10
7.9934887219246598
20
37.632453585816819
30
0
40
0.29999999999998472
210
0
220
0
230
1
100
AcDbArc
50
180
51
270.00000000000171
0
LINE
5
19A
100
AcDbEntity
8
CUTOUTS
100
AcDbLine
10
7.693488721924675
20
37.63245358581684
30
0
11
7.6934887219246573
21
50.932453585816837
31
0
0
ARC
5
19B
100
AcDbEntity
8
CUTOUTS
100
AcDbCircle
10
7.9934887219246509
20
50.932453585816837
30
0
40
0.29999999999999361
210
0
220
-0
230
1
100
AcDbArc
50
89.999999999996618
51
180
0
LINE
5
19C
100
AcDbEntity
8
CUTOUTS
100
AcDbLine
10
7.9934887219246686
20
51.232453585816835
30
0
11
21.293488721924668
21
51.232453585816835
31
0
0
ARC
5
19D
100
AcDbEntity
8
CUTOUTS
100
AcDbCircle
10
21.293488721924657
20
50.93245358581683
30
0
40
0.30000000000000693
210
-0
220
0
230
1
100
AcDbArc
50
0
51
89.999999999997954
0
LINE
5
19E
100
AcDbEntity
8
CUTOUTS
100
AcDbLine
10
21.593488721924665
20
50.932453585816823
30
0
11
21.593488721924672
21
37.632453585816833
31
0
0
ARC
5
19F
100
AcDbEntity
8
CUTOUTS
100
AcDbCircle
10
21.293488721924668
20
37.63245358581684
30
0
40
0.30000000000000249
210
-0
220
0
230
1
100
AcDbArc
50
270.00000000000205
51
360
0
LINE
5
1A0
100
AcDbEntity
8
CUTOUTS
100
AcDbLine
10
26.743488721924766
20
31.632453585816727
30
0
11
26.743488721924763
21
44.932453585816752
31
0
0
ARC
5
1A1
100
AcDbEntity
8
CUTOUTS
100
AcDbCircle
10
27.043488721924763
20
44.932453585816752
30
0
40
0.30000000000000249
210
0
220
0
230
1
100
AcDbArc
50
90.000000000000696
51
180
0
LINE
5
1A2
100
AcDbEntity
8
CUTOUTS
100
AcDbLine
10
27.04348872192476
20
45.232453585816756
30
0
11
40.343488721924757
21
45.232453585816756
31
0
0
ARC
5
1A3
100
AcDbEntity
8
CUTOUTS
100
AcDbCircle
10
40.343488721924757
20
44.932453585816759
30
0
40
0.29999999999999361
210
-0
220
0
230
1
100
AcDbArc
50
0
51
90
0
LINE
5
1A4
100
AcDbEntity
8
CUTOUTS
100
AcDbLine
10
40.643488721924754
20
44.932453585816752
30
0
11
40.643488721924754
21
31.632453585816744
31
0
0
ARC
5
1A5
100
AcDbEntity
8
CUTOUTS
100
AcDbCircle
10
40.34348872192475
20
31.632453585816727
30
0
40
0.30000000000000249
210
-0
220
0
230
1
100
AcDbArc
50
-89.999999999998678
51
0
0
LINE
5
1A6
100
AcDbEntity
8
CUTOUTS
100
AcDbLine
10
40.343488721924757
20
31.332453585816722
30
0
11
27.04348872192476
21
31.332453585816722
31
0
0
ARC
5
1A7
100
AcDbEntity
8
CUTOUTS
100
AcDbCircle
10
27.043488721924781
20
31.632453585816744
30
0
40
0.30000000000001581
210
0
220
0
230
1
100
AcDbArc
50
180
51
269.99999999999591
0
LINE
5
1A8
100
AcDbEntity
8
CUTOUTS
100
AcDbLine
10
-73.623494131198129
20
-29.685360827214495
30
0
11
-61.567323511972546
21
-17.629190207982642
31
0
0
ARC
5
1A9
100
AcDbEntity
8
CUTOUTS
100
AcDbCircle
10
-61.355191477616522
20
-17.841322242338574
30
0
40
0.30000000000001859
210
0
220
-0
230
1
100
AcDbArc
50
45.000000000012477
51
135.00000000001251
0
LINE
5
1AA
100
AcDbEntity
8
CUTOUTS
100
AcDbLine
10
-61.14305944326059
20
-17.62919020798255
30
0
11
-55.079618794584313
21
-23.69263085665569
31
0
0
ARC
5
1AB
100
AcDbEntity
8
CUTOUTS
100
AcDbCircle
10
-55.291750828940224
20
-23.9047628910117
30
0
40
0.29999999999999816
210
-0
220
0
230
1
100
AcDbArc
50
-44.999999999989463
51
45.000000000013436
0
LINE
5
1AC
100
AcDbEntity
8
CUTOUTS
100
AcDbLine
10
-55.079618794584221
20
-24.116894925367621
30
0
11
-57.307005155321455
21
-26.344281286106099
31
0
0
ARC
5
1AD
100
AcDbEntity
8
CUTOUTS
100
AcDbCircle
10
-57.094873120965381
20
-26.556413320461996
30
0
40
0.30000000000002958
210
0
220
0
230
1
100
AcDbArc
50
135.00000000002399
51
224.99999999999568
0
LINE
5
1AE
100
AcDbEntity
8
CUTOUTS
100
AcDbLine
10
-57.307005155321384
20
-26.768545354817967
30
0
11
-47.407510218710307
21
-36.668040291429058
31
0
0
ARC
5
1AF
100
AcDbEntity
8
CUTOUTS
100
AcDbCircle
10
-47.195378184354354
20
-36.455908257073112
30
0
40
0.29999999999997617
210
0
220
0
230
1
100
AcDbArc
50
224.99999999999903
51
314.99999999998465
0
LINE
5
1B0
100
AcDbEntity
8
CUTOUTS
100
AcDbLine
10
-46.983246149998465
20
-36.668040291429115
30
0
11
-44.755859789259645
21
-34.440653930691326
31
0
0
ARC
5
1B1
100
AcDbEntity
8
CUTOUTS
100
AcDbCircle
10
-44.543727754903735
20
-34.652785965047372
30
0
40
0.30000000000002325
210
0
220
-0
230
1
100
AcDbArc
50
44.999999999994245
51
134.99999999998178
0
LINE
5
1B2
100
AcDbEntity
8
CUTOUTS
100
AcDbLine
10
-44.331595720547732
20
-34.440653930691411
30
0
11
-38.268155071873693
21
-40.50409457936653
31
0
0
ARC
5
1B3
100
AcDbEntity
8
CUTOUTS
100
AcDbCircle
10
-38.480287106229639
20
-40.716226613722483
30
0
40
0.29999999999997928
210
-0
220
0
230
1
100
AcDbArc
50
-45
51
45.000000000000959
0
LINE
5
1B4
100
AcDbEntity
8
CUTOUTS
100
AcDbLine
10
-38.268155071873693
20
-40.928358648078429
30
0
11
-50.32432569110469
21
-52.98452926730878
31
0
0
ARC
5
1B5
100
AcDbEntity
8
CUTOUTS
100
AcDbCircle
10
-50.536457725460622
20
-52.772397232952798
30
0
40
0.29999999999999188
210
0
220
0
230
1
100
AcDbArc
50
224.99999999999233
51
314.99999999999329
0
LINE
5
1B6
100
AcDbEntity
8
CUTOUTS
100
AcDbLine
10
-50.74858975981661
20
-52.98452926730873
30
0
11
-52.153964487427977
21
-51.579154539697413
31
0
0
ARC
5
1B7
100
AcDbEntity
8
CUTOUTS
100
AcDbCircle
10
-52.36609652178398
20
-51.791286574053331
30
0
40
0.29999999999999816
210
0
220
-0
230
1
100
AcDbArc
50
44.999999999988482
51
134.99999999998656
0
LINE
5
1B8
100
AcDbEntity
8
CUTOUTS
100
AcDbLine
10
-52.578228556139891
20
-51.579154539697321
30
0
11
-53.391401354504723
21
-52.392327338061747
31
0
0
ARC
5
1B9
100
AcDbEntity
8
CUTOUTS
100
AcDbCircle
10
-53.603533388860605
20
-52.180195303705752
30
0
40
0.29999999999996674
210
0
220
0
230
1
100
AcDbArc
50
224.99999999998275
51
314.99999999998369
0
LINE
5
1BA
100
AcDbEntity
8
CUTOUTS
100
AcDbLine
10
-53.815665423216608
20
-52.392327338061627
30
0
11
-56.219828479250239
21
-49.988164282026695
31
0
0
ARC
5
1BB
100
AcDbEntity
8
CUTOUTS
100
AcDbCircle
10
-56.007696444894215
20
-49.776032247670763
30
0
40
0.30000000000001698
210
0
220
0
230
1
100
AcDbArc
50
134.99999999997888
51
224.99999999998752
0
LINE
5
1BC
100
AcDbEntity
8
CUTOUTS
100
AcDbLine
10
-56.219828479250111
20
-49.563900213314717
30
0
11
-55.406655680886573
21
-48.750727414951896
31
0
0
ARC
5
1BD
100
AcDbEntity
8
CUTOUTS
100
AcDbCircle
10
-55.618787715242476
20
-48.538595380595844
30
0
40
0.30000000000001698
210
-0
220
0
230
1
100
AcDbArc
50
-45.000000000020151
51
45.000000000000959
0
LINE
5
1BE
100
AcDbEntity
8
CUTOUTS
100
AcDbLine
10
-55.406655680886502
20
-48.326463346239862
30
0
11
-68.965428210131918
21
-34.767690816992967
31
0
0
ARC
5
1BF
100
AcDbEntity
8
CUTOUTS
100
AcDbCircle
10
-69.177560244487921
20
-34.979822851348963
30
0
40
0.30000000000004839
210
0
220
-0
230
1
100
AcDbArc
50
44.999999999999041
51
135.00000000001634
0
LINE
5
1C0
100
AcDbEntity
8
CUTOUTS
100
AcDbLine
10
-69.389692278843981
20
-34.767690816993017
30
0
11
-70.20286507720833
21
-35.58086361535775
31
0
0
ARC
5
1C1
100
AcDbEntity
8
CUTOUTS
100
AcDbCircle
10
-70.414997111564332
20
-35.368731581001775
30
0
40
0.30000000000003901
210
0
220
0
230
1
100
AcDbArc
50
225.0000000000307
51
315.00000000000574
0
LINE
5
1C2
100
AcDbEntity
8
CUTOUTS
100
AcDbLine
10
-70.627129145920208
20
-35.580863615357877
30
0
11
-73.031292201955452
21
-33.176700559324424
31
0
0
ARC
5
1C3
100
AcDbEntity
8
CUTOUTS
100
AcDbCircle
10
-72.819160167599577
20
-32.964568524968378
30
0
40
0.29999999999999188
210
0
220
0
230
1
100
AcDbArc
50
135.00000000001634
51
225.00000000002302
0
LINE
5
1C4
100
AcDbEntity
8
CUTOUTS
100
AcDbLine
10
-73.031292201955594
20
-32.752436490612482
30
0
11
-72.218119403590052
21
-31.939263692246342
31
0
0
ARC
5
1C5
100
AcDbEntity
8
CUTOUTS
100
AcDbCircle
10
-72.430251437946168
20
-31.727131657890453
30
0
40
0.30000000000004839
210
-0
220
0
230
1
100
AcDbArc
50
-44.999999999969312
51
44.999999999988006
0
LINE
5
1C6
100
AcDbEntity
8
CUTOUTS
100
AcDbLine
10
-72.218119403590123
20
-31.514999623534496
30
0
11
-73.6234941311981
21
-30.109624895926359
31
0
0
ARC
5
1C7
100
AcDbEntity
8
CUTOUTS
100
AcDbCircle
10
-73.411362096842097
20
-29.89749286157042
30
0
40
0.30000000000000754
210
0
220
0
230
1
100
AcDbArc
50
135.00000000001489
51
224.99999999999136
0
LINE
5
1C8
100
AcDbEntity
8
CUTOUTS
100
AcDbLine
10
59.69348872192478
20
13.882453585816856
30
0
11
59.693488721924652
21
0.58245358581685558
31
0
0
ARC
5
1C9
100
AcDbEntity
8
CUTOUTS
100
AcDbCircle
10
59.393488721924641
20
0.58245358581686446
30
0
40
0.30000000000000249
210
-0
220
0
230
1
100
AcDbArc
50
270
51
360
0
LINE
5
1CA
100
AcDbEntity
8
CUTOUTS
100
AcDbLine
10
59.393488721924641
20
0.28245358581686197
30
0
11
46.093488721924636
21
0.28245358581686197
31
0
0
ARC
5
1CB
100
AcDbEntity
8
CUTOUTS
100
AcDbCircle
10
46.093488721924629
20
0.58245358581685336
30
0
40
0.29999999999999361
210
0
220
0
230
1
100
AcDbArc
50
180
51
270.00000000000273
0
LINE
5
1CC
100
AcDbEntity
8
CUTOUTS
100
AcDbLine
10
45.793488721924632
20
0.58245358581685558
30
0
11
45.793488721924632
21
13.882453585816869
31
0
0
ARC
5
1CD
100
AcDbEntity
8
CUTOUTS
100
AcDbCircle
10
46.093488721924629
20
13.882453585816874
30
0
40
0.29999999999999805
210
0
220
-0
230
1
100
AcDbArc
50
90
51
180
0
LINE
5
1CE
100
AcDbEntity
8
CUTOUTS
100
AcDbLine
10
46.093488721924636
20
14.182453585816873
30
0
11
59.39348872192479
21
14.182453585816868
31
0
0
ARC
5
1CF
100
AcDbEntity
8
CUTOUTS
100
AcDbCircle
10
59.393488721924783
20
13.882453585816862
30
0
40
0.30000000000001137
210
-0
220
0
230
1
100
AcDbArc
50
0
51
89.99999999999865
0
CIRCLE
5
1D0
100
AcDbEntity
8
CUTOUTS
100
AcDbCircle
10
-80.197223045234495
20
-26.269284115279696
30
0
40
0.99999999999999645
210
0
220
0
230
1
0
CIRCLE
5
1D1
100
AcDbEntity
8
CUTOUTS
100
AcDbCircle
10
-47.099203456195191
20
-59.551587203224223
30
0
40
0.99999999999999645
210
0
220
0
230
1
0
CIRCLE
5
1D2
100
AcDbEntity
8
CUTOUTS
100
AcDbCircle
10
14.239081873629136
20
-33.701908260461224
30
0
40
1.0000000000000009
210
0
220
0
230
1
0
CIRCLE
5
1D3
100
AcDbEntity
8
CUTOUTS
100
AcDbCircle
10
80.987381367973057
20
-25.949280594719042
30
0
40
0.99999999999999645
210
0
220
0
230
1
0
CIRCLE
5
1D4
100
AcDbEntity
8
CUTOUTS
100
AcDbCircle
10
81.3512362353664
20
42.052205439739588
30
0
40
0.99999999999999645
210
0
220
0
230
1
0
CIRCLE
5
1D5
100
AcDbEntity
8
CUTOUTS
100
AcDbCircle
10
-25.499125969964346
20
56.056161503971573
30
0
40
0.99999999999999645
210
0
220
0
230
1
0
LINE
5
1D6
100
AcDbEntity
8
CUTOUTS
100
AcDbLine
10
78.743488721924692
20
32.932443585816856
30
0
11
78.743488721924692
21
19.632443585816802
31
0
0
ARC
5
1D7
100
AcDbEntity
8
CUTOUTS
100
AcDbCircle
10
78.443488721924695
20
19.632443585816798
30
0
40
0.29999999999998916
210
-0
220
0
230
1
100
AcDbArc
50
-90
51
0
0
LINE
5
1D8
100
AcDbEntity
8
CUTOUTS
100
AcDbLine
10
78.443488721924709
20
19.332443585816812
30
0
11
65.143488721924683
21
19.332443585816812
31
0
0
ARC
5
1D9
100
AcDbEntity
8
CUTOUTS
100
AcDbCircle
10
65.143488721924697
20
19.632443585816823
30
0
40
0.30000000000001137
210
0
220
0
230
1
100
AcDbArc
50
180
51
270
0
LINE
5
1DA
100
AcDbEntity
8
CUTOUTS
100
AcDbLine
10
64.843488721924686
20
19.632443585816816
30
0
11
64.843488721924672
21
32.932443585816856
31
0
0
ARC
5
1DB
100
AcDbEntity
8
CUTOUTS
100
AcDbCircle
10
65.143488721924683
20
32.932443585816856
30
0
40
0.30000000000001137
210
0
220
0
230
1
100
AcDbArc
50
90
51
180
0
LINE
5
1DC
100
AcDbEntity
8
CUTOUTS
100
AcDbLine
10
65.143488721924683
20
33.232443585816867
30
0
11
78.44348872192468
21
33.232443585816867
31
0
0
ARC
5
1DD
100
AcDbEntity
8
CUTOUTS
100
AcDbCircle
10
78.44348872192468
20
32.93244358581687
30
0
40
0.30000000000000249
210
-0
220
0
230
1
100
AcDbArc
50
0
51
90
0
LINE
5
1DE
100
AcDbEntity
8
CUTOUTS
100
AcDbLine
10
65.143488721924683
20
-4.8675564141831531
30
0
11
78.44348872192468
21
-4.8675564141831504
31
0
0
ARC
5
1DF
100
AcDbEntity
8
CUTOUTS
100
AcDbCircle
10
78.44348872192468
20
-5.1675564141831529
30
0
40
0.30000000000000249
210
0
220
-0
230
1
100
AcDbArc
50
0
51
90
0
LINE
5
1E0
100
AcDbEntity
8
CUTOUTS
100
AcDbLine
10
78.743488721924692
20
-5.1675564141831529
30
0
11
78.743488721924692
21
-18.4675564141832
31
0
0
ARC
5
1E1
100
AcDbEntity
8
CUTOUTS
100
AcDbCircle
10
78.443488721924695
20
-18.467556414183207
30
0
40
0.29999999999999583
210
0
220
0
230
1
100
AcDbArc
50
-90.000000000002757
51
0
0
LINE
5
1E2
100
AcDbEntity
8
CUTOUTS
100
AcDbLine
10
78.44348872192468
20
-18.767556414183204
30
0
11
65.143488721924683
21
-18.767556414183197
31
0
0
ARC
5
1E3
100
AcDbEntity
8
CUTOUTS
100
AcDbCircle
10
65.143488721924697
20
-18.467556414183196
30
0
40
0.29999999999999361
210
0
220
0
230
1
100
AcDbArc
50
180
51
270
0
LINE
5
1E4
100
AcDbEntity
8
CUTOUTS
100
AcDbLine
10
64.843488721924686
20
-18.467556414183196
30
0
11
64.843488721924672
21
-5.1675564141831565
31
0
0
ARC
5
1E5
100
AcDbEntity
8
CUTOUTS
100
AcDbCircle
10
65.143488721924683
20
-5.1675564141831556
30
0
40
0.30000000000000249
210
0
220
-0
230
1
100
AcDbArc
50
90
51
180
0
LINE
5
1E6
100
AcDbEntity
8
CUTOUTS
100
AcDbLine
10
33.357597389043711
20
-12.737374233968596
30
0
11
33.357597389043711
21
-26.037374233968738
31
0
0
ARC
5
1E7
100
AcDbEntity
8
CUTOUTS
100
AcDbCircle
10
33.057597389043707
20
-26.037374233968727
30
0
40
0.30000000000000249
210
0
220
0
230
1
100
AcDbArc
50
269.99999999999864
51
360
0
LINE
5
1E8
100
AcDbEntity
8
CUTOUTS
100
AcDbLine
10
33.0575973890437
20
-26.337374233968731
30
0
11
19.757597389043706
21
-26.337374233968717
31
0
0
ARC
5
1E9
100
AcDbEntity
8
CUTOUTS
100
AcDbCircle
10
19.757597389043706
20
-26.037374233968713
30
0
40
0.30000000000000693
210
0
220
0
230
1
100
AcDbArc
50
180
51
270
0
LINE
5
1EA
100
AcDbEntity
8
CUTOUTS
100
AcDbLine
10
19.457597389043698
20
-26.037374233968716
30
0
11
19.457597389043659
21
-12.737374233968648
31
0
0
ARC
5
1EB
100
AcDbEntity
8
CUTOUTS
100
AcDbCircle
10
19.75759738904366
20
-12.737374233968657
30
0
40
0.30000000000000471
210
0
220
-0
230
1
100
AcDbArc
50
90
51
180
0
LINE
5
1EC
100
AcDbEntity
8
CUTOUTS
100
AcDbLine
10
19.75759738904366
20
-12.437374233968653
30
0
11
33.057597389043707
21
-12.437374233968598
31
0
0
ARC
5
1ED
100
AcDbEntity
8
CUTOUTS
100
AcDbCircle
10
33.057597389043714
20
-12.737374233968595
30
0
40
0.29999999999999805
210
-0
220
0
230
1
100
AcDbArc
50
0
51
90
0
LINE
5
1EE
100
AcDbEntity
8
PERIMETER
100
AcDbLine
10
9.8001099819656012
20
-30.757616672249863
30
0
11
9.8001099819655835
21
-34.86803639495578
31
0
0
ARC
5
1EF
100
AcDbEntity
8
PERIMETER
100
AcDbCircle
10
9.2920544403828309
20
-30.757616672249863
30
0
40
0.50805554158277033
210
0
220
-0
230
1
100
AcDbArc
50
0
51
90
0
LINE
5
1F0
100
AcDbEntity
8
PERIMETER
100
AcDbLine
10
6.5777099040452391
20
-30.249561130662059
30
0
11
9.2920544403828309
21
-30.249561130667093
31
0
0
ARC
5
1F1
100
AcDbEntity
8
PERIMETER
100
AcDbCircle
10
6.5777099040187093
20
-99.590724850993055
30
0
40
69.341163720331011
210
0
220
-0
230
1
100
AcDbArc
50
89.999999999978073
51
137.69415602849713
0
ARC
5
1F2
100
AcDbEntity
8
PERIMETER
100
AcDbCircle
10
-43.844392300565467
20
-53.700740071503787
30
0
40
1.1628746996179293
210
0
220
0
230
1
100
AcDbArc
50
137.69415602847914
51
226.98390316485273
0
LINE
5
1F3
100
AcDbEntity
8
PERIMETER
100
AcDbLine
10
-41.864389095029999
20
-57.138610437127078
30
0
11
-44.637709841524291
21
-54.550989944316782
31
0
0
ARC
5
1F4
100
AcDbEntity
8
PERIMETER
100
AcDbCircle
10
-42.363126557173167
20
-57.37387668614187
30
0
40
0.55144289284612136
210
-0
220
0
230
1
100
AcDbArc
50
-45.000000000000504
51
25.254359575126298
0
LINE
5
1F5
100
AcDbEntity
8
PERIMETER
100
AcDbLine
10
-45.609479024591053
20
-61.400087171497042
30
0
11
-41.973197548204553
21
-57.763805695110491
31
0
0
ARC
5
1F6
100
AcDbEntity
8
PERIMETER
100
AcDbCircle
10
-47.023692586964131
20
-59.985873609123956
30
0
40
1.9999999999999829
210
0
220
0
230
1
100
AcDbArc
50
238.18002036579659
51
315
0
LINE
5
1F7
100
AcDbEntity
8
PERIMETER
100
AcDbLine
10
-81.816636249077902
20
-28.000547964586517
30
0
11
-48.078196846710384
21
-61.685291381826403
31
0
0
ARC
5
1F8
100
AcDbEntity
8
PERIMETER
100
AcDbCircle
10
-79.771843928945685
20
-26.013308323355567
30
0
40
2.8513675708598885
210
0
220
0
230
1
100
AcDbArc
50
135.00000000019509
51
224.18222332804046
0
LINE
5
1F9
100
AcDbEntity
8
PERIMETER
100
AcDbLine
10
-80.887948080448894
20
-23.096969784831547
30
0
11
-81.788065273962985
21
-23.997086978351998
31
0
0
ARC
5
1FA
100
AcDbEntity
8
PERIMETER
100
AcDbCircle
10
-78.737314968884306
20
-25.24760289638153
30
0
40
3.0414545140529716
210
0
220
-0
230
1
100
AcDbArc
50
46.152424861139288
51
135.00000000019455
0
LINE
5
1FB
100
AcDbEntity
8
PERIMETER
100
AcDbLine
10
-75.46723478124693
20
-24.17141364567162
30
0
11
-76.630370944964568
21
-23.054150722040347
31
0
0
ARC
5
1FC
100
AcDbEntity
8
PERIMETER
100
AcDbCircle
10
-74.775652163194962
20
-23.451435620588388
30
0
40
0.99832603601948722
210
0
220
0
230
1
100
AcDbArc
50
226.15242486113917
51
315.64348360887777
0
ARC
5
1FD
100
AcDbEntity
8
PERIMETER
100
AcDbCircle
10
5.5845900375581348
20
-102.02661373959103
30
0
40
111.39307551675361
210
0
220
0
230
1
100
AcDbArc
50
110.9886415690153
51
135.64348360887675
0
ARC
5
1FE
100
AcDbEntity
8
PERIMETER
100
AcDbCircle
10
-34.759416064381327
20
2.9082606403982036
30
0
40
1.0332626884431062
210
-0
220
0
230
1
100
AcDbArc
50
-64.494849995008465
51
5.8373074632046462
0
LINE
5
1FF
100
AcDbEntity
8
PERIMETER
100
AcDbLine
10
-33.731511156752774
20
50.217004600152976
30
0
11
-33.731511156752717
21
3.0133476719558416
31
0
0
ARC
5
200
100
AcDbEntity
8
PERIMETER
100
AcDbCircle
10
-33.231511156752674
20
50.217004600152947
30
0
40
0.50000000000009548
210
0
220
0
230
1
100
AcDbArc
50
105.25620639646687
51
180
0
ARC
5
201
100
AcDbEntity
8
PERIMETER
100
AcDbCircle
10
8.4596443183511472
20
-102.63913410140376
30
0
40
158.93974117499323
210
0
220
0
230
1
100
AcDbArc
50
103.28014893674539
51
105.25620639650907
0
ARC
5
202
100
AcDbEntity
8
PERIMETER
100
AcDbCircle
10
-28.280521408254078
20
53.023581503539326
30
0
40
0.99999999999995026
210
-0
220
0
230
1
100
AcDbArc
50
-76.719851063257778
51
12.804036775633186
0
LINE
5
203
100
AcDbEntity
8
PERIMETER
100
AcDbLine
10
-27.944454808264148
20
56.057146203357178
30
0
11
-27.305387665573981
21
53.245198704781927
31
0
0
ARC
5
204
100
AcDbEntity
8
PERIMETER
100
AcDbCircle
10
-25.994187322903866
20
56.500380605842373
30
0
40
1.9999999999999798
210
0
220
0
230
1
100
AcDbArc
50
102.80403677563221
51
192.8040367756324
0
LINE
5
205
100
AcDbEntity
8
PERIMETER
100
AcDbLine
10
-23.843064797711619
20
59.040263747159727
30
0
11
-26.437421725389054
21
58.450648091202659
31
0
0
ARC
5
206
100
AcDbEntity
8
PERIMETER
100
AcDbCircle
10
-23.399830395226413
20
57.089996261799421
30
0
40
2.0000000000000098
210
0
220
-0
230
1
100
AcDbArc
50
12.804036775632641
51
102.80403677563258
0
LINE
5
207
100
AcDbEntity
8
PERIMETER
100
AcDbLine
10
-20.774460813935576
20
54.562726435349298
30
0
11
-21.449562909866103
21
57.533230664284631
31
0
0
ARC
5
208
100
AcDbEntity
8
PERIMETER
100
AcDbCircle
10
-19.799327071255483
20
54.784343636591835
30
0
40
0.99999999999993483
210
0
220
0
230
1
100
AcDbArc
50
192.80403677562964
51
280.1767362603033
0
ARC
5
209
100
AcDbEntity
8
PERIMETER
100
AcDbCircle
10
8.4596443183511472
20
-102.63913410140376
30
0
40
158.93974117499323
210
0
220
-0
230
1
100
AcDbArc
50
65.671069320237905
51
100.17673626029614
0
LINE
5
20A
100
AcDbEntity
8
PERIMETER
100
AcDbLine
10
76.443449393943496
20
41.168824097937929
30
0
11
73.93876568877927
21
42.186022516259108
31
0
0
ARC
5
20B
100
AcDbEntity
8
PERIMETER
100
AcDbCircle
10
76.977610417400967
20
42.484107711528154
30
0
40
1.4196122650780691
210
0
220
0
230
1
100
AcDbArc
50
247.89701845821358
51
317.96715422208115
0
LINE
5
20C
100
AcDbEntity
8
PERIMETER
100
AcDbLine
10
79.836311003422537
20
43.535130808237966
30
0
11
78.032043203313052
21
41.533597068161242
31
0
0
ARC
5
20D
100
AcDbEntity
8
PERIMETER
100
AcDbCircle
10
81.261221034899506
20
42.115999753761741
30
0
40
2.0110448894996189
210
0
220
-0
230
1
100
AcDbArc
50
73.505321916585984
51
135.11642255731769
0
ARC
5
20E
100
AcDbEntity
8
PERIMETER
100
AcDbCircle
10
81.073497754608198
20
41.482040350288393
30
0
40
2.6722139716681772
210
-0
220
0
230
1
100
AcDbArc
50
-0.32766555331573782
51
73.50532191658651
0
LINE
5
20F
100
AcDbEntity
8
PERIMETER
100
AcDbLine
10
83.745668028790874
20
-21.624965142705264
30
0
11
83.745668028799528
21
41.466758462087867
31
0
0
LINE
5
210
100
AcDbEntity
8
PERIMETER
100
AcDbLine
10
83.771119643140707
20
-26.233381567930074
30
0
11
83.745668028790874
21
-21.624965142705264
31
0
0
ARC
5
211
100
AcDbEntity
8
PERIMETER
100
AcDbCircle
10
81.771150144420147
20
-26.244427108914643
30
0
40
1.9999999999470663
210
-0
220
0
230
1
100
AcDbArc
50
-90
51
0.31643304903616426
0
LINE
5
212
100
AcDbEntity
8
PERIMETER
100
AcDbLine
10
77.147914118242454
20
-28.244427108879293
30
0
11
81.771150144420119
21
-28.244427108861707
31
0
0
ARC
5
213
100
AcDbEntity
8
PERIMETER
100
AcDbCircle
10
77.147914118242454
20
-26.244427108903253
30
0
40
1.9999999999760387
210
0
220
0
230
1
100
AcDbArc
50
180
51
270
0
LINE
5
214
100
AcDbEntity
8
PERIMETER
100
AcDbLine
10
75.147914118220342
20
-23.951412841844455
30
0
11
75.147914118266414
21
-26.244427108903245
31
0
0
ARC
5
215
100
AcDbEntity
8
PERIMETER
100
AcDbCircle
10
73.920230134433623
20
-23.951412841844455
30
0
40
1.2276839837867382
210
0
220
-0
230
1
100
AcDbArc
50
0
51
90.000000000000654
0
LINE
5
216
100
AcDbEntity
8
PERIMETER
100
AcDbLine
10
38.361434917203312
20
-22.72372885807982
30
0
11
73.920230134433609
21
-22.723728858057726
31
0
0
ARC
5
217
100
AcDbEntity
8
PERIMETER
100
AcDbCircle
10
38.361434917203312
20
-23.72372885807982
30
0
40
1.0000000000000009
210
0
220
-0
230
1
100
AcDbArc
50
90
51
180
0
LINE
5
218
100
AcDbEntity
8
PERIMETER
100
AcDbLine
10
37.361434917203319
20
-29.249561130668464
30
0
11
37.361434917203312
21
-23.72372885807982
31
0
0
ARC
5
219
100
AcDbEntity
8
PERIMETER
100
AcDbCircle
10
36.361434917204683
20
-29.249561130668464
30
0
40
0.99999999999862865
210
-0
220
0
230
1
100
AcDbArc
50
-90
51
0
0
LINE
5
21A
100
AcDbEntity
8
PERIMETER
100
AcDbLine
10
19.695949413224511
20
-30.249561130667082
30
0
11
36.361434917204683
21
-30.249561130667093
31
0
0
ARC
5
21B
100
AcDbEntity
8
PERIMETER
100
AcDbCircle
10
19.695949413224511
20
-31.249561130667086
30
0
40
1.0000000000000009
210
0
220
-0
230
1
100
AcDbArc
50
90
51
180
0
LINE
5
21C
100
AcDbEntity
8
PERIMETER
100
AcDbLine
10
18.695949413224508
20
-34.868036394955773
30
0
11
18.695949413224511
21
-31.24956113066709
31
0
0
ARC
5
21D
100
AcDbEntity
8
PERIMETER
100
AcDbCircle
10
17.695949413224497
20
-34.868036394955773
30
0
40
1.0000000000000098
210
0
220
0
230
1
100
AcDbArc
50
-90.000000000000611
51
0
0
LINE
5
21E
100
AcDbEntity
8
PERIMETER
100
AcDbLine
10
10.800109981965562
20
-35.868036394955773
30
0
11
17.695949413224486
21
-35.86803639495578
31
0
0
ARC
5
21F
100
AcDbEntity
8
PERIMETER
100
AcDbCircle
10
10.800109981965571
20
-34.86803639495578
30
0
40
0.99999999999998757
210
0
220
0
230
1
100
AcDbArc
50
180
51
269.99999999999949
0
ENDSEC
0
SECTION
2
OBJECTS
0
DICTIONARY
5
C
100
AcDbDictionary
3
ACAD_GROUP
350
D
3
ACAD_MLINESTYLE
350
17
0
DICTIONARY
5
D
100
AcDbDictionary
0
DICTIONARY
5
1A
330
C
100
AcDbDictionary
0
DICTIONARY
5
17
100
AcDbDictionary
0
ENDSEC
0
EOF
